<svg xmlns="http://www.w3.org/2000/svg" xmlns:xlink="http://www.w3.org/1999/xlink" width="168" height="168" viewBox="0 0 168 168">
  <defs>
    <filter id="Elipse_10" x="0" y="0" width="168" height="168" filterUnits="userSpaceOnUse">
      <feOffset dy="3" input="SourceAlpha"/>
      <feGaussianBlur stdDeviation="3" result="blur"/>
      <feFlood flood-opacity="0.161"/>
      <feComposite operator="in" in2="blur"/>
      <feComposite in="SourceGraphic"/>
    </filter>
  </defs>
  <g id="Grupo_1516" data-name="Grupo 1516" transform="translate(4256 18469)">
    <g id="Grupo_1515" data-name="Grupo 1515">
      <g id="Grupo_58" data-name="Grupo 58" transform="translate(-5135 -19395)">
        <g transform="matrix(1, 0, 0, 1, 879, 926)" filter="url(#Elipse_10)">
          <circle id="Elipse_10-2" data-name="Elipse 10" cx="75" cy="75" r="75" transform="translate(9 6)" fill="#d6fffa"/>
        </g>
      </g>
      <path id="Trazado_287" data-name="Trazado 287" d="M74.439,5.24H28.612A10.329,10.329,0,0,0,18.3,15.558v73.2A10.329,10.329,0,0,0,28.612,99.074H74.439A10.331,10.331,0,0,0,84.758,88.754v-73.2A10.331,10.331,0,0,0,74.439,5.24Zm7.175,83.514a7.183,7.183,0,0,1-7.175,7.175H28.612a7.182,7.182,0,0,1-7.173-7.175V47.509H81.613V88.754ZM59.981,36.917a8.759,8.759,0,0,1,8.643,7.447h-34.2a8.759,8.759,0,0,1,8.643-7.447ZM44.327,23.592a7.2,7.2,0,0,1,14.4,0c0,4.176-3.493,9.565-7.2,9.565S44.327,27.768,44.327,23.592ZM81.614,44.365H71.8a11.911,11.911,0,0,0-11.82-10.592h-2.64a14.7,14.7,0,0,0,4.53-10.181,10.345,10.345,0,0,0-20.69,0,14.7,14.7,0,0,0,4.529,10.181H43.07A11.913,11.913,0,0,0,31.25,44.365H21.441V15.558a7.181,7.181,0,0,1,7.173-7.174H74.44a7.183,7.183,0,0,1,7.175,7.174V44.365Z" transform="translate(-4223.026 -18436.574)" fill="#019f86"/>
    </g>
    <g id="Grupo_682" data-name="Grupo 682" transform="translate(-4215.589 -18435.449)">
      <rect id="Rectángulo_256" data-name="Rectángulo 256" width="7" height="25" rx="3.5" transform="translate(33.589 55.448)" fill="#019f86"/>
      <rect id="Rectángulo_257" data-name="Rectángulo 257" width="7" height="25" rx="3.5" transform="translate(45.589 55.448)" fill="#019f86"/>
      <rect id="Rectángulo_258" data-name="Rectángulo 258" width="7" height="19" rx="3.5" transform="translate(52.589 65.448) rotate(90)" fill="#019f86"/>
    </g>
  </g>
</svg>
