<svg xmlns="http://www.w3.org/2000/svg" xmlns:xlink="http://www.w3.org/1999/xlink" width="168" height="168" viewBox="0 0 168 168">
  <defs>
    <filter id="Elipse_10" x="0" y="0" width="168" height="168" filterUnits="userSpaceOnUse">
      <feOffset dy="3" input="SourceAlpha"/>
      <feGaussianBlur stdDeviation="3" result="blur"/>
      <feFlood flood-opacity="0.161"/>
      <feComposite operator="in" in2="blur"/>
      <feComposite in="SourceGraphic"/>
    </filter>
  </defs>
  <g id="Grupo_1526" data-name="Grupo 1526" transform="translate(-869 -1725)">
    <g id="Grupo_675" data-name="Grupo 675" transform="translate(-7 396)">
      <g id="Grupo_58" data-name="Grupo 58" transform="translate(-3 403)">
        <g transform="matrix(1, 0, 0, 1, 879, 926)" filter="url(#Elipse_10)">
          <circle id="Elipse_10-2" data-name="Elipse 10" cx="75" cy="75" r="75" transform="translate(9 6)" fill="#d6fffa"/>
        </g>
      </g>
    </g>
    <g id="noun_Microscope_375672" transform="translate(898.389 1751.277)">
      <path id="Trazado_297" data-name="Trazado 297" d="M94.866,15.7a1.68,1.68,0,0,0-.49-1.186l-7.3-7.3a1.675,1.675,0,0,0-2.368,0l-9.343,9.342-.84-.84a1.678,1.678,0,0,0-2.37,0L30.173,57.7a1.674,1.674,0,0,0,0,2.368l.838.838-6.4,6.4a1.676,1.676,0,0,0,0,2.368l7.3,7.3a1.678,1.678,0,0,0,2.369,0l6.4-6.4.845.846a1.677,1.677,0,0,0,2.369,0L69.455,45.864a8.285,8.285,0,0,0,2.913,1.217A27.422,27.422,0,0,1,69.428,82.3,1.675,1.675,0,0,0,71.8,84.671a30.809,30.809,0,0,0,4.515-37.743,8.374,8.374,0,0,0,5.015-3.958A37.062,37.062,0,0,1,76.292,89.16a37.186,37.186,0,0,1-50.7,1.687c-.384-.337-2.014-1.868-3.511-3.518h9.157a1.675,1.675,0,1,0,0-3.349H15.286a1.675,1.675,0,0,0,0,3.349h2.437a48.654,48.654,0,0,0,5.654,6.036,40.282,40.282,0,0,0,26.636,10H88.118a1.675,1.675,0,1,0,0-3.349H66.17a40.438,40.438,0,0,0,16.2-61.427A8.3,8.3,0,0,0,81,34.319l4.879-4.878a1.674,1.674,0,0,0,0-2.368l-.847-.849,9.345-9.344A1.681,1.681,0,0,0,94.866,15.7ZM33.095,73.423l-4.929-4.93,5.208-5.211,4.931,4.933ZM74.045,43.9a5,5,0,1,1,5-5A5,5,0,0,1,74.045,43.9Zm4.593-11.956A8.336,8.336,0,0,0,67.085,43.5L42.709,67.872l-8.984-8.988L73.338,19.268l8.987,8.989Zm4.024-8.088-4.93-4.933,8.159-8.158,4.933,4.93Z" transform="translate(0)" fill="#019f86"/>
    </g>
  </g>
</svg>
