<svg xmlns="http://www.w3.org/2000/svg" xmlns:xlink="http://www.w3.org/1999/xlink" width="168" height="168" viewBox="0 0 168 168">
  <defs>
    <filter id="Elipse_10" x="0" y="0" width="168" height="168" filterUnits="userSpaceOnUse">
      <feOffset dy="3" input="SourceAlpha"/>
      <feGaussianBlur stdDeviation="3" result="blur"/>
      <feFlood flood-opacity="0.161"/>
      <feComposite operator="in" in2="blur"/>
      <feComposite in="SourceGraphic"/>
    </filter>
  </defs>
  <g id="Grupo_1529" data-name="Grupo 1529" transform="translate(4595 18348)">
    <g id="Grupo_1521" data-name="Grupo 1521" transform="translate(-5471 -19677)">
      <g id="Grupo_58" data-name="Grupo 58" transform="translate(-3 403)">
        <g transform="matrix(1, 0, 0, 1, 879, 926)" filter="url(#Elipse_10)">
          <circle id="Elipse_10-2" data-name="Elipse 10" cx="75" cy="75" r="75" transform="translate(9 6)" fill="#d6fffa"/>
        </g>
      </g>
    </g>
    <g id="Grupo_1520" data-name="Grupo 1520" transform="translate(-5464 -19673)">
      <g id="Grupo_679" data-name="Grupo 679" transform="translate(907.634 1355)">
        <path id="Trazado_296" data-name="Trazado 296" d="M84.6,62.872H44.4A12.659,12.659,0,0,0,31.864,73.937H10.682V50.528a1.584,1.584,0,1,0-3.168,0V97.69a1.584,1.584,0,1,0,3.168,0V88.457H94.075V97.69a1.584,1.584,0,1,0,3.168,0V75.552c0-.011,0-.021,0-.031A12.665,12.665,0,0,0,84.6,62.872ZM50.793,85.288H10.682V77.1H50.793Zm0-11.352H35.065a9.489,9.489,0,0,1,9.337-7.9h6.391v7.9ZM94.074,75.52v9.768H53.961V66.04H84.6a9.492,9.492,0,0,1,9.48,9.459A.145.145,0,0,0,94.074,75.52ZM22.485,72.527a8.336,8.336,0,1,0-8.334-8.338A8.346,8.346,0,0,0,22.485,72.527Zm0-13.5a5.168,5.168,0,1,1-5.166,5.166A5.174,5.174,0,0,1,22.485,59.024Zm25.124-20.47,5.444,10.4a1.584,1.584,0,0,0,2.807,0l5.44-10.4a16.9,16.9,0,0,0,5.286-3.577,17.156,17.156,0,1,0-24.263,0A16.915,16.915,0,0,0,47.609,38.554Zm-3.046-25.6A13.989,13.989,0,1,1,59.585,35.834a1.584,1.584,0,0,0-.825.74l-4.3,8.231-4.307-8.231a1.588,1.588,0,0,0-.825-.74,13.8,13.8,0,0,1-4.762-3.1A14.007,14.007,0,0,1,44.563,12.953Z" transform="translate(-7.514 -5.689)" fill="#019f86"/>
      </g>
      <g id="noun_Helipad_392505_1_" data-name="noun_Helipad_392505 (1)" transform="translate(937 1354.803)">
        <path id="Trazado_298" data-name="Trazado 298" d="M18,7.758a9.419,9.419,0,1,0,9.419,9.419A9.429,9.429,0,0,0,18,7.758Zm0,18.156a8.737,8.737,0,1,1,8.737-8.737A8.746,8.746,0,0,1,18,25.914Zm4.965-14.359H19.628a.341.341,0,0,0-.341.341v3.272H16.71V11.9a.341.341,0,0,0-.341-.341H13.034a.341.341,0,0,0-.341.341V22.458a.341.341,0,0,0,.341.341h3.335a.341.341,0,0,0,.341-.341V19.186h2.577v3.273a.341.341,0,0,0,.341.341h3.335a.341.341,0,0,0,.341-.341V11.9A.341.341,0,0,0,22.963,11.555Zm-.341,10.562H19.969V18.845a.341.341,0,0,0-.341-.341H16.369a.341.341,0,0,0-.341.341v3.273H13.375v-9.88h2.653V15.51a.341.341,0,0,0,.341.341h3.259a.341.341,0,0,0,.341-.341V12.237h2.653Z" transform="translate(0 0)" fill="#019f86" stroke="#019f86" stroke-width="1"/>
      </g>
    </g>
  </g>
</svg>
