<svg xmlns="http://www.w3.org/2000/svg" xmlns:xlink="http://www.w3.org/1999/xlink" width="168" height="168" viewBox="0 0 168 168">
  <defs>
    <filter id="Elipse_10" x="0" y="0" width="168" height="168" filterUnits="userSpaceOnUse">
      <feOffset dy="3" input="SourceAlpha"/>
      <feGaussianBlur stdDeviation="3" result="blur"/>
      <feFlood flood-opacity="0.161"/>
      <feComposite operator="in" in2="blur"/>
      <feComposite in="SourceGraphic"/>
    </filter>
  </defs>
  <g id="Grupo_1512" data-name="Grupo 1512" transform="translate(4386 18217)">
    <g id="Grupo_220" data-name="Grupo 220" transform="translate(-5262 -19143)">
      <g id="Grupo_58" data-name="Grupo 58" transform="translate(-3)">
        <g transform="matrix(1, 0, 0, 1, 879, 926)" filter="url(#Elipse_10)">
          <circle id="Elipse_10-2" data-name="Elipse 10" cx="75" cy="75" r="75" transform="translate(9 6)" fill="#d6fffa"/>
        </g>
      </g>
    </g>
    <g id="noun_Hospital_409251" transform="translate(-4355.432 -18189.934)">
      <path id="Trazado_289" data-name="Trazado 289" d="M85.9,84.4h9.235a1.691,1.691,0,0,0,1.692-1.692V75.8a1.693,1.693,0,0,0-1.692-1.692H85.9A1.693,1.693,0,0,0,84.21,75.8v6.908A1.691,1.691,0,0,0,85.9,84.4Zm1.692-6.908h5.851v3.524H87.594ZM85.9,70.969h9.235a1.693,1.693,0,0,0,1.692-1.692V62.369a1.693,1.693,0,0,0-1.692-1.692H85.9a1.693,1.693,0,0,0-1.692,1.692v6.908A1.692,1.692,0,0,0,85.9,70.969Zm1.692-6.908h5.851v3.524H87.594ZM85.9,57.54h9.235a1.692,1.692,0,0,0,1.692-1.692V48.94a1.692,1.692,0,0,0-1.692-1.692H85.9A1.692,1.692,0,0,0,84.21,48.94v6.908A1.692,1.692,0,0,0,85.9,57.54Zm1.692-6.908h5.851v3.524H87.594Zm-36.57-3.359H41.789A1.692,1.692,0,0,0,40.1,48.965v6.908a1.692,1.692,0,0,0,1.692,1.692h9.235a1.692,1.692,0,0,0,1.692-1.692V48.965A1.692,1.692,0,0,0,51.024,47.273Zm-1.692,6.909H43.481V50.658h5.851ZM69.72,60.7H60.485a1.692,1.692,0,0,0-1.692,1.692V69.3a1.692,1.692,0,0,0,1.692,1.692H69.72A1.692,1.692,0,0,0,71.412,69.3V62.395A1.692,1.692,0,0,0,69.72,60.7Zm-1.692,6.908H62.177V64.087h5.851ZM58.793,48.965v6.908a1.692,1.692,0,0,0,1.692,1.692H69.72a1.692,1.692,0,0,0,1.692-1.692V48.965a1.692,1.692,0,0,0-1.692-1.692H60.485A1.692,1.692,0,0,0,58.793,48.965Zm3.383,1.692h5.851v3.524H62.177ZM51.024,60.7H41.789A1.692,1.692,0,0,0,40.1,62.395V69.3a1.692,1.692,0,0,0,1.692,1.692h9.235A1.692,1.692,0,0,0,52.716,69.3V62.395A1.692,1.692,0,0,0,51.024,60.7Zm-1.692,6.908H43.481V64.087h5.851ZM16.372,57.54h9.235A1.692,1.692,0,0,0,27.3,55.848V48.94a1.692,1.692,0,0,0-1.692-1.692H16.372a1.692,1.692,0,0,0-1.692,1.692v6.908A1.692,1.692,0,0,0,16.372,57.54Zm1.692-6.908h5.851v3.524H18.064ZM16.372,84.4h9.235A1.691,1.691,0,0,0,27.3,82.707V75.8a1.693,1.693,0,0,0-1.692-1.692H16.372A1.693,1.693,0,0,0,14.681,75.8v6.908A1.691,1.691,0,0,0,16.372,84.4Zm1.692-6.908h5.851v3.524H18.064Zm-1.692-6.522h9.235A1.693,1.693,0,0,0,27.3,69.277V62.369a1.693,1.693,0,0,0-1.692-1.692H16.372a1.693,1.693,0,0,0-1.692,1.692v6.908A1.692,1.692,0,0,0,16.372,70.969Zm1.692-6.908h5.851v3.524H18.064ZM106.026,39.8,89.932,23.712a1.694,1.694,0,0,0-1.2-.5H63.74l-6.788-6.786a1.691,1.691,0,0,0-2.392,0l-6.79,6.786H22.776a1.7,1.7,0,0,0-1.2.5L5.483,39.8a1.692,1.692,0,0,0,1.2,2.888H7.914V91.085a1.692,1.692,0,0,0,1.692,1.692h92.3a1.692,1.692,0,0,0,1.692-1.692V42.692h1.234a1.691,1.691,0,0,0,1.2-2.888ZM30.683,89.392H11.3v-46.7H30.682v46.7ZM10.764,39.308,23.475,26.6h20.91L31.674,39.308Zm43.3,50.083H48.1v-11.9h5.964Zm9.349,0H57.446v-11.9h5.965Zm14.031,0H66.794V75.8A1.693,1.693,0,0,0,65.1,74.107h-18.7A1.693,1.693,0,0,0,44.715,75.8V89.393H34.067V41.7L55.756,20.016,77.442,41.7Zm22.771,0H80.825v-46.7h19.387ZM79.835,39.308,67.124,26.6H88.035l12.711,12.711Z" transform="translate(0 0)" fill="#019f86"/>
    </g>
    <g id="Grupo_681" data-name="Grupo 681" transform="translate(-4877 -19143)">
      <rect id="Rectángulo_253" data-name="Rectángulo 253" width="4" height="13" rx="2" transform="translate(571 985)" fill="#019f86"/>
      <rect id="Rectángulo_255" data-name="Rectángulo 255" width="4" height="13" rx="2" transform="translate(584 989.5) rotate(90)" fill="#019f86"/>
      <rect id="Rectángulo_254" data-name="Rectángulo 254" width="4" height="13" rx="2" transform="translate(580 985)" fill="#019f86"/>
    </g>
  </g>
</svg>
