<svg xmlns="http://www.w3.org/2000/svg" xmlns:xlink="http://www.w3.org/1999/xlink" width="168" height="168" viewBox="0 0 168 168">
  <defs>
    <filter id="Elipse_10" x="0" y="0" width="168" height="168" filterUnits="userSpaceOnUse">
      <feOffset dy="3" input="SourceAlpha"/>
      <feGaussianBlur stdDeviation="3" result="blur"/>
      <feFlood flood-opacity="0.161"/>
      <feComposite operator="in" in2="blur"/>
      <feComposite in="SourceGraphic"/>
    </filter>
  </defs>
  <g id="Grupo_1522" data-name="Grupo 1522" transform="translate(-1260 -1329)">
    <g id="Grupo_58" data-name="Grupo 58" transform="translate(381 403)">
      <g transform="matrix(1, 0, 0, 1, 879, 926)" filter="url(#Elipse_10)">
        <circle id="Elipse_10-2" data-name="Elipse 10" cx="75" cy="75" r="75" transform="translate(9 6)" fill="#d6fffa"/>
      </g>
    </g>
    <g id="noun_pet_iv_bag_2077798" data-name="noun_pet iv bag_2077798" transform="translate(1172.83 1313.892)">
      <g id="Grupo_114" data-name="Grupo 114" transform="translate(142.739 47.108)">
        <path id="Trazado_65" data-name="Trazado 65" d="M256.513,78.829a4.88,4.88,0,1,0-4.88-4.88A4.885,4.885,0,0,0,256.513,78.829Zm0-6.786a1.906,1.906,0,1,1-1.906,1.906A1.908,1.908,0,0,1,256.513,72.043Z" transform="translate(-224.649 -63.628)" fill="#019f86"/>
        <path id="Trazado_66" data-name="Trazado 66" d="M189.317,55.57a6.938,6.938,0,0,1-6.056-3.426,9.96,9.96,0,0,0-17.316,0,6.939,6.939,0,0,1-6.056,3.426h-9.555V67.923h-.042V70.9h.042v39.152a13.572,13.572,0,0,0,10.719,13.281v5.591h2.582v12.5a6.243,6.243,0,0,1-12.486,0V138.8a7,7,0,1,0-2.974-.032v2.646a9.216,9.216,0,0,0,18.433,0v-12.5h4.155v-5.285h5.695v5.285h3.284v5.84h2.974v-5.84h3.452v-5.314a13.6,13.6,0,0,0,12.705-13.559V55.57ZM149.73,135.976a4.018,4.018,0,1,1,4.018-4.018A4.022,4.022,0,0,1,149.73,135.976Zm10.158-77.432a9.917,9.917,0,0,0,8.64-4.928,6.987,6.987,0,0,1,12.149,0,9.917,9.917,0,0,0,8.64,4.928H195.9V70.823a6.1,6.1,0,0,1-2.655-1.168,9.082,9.082,0,0,0-10.669,0,6.129,6.129,0,0,1-7.4,0,9.08,9.08,0,0,0-10.667,0,6.128,6.128,0,0,1-7.4,0,8.968,8.968,0,0,0-3.8-1.616V58.544Zm25.4,62.118h-2.092v5.285H179.43v-5.285H167.788v5.285h-3.763v-5.207l-1.319-.15a10.6,10.6,0,0,1-9.218-8.582h.017a6.415,6.415,0,0,1-.2-1.584V71.065a6.7,6.7,0,0,1,2.169,1.073,9.079,9.079,0,0,0,10.667,0,6.129,6.129,0,0,1,7.4,0,9.08,9.08,0,0,0,10.668,0,6.131,6.131,0,0,1,7.4,0,8.794,8.794,0,0,0,4.29,1.679v36.232A10.625,10.625,0,0,1,185.285,120.662Z" transform="translate(-142.739 -47.108)" fill="#019f86"/>
        <path id="Trazado_67" data-name="Trazado 67" d="M237.72,225.154h0a15.649,15.649,0,0,1-4.071-4.359,8.32,8.32,0,0,0-13.993,0,15.637,15.637,0,0,1-4.071,4.359,8.331,8.331,0,0,0,4.772,15.164h12.591a8.331,8.331,0,0,0,4.772-15.164Zm-4.772,12.19H220.357a5.357,5.357,0,0,1-3.065-9.756,18.59,18.59,0,0,0,4.858-5.176,5.347,5.347,0,0,1,9,0,18.6,18.6,0,0,0,4.859,5.175h0a5.357,5.357,0,0,1-3.065,9.756Z" transform="translate(-194.852 -174.884)" fill="#019f86"/>
        <path id="Trazado_68" data-name="Trazado 68" d="M208.71,206.059v-2.971a4.072,4.072,0,0,0-8.143,0v2.971a4.072,4.072,0,1,0,8.143,0Zm-5.17,0v-2.971a1.1,1.1,0,0,1,2.2,0v2.971a1.1,1.1,0,1,1-2.2,0Z" transform="translate(-186.237 -161.373)" fill="#019f86"/>
        <path id="Trazado_69" data-name="Trazado 69" d="M312.2,199.017a4.076,4.076,0,0,0-4.072,4.072v2.971a4.072,4.072,0,1,0,8.143,0v-2.971A4.077,4.077,0,0,0,312.2,199.017Zm1.1,7.043a1.1,1.1,0,1,1-2.2,0v-2.971a1.1,1.1,0,0,1,2.2,0Z" transform="translate(-267.147 -161.374)" fill="#019f86"/>
        <path id="Trazado_70" data-name="Trazado 70" d="M238.563,181.171a4.076,4.076,0,0,0,4.071-4.072v-2.971a4.072,4.072,0,1,0-8.143,0V177.1A4.076,4.076,0,0,0,238.563,181.171Zm-1.1-7.043a1.1,1.1,0,1,1,2.2,0V177.1a1.1,1.1,0,0,1-1.1,1.1h0a1.1,1.1,0,0,1-1.1-1.1Z" transform="translate(-211.755 -139.59)" fill="#019f86"/>
        <path id="Trazado_71" data-name="Trazado 71" d="M278.279,181.171a4.076,4.076,0,0,0,4.072-4.072v-2.971a4.072,4.072,0,1,0-8.143,0V177.1A4.076,4.076,0,0,0,278.279,181.171Zm-1.1-7.043a1.1,1.1,0,1,1,2.2,0V177.1a1.1,1.1,0,0,1-1.1,1.1h0a1.1,1.1,0,0,1-1.1-1.1Z" transform="translate(-241.629 -139.59)" fill="#019f86"/>
      </g>
    </g>
  </g>
</svg>
