<?xml version="1.0" encoding="utf-8"?>
<!-- Generator: Adobe Illustrator 24.0.2, SVG Export Plug-In . SVG Version: 6.00 Build 0)  -->
<svg version="1.1" id="Capa_1" xmlns="http://www.w3.org/2000/svg" xmlns:xlink="http://www.w3.org/1999/xlink" x="0px" y="0px"
	 viewBox="0 0 168 168" style="enable-background:new 0 0 168 168;" xml:space="preserve">
<style type="text/css">
	.st0{fill:#D6FFFA;}
	.st1{fill:none;stroke:#019F86;stroke-width:2;stroke-miterlimit:10;}
</style>
<circle id="Elipse_10-2" class="st0" cx="84" cy="81" r="75"/>
<g id="Grupo_283" transform="translate(-714 1819)">
	<g id="Elipse_16" transform="translate(1024 -57)">
		<circle class="st1" cx="-226" cy="-1678" r="46.9"/>
		<circle class="st1" cx="-226" cy="-1678" r="45.4"/>
	</g>
</g>
<g id="noun_hands_403275" transform="translate(311.919 1763.476)">
	<path id="Trazado_215" class="st1" d="M-200.4-1699.5c-3.9-3.9-9.2-6.1-14.7-6.1l0,0c-4.8,0-9.4,1.6-13.1,4.6
		c-9-7.2-22-5.7-29.2,3.2c-6.6,8.2-6,20,1.4,27.5l0.1,0.1l24.1,24.1c2,2,5.3,2.1,7.3,0.1c1.2-1.1,1.7-2.8,1.5-4.4c0.2,0,0.4,0,0.6,0
		c2.9,0,5.2-2.3,5.2-5.2c0-0.2,0-0.4,0-0.6c0.2,0,0.4,0,0.6,0l0,0c2.9,0,5.2-2.3,5.2-5.2c0-0.2,0-0.4,0-0.6c0.2,0,0.4,0,0.6,0
		c1.4,0,2.7-0.5,3.7-1.5l0,0l6.7-6.7l0.1-0.1C-192.3-1678.3-192.4-1691.4-200.4-1699.5L-200.4-1699.5z M-212.9-1665l-11.9-11.9
		c-0.4-0.4-1.1-0.4-1.6,0c-0.4,0.4-0.4,1.1,0,1.6l0,0l11.9,11.9c1.2,1.2,1.2,3,0,4.2c-0.6,0.6-1.3,0.9-2.1,0.9l0,0
		c-0.8,0-1.5-0.3-2.1-0.9l0,0l-11.9-11.9c-0.4-0.4-1.1-0.4-1.6,0c-0.4,0.4-0.4,1.1,0,1.6l0,0l11.9,11.9c1.1,1.2,1,3.1-0.2,4.2
		c-1.1,1-2.8,1-4,0l-11.9-11.9c-0.4-0.4-1.1-0.4-1.6,0c-0.4,0.4-0.4,1.1,0,1.6l11.9,11.9c1.1,1.2,1.1,3.1-0.1,4.2
		c-1.1,1.1-2.9,1.1-4.1,0l-24-24l-0.1-0.1c-7.2-7.2-7.2-19,0-26.2c6.6-6.6,17.1-7.3,24.5-1.5l-14.7,14.7c-1.3,1.3-1.3,3.5,0.1,4.8
		c0.1,0.1,0.2,0.2,0.3,0.2c3,2.9,7.8,2.8,10.8-0.2l5.6-5.6c1.7,1.7,3.9,2.8,6.2,3.4l12.9,12.9c1.2,1.2,1.2,3,0,4.2
		S-211.8-1663.8-212.9-1665L-212.9-1665z M-202-1671.7C-202-1671.7-202.1-1671.6-202-1671.7l-3.7,3.7c-0.2-1.1-0.7-2-1.4-2.8
		l-11.3-11.3c1.8-0.4,3.5-1.3,4.8-2.6c0.4-0.4,0.4-1.1,0-1.6c-0.4-0.5-1.1-0.4-1.6,0c-1.4,1.6-3.5,2.3-5.5,2.1
		c-2.4-0.5-4.7-1.8-6.3-3.6c-0.4-0.4-1.1-0.4-1.6,0l-6.4,6.4c-2,2.2-5.4,2.2-7.6,0.2c-0.5-0.5-1-1.3-0.4-1.9l14.8-14.8
		c3.5-3.5,8.2-5.4,13.1-5.4l0,0c10.2,0,18.5,8.3,18.5,18.5C-196.6-1679.9-198.5-1675.2-202-1671.7L-202-1671.7z"/>
</g>
</svg>
