<svg xmlns="http://www.w3.org/2000/svg" xmlns:xlink="http://www.w3.org/1999/xlink" width="168" height="168" viewBox="0 0 168 168">
  <defs>
    <filter id="Elipse_7" x="0" y="0" width="168" height="168" filterUnits="userSpaceOnUse">
      <feOffset dy="3" input="SourceAlpha"/>
      <feGaussianBlur stdDeviation="3" result="blur"/>
      <feFlood flood-opacity="0.161"/>
      <feComposite operator="in" in2="blur"/>
      <feComposite in="SourceGraphic"/>
    </filter>
  </defs>
  <g id="Grupo_1524" data-name="Grupo 1524" transform="translate(4636 17032)">
    <g id="Grupo_1523" data-name="Grupo 1523" transform="translate(-5128 -18361)">
      <g id="Grupo_56" data-name="Grupo 56" transform="translate(-73 403)">
        <g transform="matrix(1, 0, 0, 1, 565, 926)" filter="url(#Elipse_7)">
          <circle id="Elipse_7-2" data-name="Elipse 7" cx="75" cy="75" r="75" transform="translate(9 6)" fill="#d6fffa"/>
        </g>
      </g>
    </g>
    <g id="noun_Dentist_1780915" transform="translate(-4606.021 -17005)">
      <path id="Trazado_291" data-name="Trazado 291" d="M41.113,72.624a7.885,7.885,0,0,1,.724,1.36c0,.044,0,.089,0,.134l-.005.144A28.977,28.977,0,0,0,42.361,81c.248,1.17,1.553,4.86,3.345,5.766.013.006.027.005.04.011s.022.019.036.024a2.52,2.52,0,0,0,.962.2,2.238,2.238,0,0,0,1.241-.376c2.187-1.436,2.446-7.014,2.473-8.707a.559.559,0,1,1,1.118.018c.027,1.675.286,7.253,2.473,8.69a2.238,2.238,0,0,0,1.241.376,2.53,2.53,0,0,0,.962-.2,1.144,1.144,0,0,0,.14-.071,5.921,5.921,0,0,0,2.277-2.6A13.213,13.213,0,0,0,59.9,79.981c.194-1.4.364-5.2.343-5.809a1.3,1.3,0,0,1,.2-.754l.124-.206a5.544,5.544,0,0,1,.338-.523A8.553,8.553,0,0,0,62.656,67.1a6.356,6.356,0,0,0-.933-3.393,6.5,6.5,0,0,0-6.085-2.729,9.26,9.26,0,0,0-2.748.695,4.174,4.174,0,0,1-3.5.034,8.309,8.309,0,0,0-5.006-.61,5.782,5.782,0,0,0-4.792,4.528A8.794,8.794,0,0,0,41.113,72.624Zm.629-6.609a3.6,3.6,0,0,1,3.068-2.776,6.1,6.1,0,0,1,3.708.474,6.4,6.4,0,0,0,5.233-.03,6.994,6.994,0,0,1,2.1-.529,4.344,4.344,0,0,1,4.02,1.72,4.273,4.273,0,0,1,.6,2.272,6.443,6.443,0,0,1-1.3,4.216,7.646,7.646,0,0,0-.476.727l-.113.188a3.494,3.494,0,0,0-.522,1.972c.015.426-.145,4.138-.324,5.435a11.085,11.085,0,0,1-1.018,3.48,3.8,3.8,0,0,1-1.359,1.644c-.06.018-.079.008-.1-.007-.829-.544-1.437-4-1.486-6.878a2.761,2.761,0,0,0-2.691-2.749c-.013,0-.025-.008-.038-.008l-.019,0-.019,0c-.014,0-.025.007-.038.008A2.757,2.757,0,0,0,48.269,77.9c-.049,2.891-.657,6.352-1.486,6.9-.022.015-.052.017-.114,0-.686-.39-1.867-2.834-2.167-4.247a27.153,27.153,0,0,1-.483-6.343,2.307,2.307,0,0,0-.2-1.148,9.662,9.662,0,0,0-.937-1.722A6.6,6.6,0,0,1,41.742,66.014Z" transform="translate(2.785 4.827)" fill="#019f86" stroke="#019f86" stroke-width="1"/>
      <path id="Trazado_292" data-name="Trazado 292" d="M96.507,10H11.116a1.1,1.1,0,0,0-1.095,1.095V21.508A1.1,1.1,0,0,0,11.116,22.6h3.769V52.487H11.116a1.1,1.1,0,0,0-1.095,1.095v6.64a1.1,1.1,0,0,0,1.095,1.095h3.769v35.17a1.1,1.1,0,0,0,1.095,1.095H91.643a1.1,1.1,0,0,0,1.095-1.095V61.316h3.769A1.1,1.1,0,0,0,97.6,60.221v-6.64a1.1,1.1,0,0,0-1.095-1.095H92.738V22.6h3.769A1.1,1.1,0,0,0,97.6,21.508V11.094A1.1,1.1,0,0,0,96.507,10ZM90.549,95.391H17.074V61.316H90.549Zm4.863-36.264h-83.2v-4.45h83.2Zm-65.988-6.64a5.512,5.512,0,0,1,10.943,0Zm37.832,0a5.512,5.512,0,0,1,10.943,0Zm23.293,0H80.424a7.728,7.728,0,0,0-15.392,0H42.591a7.728,7.728,0,0,0-15.392,0H17.074V22.6H90.549V52.487Zm4.863-32.074h-83.2V12.189h83.2Z" fill="#019f86" stroke="#019f86" stroke-width="1"/>
      <path id="Trazado_293" data-name="Trazado 293" d="M77.531,34.392l-3.177,3.176A1.095,1.095,0,1,0,75.9,39.116l3.177-3.176a1.095,1.095,0,0,0-1.548-1.548Z" transform="translate(6.066 2.281)" fill="#019f86" stroke="#019f86" stroke-width="1"/>
      <path id="Trazado_294" data-name="Trazado 294" d="M69.648,39.882a1.091,1.091,0,0,0,.774-.321l8.316-8.317A1.095,1.095,0,1,0,77.19,29.7l-8.316,8.317a1.095,1.095,0,0,0,.774,1.869Z" transform="translate(5.546 1.836)" fill="#019f86" stroke="#019f86" stroke-width="1"/>
    </g>
  </g>
</svg>
