<svg xmlns="http://www.w3.org/2000/svg" xmlns:xlink="http://www.w3.org/1999/xlink" width="168" height="168" viewBox="0 0 168 168">
  <defs>
    <filter id="Elipse_7" x="0" y="0" width="168" height="168" filterUnits="userSpaceOnUse">
      <feOffset dy="3" input="SourceAlpha"/>
      <feGaussianBlur stdDeviation="3" result="blur"/>
      <feFlood flood-opacity="0.161"/>
      <feComposite operator="in" in2="blur"/>
      <feComposite in="SourceGraphic"/>
    </filter>
  </defs>
  <g id="Grupo_1514" data-name="Grupo 1514" transform="translate(4465 18647)">
    <g id="Grupo_1513" data-name="Grupo 1513" transform="translate(-4957 -19573)">
      <g id="Grupo_219" data-name="Grupo 219">
        <g id="Grupo_56" data-name="Grupo 56" transform="translate(-73)">
          <g transform="matrix(1, 0, 0, 1, 565, 926)" filter="url(#Elipse_7)">
            <circle id="Elipse_7-2" data-name="Elipse 7" cx="75" cy="75" r="75" transform="translate(9 6)" fill="#d6fffa"/>
          </g>
        </g>
      </g>
    </g>
    <g id="noun_Glasses_392519" transform="translate(-4436.779 -18619.746)">
      <path id="Trazado_290" data-name="Trazado 290" d="M90.092,20.764a1.713,1.713,0,1,0-.887,3.309c.151.041,15.093,4.171,15.093,14.7V54.589a21.4,21.4,0,0,0-37.073,1.775,19.671,19.671,0,0,0-21.773-.217A21.411,21.411,0,0,0,8.482,54.591V38.777c0-10.5,14.943-14.662,15.094-14.7a1.713,1.713,0,0,0-.889-3.309c-.72.193-17.632,4.882-17.632,18.013v27.4a21.448,21.448,0,1,0,41.765-6.822,16.26,16.26,0,0,1,19.048.244,21.444,21.444,0,1,0,41.854,6.578v-27.4C107.723,25.646,90.812,20.957,90.092,20.764ZM26.506,84.2A18.023,18.023,0,1,1,42.692,58.309,19.857,19.857,0,0,0,39.618,62,1.714,1.714,0,0,0,42.5,63.858a16.44,16.44,0,0,1,1.5-1.961A17.952,17.952,0,0,1,26.506,84.2Zm59.765,0a17.978,17.978,0,0,1-17.576-21.94,16.223,16.223,0,0,1,1.554,2.19A1.713,1.713,0,1,0,73.2,62.71a19.618,19.618,0,0,0-3.249-4.13A18.013,18.013,0,1,1,86.27,84.2Z" fill="#019f86"/>
    </g>
  </g>
</svg>
