<svg xmlns="http://www.w3.org/2000/svg" xmlns:xlink="http://www.w3.org/1999/xlink" width="168" height="168" viewBox="0 0 168 168">
  <defs>
    <filter id="Elipse_7" x="0" y="0" width="168" height="168" filterUnits="userSpaceOnUse">
      <feOffset dy="3" input="SourceAlpha"/>
      <feGaussianBlur stdDeviation="3" result="blur"/>
      <feFlood flood-opacity="0.161"/>
      <feComposite operator="in" in2="blur"/>
      <feComposite in="SourceGraphic"/>
    </filter>
  </defs>
  <g id="Grupo_1518" data-name="Grupo 1518" transform="translate(-492 -1325)">
    <g id="Grupo_222" data-name="Grupo 222" transform="translate(0 -4)">
      <g id="Grupo_56" data-name="Grupo 56" transform="translate(-73 403)">
        <g transform="matrix(1, 0, 0, 1, 565, 926)" filter="url(#Elipse_7)">
          <circle id="Elipse_7-2" data-name="Elipse 7" cx="75" cy="75" r="75" transform="translate(9 6)" fill="#d6fffa"/>
        </g>
      </g>
    </g>
    <g id="noun_Ambulance_375677" transform="translate(517.582 1348.586)">
      <path id="Trazado_295" data-name="Trazado 295" d="M103.345,58.58,93.107,39.839c-.364-.786-3.009-6.015-8.787-6.015h-.932V31.985a7.549,7.549,0,1,0-15.1,0v1.839H18.247A11.842,11.842,0,0,0,6.418,45.652V79.318A11.841,11.841,0,0,0,18.247,91.143h.946a10.647,10.647,0,0,0,20.991,0h35.97a10.647,10.647,0,0,0,20.991,0H99.41a11.838,11.838,0,0,0,11.824-11.826V67.308C111.234,62.261,108.242,59,103.345,58.58ZM71.9,31.984a3.941,3.941,0,1,1,7.883,0v1.839H71.9ZM29.688,96.392a7.052,7.052,0,1,1,7.053-7.053A7.059,7.059,0,0,1,29.688,96.392Zm56.962,0A7.052,7.052,0,1,1,93.7,89.34,7.06,7.06,0,0,1,86.65,96.392Zm20.976-28.927h-70.5a1.8,1.8,0,0,0,0,3.608h70.5v8.243a8.226,8.226,0,0,1-8.217,8.218H97.145a10.648,10.648,0,0,0-20.991,0H40.184a10.648,10.648,0,0,0-20.991,0h-.946a8.229,8.229,0,0,1-8.222-8.218V45.652a8.23,8.23,0,0,1,8.222-8.22H84.32c3.723,0,5.449,3.778,5.517,3.931a1.542,1.542,0,0,0,.072.149L100.667,61.2a1.8,1.8,0,0,0,1.583.939c3.567,0,5.375,1.738,5.375,5.167v.156Zm-22.6-25.49a1.806,1.806,0,0,0-1.6-.962H68.875a1.8,1.8,0,0,0-1.8,1.8V60.336a1.8,1.8,0,0,0,1.8,1.8H92.681a.089.089,0,0,1,.025,0,1.8,1.8,0,0,0,1.447-2.881ZM70.678,58.533V44.621H82.347l7.343,13.911H70.678ZM44.468,49.6H38.931v-5.53a1.8,1.8,0,1,0-3.608,0V49.6H29.785a1.8,1.8,0,1,0,0,3.608h5.538v5.546a1.8,1.8,0,0,0,3.608,0V53.205h5.538a1.8,1.8,0,1,0,0-3.608ZM30.823,67.466H19.372a1.8,1.8,0,0,0,0,3.608h11.45a1.8,1.8,0,0,0,0-3.608ZM75.838,21.2a1.8,1.8,0,0,0,1.8-1.8V16.218a1.8,1.8,0,0,0-3.608,0V19.4A1.8,1.8,0,0,0,75.838,21.2Zm10.634,5.51a1.8,1.8,0,0,0,.887-.234l2.168-1.23a1.8,1.8,0,1,0-1.781-3.137l-2.168,1.23a1.8,1.8,0,0,0,.893,3.372Zm-24.32-1.466,2.168,1.23A1.8,1.8,0,0,0,66.1,23.336l-2.168-1.23a1.8,1.8,0,0,0-1.781,3.139Zm24.5,61.691a2.405,2.405,0,1,0,2.405,2.405A2.406,2.406,0,0,0,86.65,86.935Zm-56.961,0a2.405,2.405,0,1,0,2.405,2.405A2.406,2.406,0,0,0,29.689,86.935Z" transform="translate(0 0)" fill="#019f86"/>
    </g>
  </g>
</svg>
