<svg xmlns="http://www.w3.org/2000/svg" xmlns:xlink="http://www.w3.org/1999/xlink" width="112" height="112" viewBox="0 0 112 112">
  <defs>
    <filter id="Elipse_7" x="0" y="0" width="112" height="112" filterUnits="userSpaceOnUse">
      <feOffset dy="3" input="SourceAlpha"/>
      <feGaussianBlur stdDeviation="3" result="blur"/>
      <feFlood flood-opacity="0.161"/>
      <feComposite operator="in" in2="blur"/>
      <feComposite in="SourceGraphic"/>
    </filter>
  </defs>
  <g id="Grupo_1688" data-name="Grupo 1688" transform="translate(16269.5 -22281.07)">
    <g id="Grupo_257" data-name="Grupo 257" transform="translate(-16761.5 21355.07)">
      <g id="Grupo_56" data-name="Grupo 56" transform="translate(501 932)">
        <g transform="matrix(1, 0, 0, 1, -9, -6)" filter="url(#Elipse_7)">
          <circle id="Elipse_7-2" data-name="Elipse 7" cx="47" cy="47" r="47" transform="translate(9 6)" fill="#e1f0f9"/>
        </g>
      </g>
    </g>
    <g id="noun_Location_138333" transform="translate(-16000.4 21939.957)">
      <path id="Trazado_416" data-name="Trazado 416" d="M-197.795,421.3l-2.426-18.155,1.487-2.036,2.817,18.41,8.608,2.545L-193.569,400l-3.913-.594,1.487-2.121,4.069,1.018,7.825,27.148Zm2.661-29.863-17.216,25.451-17.216-25.451h.078a23.03,23.03,0,0,1-3.208-11.877c0-12.217,9.078-22.058,20.346-22.058S-192,367.341-192,379.558a23.03,23.03,0,0,1-3.208,11.877Zm.783-11.538c0-10.944-8.06-19.852-18-19.852s-18,8.908-18,19.852a21.174,21.174,0,0,0,2.817,10.69h-.078l15.26,22.906,15.26-22.906h-.078A21.174,21.174,0,0,0-194.352,379.9Zm-18,8.145c-4.3,0-7.825-3.818-7.825-8.484s3.521-8.484,7.825-8.484,7.825,3.818,7.825,8.484S-208.046,388.042-212.35,388.042Zm0-14.423a5.687,5.687,0,0,0-5.478,5.939,5.687,5.687,0,0,0,5.478,5.939,5.687,5.687,0,0,0,5.478-5.939A5.687,5.687,0,0,0-212.35,373.619ZM-228.627,397.2l1.409,2.036-3.913.679-6.26,22.058,8.608-2.545,2.191-19.258,2.035,2.884-2.426,18.155-13.616,4.072,7.825-27.148Zm7.121,10.1-1.8,12.132,10.956,3.394,10.956-3.394-1.8-12.132,1.643-2.375,2.191,16.459-12.99,3.9-12.99-3.9,2.191-16.543Z" transform="translate(0 0)" fill="#0083d6" fill-rule="evenodd"/>
    </g>
  </g>
</svg>
