<svg xmlns="http://www.w3.org/2000/svg" xmlns:xlink="http://www.w3.org/1999/xlink" width="112" height="112" viewBox="0 0 112 112">
  <defs>
    <filter id="Elipse_7" x="0" y="0" width="112" height="112" filterUnits="userSpaceOnUse">
      <feOffset dy="3" input="SourceAlpha"/>
      <feGaussianBlur stdDeviation="3" result="blur"/>
      <feFlood flood-opacity="0.161"/>
      <feComposite operator="in" in2="blur"/>
      <feComposite in="SourceGraphic"/>
    </filter>
  </defs>
  <g id="Grupo_1687" data-name="Grupo 1687" transform="translate(16275 -22080.707)">
    <g id="Grupo_257" data-name="Grupo 257" transform="translate(-16767 21154.707)">
      <g id="Grupo_56" data-name="Grupo 56" transform="translate(501 932)">
        <g transform="matrix(1, 0, 0, 1, -9, -6)" filter="url(#Elipse_7)">
          <circle id="Elipse_7-2" data-name="Elipse 7" cx="47" cy="47" r="47" transform="translate(9 6)" fill="#e1f0f9"/>
        </g>
      </g>
    </g>
    <path id="phone-call_4_" data-name="phone-call (4)" d="M37.83,12.043a13.8,13.8,0,0,1,10.9,10.9M37.83,1A24.846,24.846,0,0,1,59.778,22.92M57.017,44.95v8.282A5.521,5.521,0,0,1,51,58.754a54.634,54.634,0,0,1-23.825-8.475A53.834,53.834,0,0,1,10.61,33.714,54.634,54.634,0,0,1,2.134,9.779,5.521,5.521,0,0,1,7.628,3.761H15.91a5.521,5.521,0,0,1,5.521,4.748,35.447,35.447,0,0,0,1.932,7.758,5.521,5.521,0,0,1-1.242,5.825L18.616,25.6A44.171,44.171,0,0,0,35.18,42.162l3.506-3.506a5.521,5.521,0,0,1,5.825-1.242,35.448,35.448,0,0,0,7.758,1.932,5.521,5.521,0,0,1,4.748,5.6Z" transform="translate(-16252.111 22105.818)" fill="none" stroke="#0083d6" stroke-linecap="round" stroke-linejoin="round" stroke-width="3"/>
  </g>
</svg>
