<svg xmlns="http://www.w3.org/2000/svg" xmlns:xlink="http://www.w3.org/1999/xlink" width="168" height="168" viewBox="0 0 168 168">
  <defs>
    <filter id="Elipse_10" x="0" y="0" width="168" height="168" filterUnits="userSpaceOnUse">
      <feOffset dy="3" input="SourceAlpha"/>
      <feGaussianBlur stdDeviation="3" result="blur"/>
      <feFlood flood-opacity="0.161"/>
      <feComposite operator="in" in2="blur"/>
      <feComposite in="SourceGraphic"/>
    </filter>
  </defs>
  <g id="Grupo_221" data-name="Grupo 221" transform="translate(-1260 -926)">
    <g id="Grupo_58" data-name="Grupo 58" transform="translate(381)">
      <g transform="matrix(1, 0, 0, 1, 879, 926)" filter="url(#Elipse_10)">
        <circle id="Elipse_10-2" data-name="Elipse 10" cx="75" cy="75" r="75" transform="translate(9 6)" fill="#e1f0f9"/>
      </g>
    </g>
    <g id="noun_psychology_392525" transform="translate(1294.001 958.329)">
      <path id="Trazado_50" data-name="Trazado 50" d="M54.593,9.33A31.625,31.625,0,0,0,23,40.919v1.913L13.995,59.659a1.5,1.5,0,0,0,1.322,2.209H23V73.3a9.32,9.32,0,0,0,9.31,9.309h13.2v6.564a1.5,1.5,0,0,0,3,0V81.107a1.5,1.5,0,0,0-1.5-1.5h-14.7A6.317,6.317,0,0,1,26,73.3V60.368a1.5,1.5,0,0,0-1.5-1.5H17.821l8-14.952A1.492,1.492,0,0,0,26,43.209v-2.29a28.589,28.589,0,0,1,57.178,0,28.32,28.32,0,0,1-8.349,20.162,1.5,1.5,0,0,0-.641,1.229V89.09a1.5,1.5,0,0,0,3,0V62.959A31.282,31.282,0,0,0,86.18,40.918,31.621,31.621,0,0,0,54.593,9.33ZM55.943,22.5c-10.879-1-19.275,7.123-20.43,19.741a1.5,1.5,0,1,0,2.986.273c1.01-11.03,7.9-17.869,17.17-17.027a15.683,15.683,0,0,1,10.35,5.033,13.88,13.88,0,0,1,3.448,10.641A11.828,11.828,0,0,1,56.606,51.872a9.164,9.164,0,0,1-8.294-9.965,7.309,7.309,0,0,1,7.677-6.7c3.022.276,5.126,2.422,4.894,4.989a3.752,3.752,0,0,1-3.8,3.34,1.5,1.5,0,1,0-.194,2.994,6.754,6.754,0,0,0,6.984-6.061c.385-4.271-2.886-7.819-7.608-8.25a10.338,10.338,0,0,0-10.937,9.412A12.164,12.164,0,0,0,56.332,54.858q.693.064,1.379.064A14.831,14.831,0,0,0,72.454,41.435a16.847,16.847,0,0,0-4.2-12.911A18.649,18.649,0,0,0,55.943,22.5Z" fill="#0083d6"/>
    </g>
  </g>
</svg>
