<svg xmlns="http://www.w3.org/2000/svg" xmlns:xlink="http://www.w3.org/1999/xlink" width="168" height="168" viewBox="0 0 168 168">
  <defs>
    <filter id="Elipse_10" x="0" y="0" width="168" height="168" filterUnits="userSpaceOnUse">
      <feOffset dy="3" input="SourceAlpha"/>
      <feGaussianBlur stdDeviation="3" result="blur"/>
      <feFlood flood-opacity="0.161"/>
      <feComposite operator="in" in2="blur"/>
      <feComposite in="SourceGraphic"/>
    </filter>
  </defs>
  <g id="Grupo_220" data-name="Grupo 220" transform="translate(-876 -926)">
    <g id="Grupo_58" data-name="Grupo 58" transform="translate(-3)">
      <g transform="matrix(1, 0, 0, 1, 879, 926)" filter="url(#Elipse_10)">
        <circle id="Elipse_10-2" data-name="Elipse 10" cx="75" cy="75" r="75" transform="translate(9 6)" fill="#e1f0f9"/>
      </g>
    </g>
    <g id="noun_Tooth_383488" transform="translate(910 958.861)">
      <g id="Grupo_109" data-name="Grupo 109">
        <path id="Trazado_49" data-name="Trazado 49" d="M61.255,90.139c-3.453,0-4.033-5.264-4.912-13.23C55.5,69.225,54.337,58.7,50,58.7c-4.165,0-5.37,10.438-6.25,18.06-.93,8.056-1.544,13.376-5.01,13.376-7.249,0-10.171-13.9-13.264-28.616-.431-2.052-.862-4.1-1.3-6.106a24.032,24.032,0,0,0-3.141-7.174c-2.277-3.925-4.857-8.373-4.857-17.622A20.736,20.736,0,0,1,50,14.516,20.735,20.735,0,0,1,83.825,30.623c0,9.248-2.58,13.7-4.857,17.62a24.022,24.022,0,0,0-3.141,7.176c-.445,2.018-.879,4.084-1.314,6.15C71.422,76.262,68.5,90.139,61.255,90.139ZM36.934,12.861A17.78,17.78,0,0,0,19.175,30.62c0,8.441,2.264,12.343,4.452,16.116A26.753,26.753,0,0,1,27.1,54.771c.443,2.012.877,4.072,1.311,6.135,2.438,11.6,5.469,26.018,10.221,26.23,1-.907,1.684-6.8,2.137-10.719C41.893,66.708,43.163,55.7,50,55.7c7.025,0,8.247,11.091,9.325,20.877.425,3.854,1.063,9.641,2.041,10.557,4.748-.221,7.775-14.607,10.211-26.186.438-2.076.873-4.152,1.32-6.179a26.771,26.771,0,0,1,3.477-8.036c2.188-3.772,4.451-7.673,4.451-16.114A17.736,17.736,0,0,0,51.02,17.6a1.5,1.5,0,0,1-2.04,0A17.677,17.677,0,0,0,36.934,12.861Z" fill="#0083d6"/>
      </g>
    </g>
  </g>
</svg>
