<svg xmlns="http://www.w3.org/2000/svg" xmlns:xlink="http://www.w3.org/1999/xlink" width="168" height="168" viewBox="0 0 168 168">
  <defs>
    <filter id="Elipse_10" x="0" y="0" width="168" height="168" filterUnits="userSpaceOnUse">
      <feOffset dy="3" input="SourceAlpha"/>
      <feGaussianBlur stdDeviation="3" result="blur"/>
      <feFlood flood-opacity="0.161"/>
      <feComposite operator="in" in2="blur"/>
      <feComposite in="SourceGraphic"/>
    </filter>
  </defs>
  <g id="Grupo_223" data-name="Grupo 223" transform="translate(-876 -1329)">
    <g id="Grupo_58" data-name="Grupo 58" transform="translate(-3 403)">
      <g transform="matrix(1, 0, 0, 1, 879, 926)" filter="url(#Elipse_10)">
        <circle id="Elipse_10-2" data-name="Elipse 10" cx="75" cy="75" r="75" transform="translate(9 6)" fill="#e1f0f9"/>
      </g>
    </g>
    <g id="noun_Nurse_374997" transform="translate(905.186 1357.944)">
      <path id="Trazado_60" data-name="Trazado 60" d="M61.049,80.2a11.652,11.652,0,0,1-12.47,0,1.694,1.694,0,0,0-1.967,2.758,14.9,14.9,0,0,0,16.4,0A1.693,1.693,0,1,0,61.049,80.2Zm17.344-51.8,2.283-7.76a1.694,1.694,0,0,0-.592-1.82c-6.421-4.93-15.632-7.758-25.269-7.758s-18.85,2.828-25.271,7.758a1.693,1.693,0,0,0-.592,1.82l2.285,7.771A41.08,41.08,0,0,0,12.51,62.689c0,12.776,6.3,26.541,23.9,27.262,5.065,5.549,11.545,8.992,18.4,8.992s13.34-3.443,18.407-8.992c17.593-.726,23.894-14.486,23.894-27.262A41.094,41.094,0,0,0,78.393,28.394ZM54.816,95.558c-13.508,0-25.358-15.539-25.358-33.255,0-.175.011-.349.014-.525,10.438-1.154,19.705-5.882,25.34-13.014,5.64,7.136,14.911,11.862,25.354,13.016,0,.174.014.348.014.522C80.178,80.019,68.328,95.558,54.816,95.558Zm21.349-9.291a42.243,42.243,0,0,0,7.4-23.963c0-.095,0-.187-.007-.28.534.018,1.067.039,1.607.039a1.693,1.693,0,1,0,0-3.385c-12.27,0-23.359-5.261-28.939-13.73A11.321,11.321,0,0,1,54.441,40.6a1.693,1.693,0,0,0-3.35.486,15,15,0,0,0,1.681,4.74C47.02,53.772,36.3,58.679,24.461,58.679a1.693,1.693,0,1,0,0,3.385c.542,0,1.08-.023,1.619-.039,0,.093-.008.185-.008.28a42.242,42.242,0,0,0,7.406,23.974C17.246,83.829,15.9,67.828,15.9,62.689A37.669,37.669,0,0,1,32.234,31.8L34.089,38.1a1.692,1.692,0,1,0,3.248-.955l-4.8-16.328c5.792-4.064,13.836-6.378,22.282-6.378S71.3,16.755,77.095,20.817l-4.8,16.33a1.693,1.693,0,0,0,1.146,2.1,1.721,1.721,0,0,0,.478.069A1.692,1.692,0,0,0,75.539,38.1L77.39,31.81A37.652,37.652,0,0,1,93.732,62.69C93.732,67.825,92.374,83.8,76.165,86.267Zm-15.5-61.592H56.5V20.52a1.693,1.693,0,0,0-3.385,0v4.155H48.962a1.693,1.693,0,1,0,0,3.385h4.157v4.162a1.693,1.693,0,1,0,3.385,0V28.06h4.159a1.693,1.693,0,0,0,0-3.385Z" transform="translate(0)" fill="#0083d6"/>
    </g>
  </g>
</svg>
