<svg xmlns="http://www.w3.org/2000/svg" xmlns:xlink="http://www.w3.org/1999/xlink" width="260" height="260" viewBox="0 0 260 260">
  <defs>
    <filter id="Trazado_48" x="0" y="0" width="260" height="260" filterUnits="userSpaceOnUse">
      <feOffset dy="3" input="SourceAlpha"/>
      <feGaussianBlur stdDeviation="3" result="blur"/>
      <feFlood flood-opacity="0.161"/>
      <feComposite operator="in" in2="blur"/>
      <feComposite in="SourceGraphic"/>
    </filter>
  </defs>
  <g id="Grupo_216" data-name="Grupo 216" transform="translate(-593 -928)">
    <g id="Grupo_215" data-name="Grupo 215">
      <g transform="matrix(1, 0, 0, 1, 593, 928)" filter="url(#Trazado_48)">
        <path id="Trazado_48-2" data-name="Trazado 48" d="M121,0A121,121,0,1,1,0,121,121,121,0,0,1,121,0Z" transform="translate(9 6)" fill="#e1f0f9"/>
      </g>
    </g>
    <g id="noun_Doctor_402604" transform="translate(638.353 956.625)">
      <path id="Trazado_46" data-name="Trazado 46" d="M141.079,104.119,117.66,95.27a2.772,2.772,0,0,0-.871-2.107L107,83.951a2.732,2.732,0,0,0-.507-.375,47.494,47.494,0,0,0,9.477-17.63c6.142-.99,10.134-6.2,10.134-13.6a9.637,9.637,0,0,0-4.2-8.255,7.7,7.7,0,0,0-3.9-1.185c-.019-6.261-.041-13.116-.041-13.116,0-12.7-21.037-23.417-34.249-23.417-12.9,0-34.249,10.945-34.249,23.41l-.033,13.092a7.746,7.746,0,0,0-3.9,1.216,9.636,9.636,0,0,0-4.2,8.255c0,7.4,3.994,12.609,10.134,13.6a47.52,47.52,0,0,0,9.473,17.628,2.854,2.854,0,0,0-.511.377l-9.792,9.211a2.778,2.778,0,0,0-.871,2.107l-23.417,8.849c-5.86,2.211-15.693,7.815-15.693,20.467v41a2.785,2.785,0,0,0,2.785,2.785H153.985a2.785,2.785,0,0,0,2.785-2.785v-41C156.772,111.936,146.941,106.33,141.079,104.119ZM118.022,51.687c0-.793,0-1.924-.006-3.225a2.286,2.286,0,0,1,.876.319,4.184,4.184,0,0,1,1.636,3.565c0,2.772-.9,5.633-3.123,7.126A50.374,50.374,0,0,0,118.022,51.687ZM46.9,52.348a4.181,4.181,0,0,1,1.634-3.565,2.241,2.241,0,0,1,.882-.319l-.007,3.225a50.49,50.49,0,0,0,.616,7.793C47.795,57.992,46.9,55.122,46.9,52.348Zm64.7,43.576A33.24,33.24,0,0,1,98.632,110.43a16.036,16.036,0,0,0-7-8.138c4.5-2.514,10.184-6.469,14.041-11.939ZM55.033,29.79c0-8.1,17.615-17.847,28.679-17.847,12.329,0,28.679,10.173,28.679,17.856,0,0,.015,3.959.03,8.6a45.147,45.147,0,0,0-13.63-5.073c.019-.288.043-.574.043-.867a15.122,15.122,0,1,0-30.244,0c0,.286.028.564.043.847a45.432,45.432,0,0,0-13.621,5.03Zm38.232,2.672a9.552,9.552,0,1,1-9.551-9.553A9.564,9.564,0,0,1,93.265,32.462ZM54.977,51.694l.017-6.7a38.067,38.067,0,0,1,14.969-6.272,15.1,15.1,0,0,0,27.491.017,37.713,37.713,0,0,1,14.984,6.343c.007,2.742.015,5.186.015,6.606,0,20.207-13.43,37.933-28.742,37.933S54.977,71.9,54.977,51.694Zm6.77,38.663c3.856,5.466,9.544,9.423,14.041,11.937a16.053,16.053,0,0,0-7,8.138A33.212,33.212,0,0,1,55.827,95.925Zm-4.313,37.075a4.007,4.007,0,1,1-4,4.007A4.012,4.012,0,0,1,57.433,127.432ZM80.927,162.8H33.94v-30.9a2.785,2.785,0,0,0-5.57,0v30.9H16.223V124.586c0-8.836,6.577-13.175,12.091-15.257l23.534-8.892a38.065,38.065,0,0,0,2.8,4.452v17.433a9.577,9.577,0,1,0,5.57,0V111.015a39.178,39.178,0,0,0,9.195,6.072,2.786,2.786,0,0,0,3.96-2.178,10.4,10.4,0,0,1,7.555-8.727V162.8ZM69.786,91.124a25.885,25.885,0,0,0,27.849,0,49.214,49.214,0,0,1-13.918,8.847A49.2,49.2,0,0,1,69.786,91.124ZM151.2,162.8H139.057v-30.9a2.785,2.785,0,0,0-5.57,0v30.9H86.5V106.182a10.4,10.4,0,0,1,7.551,8.725,2.788,2.788,0,0,0,3.962,2.18,39.08,39.08,0,0,0,9.2-6.073v17.459a15.783,15.783,0,0,0-12.984,15.5v9.014a2.785,2.785,0,0,0,2.785,2.785h3.307a2.785,2.785,0,1,0,0-5.57h-.524v-6.229a10.2,10.2,0,0,1,20.4,0v6.229h-.518a2.785,2.785,0,1,0,0,5.57h3.3a2.784,2.784,0,0,0,2.785-2.785v-9.014a15.781,15.781,0,0,0-12.982-15.5V104.89a38.057,38.057,0,0,0,2.8-4.451l23.536,8.892c5.516,2.081,12.091,6.422,12.091,15.257V162.8ZM80.533,32.462a3.183,3.183,0,1,0,3.184-3.184A3.184,3.184,0,0,0,80.533,32.462ZM73.685,76.407a18.222,18.222,0,0,0,20.055,0,2.785,2.785,0,0,0-3.231-4.538,12.709,12.709,0,0,1-13.586,0,2.786,2.786,0,0,0-3.238,4.534Z" fill="#1575d4"/>
    </g>
  </g>
</svg>
