<svg xmlns="http://www.w3.org/2000/svg" xmlns:xlink="http://www.w3.org/1999/xlink" width="260" height="260" viewBox="0 0 260 260">
  <defs>
    <filter id="Elipse_8" x="0" y="0" width="260" height="260" filterUnits="userSpaceOnUse">
      <feOffset dy="3" input="SourceAlpha"/>
      <feGaussianBlur stdDeviation="3" result="blur"/>
      <feFlood flood-opacity="0.161"/>
      <feComposite operator="in" in2="blur"/>
      <feComposite in="SourceGraphic"/>
    </filter>
  </defs>
  <g id="Grupo_210" data-name="Grupo 210" transform="translate(-1069 -928)">
    <g transform="matrix(1, 0, 0, 1, 1069, 928)" filter="url(#Elipse_8)">
      <circle id="Elipse_8-2" data-name="Elipse 8" cx="121" cy="121" r="121" transform="translate(9 6)" fill="#eefbf4"/>
    </g>
    <g id="Grupo_179" data-name="Grupo 179" transform="translate(-41.827 1474)">
      <g id="noun_Hospital_374992" transform="translate(748.475 -711.94)">
        <path id="Trazado_45" data-name="Trazado 45" d="M162.792,56.105H123.373V15.686a2.734,2.734,0,0,0-2.733-2.733H51.185a2.733,2.733,0,0,0-2.733,2.733V56.105H9.035A2.733,2.733,0,0,0,6.3,58.838v86.37a2.73,2.73,0,0,0,2.733,2.733H162.792a2.73,2.73,0,0,0,2.733-2.733V58.838A2.733,2.733,0,0,0,162.792,56.105Zm-114.34,86.37H11.768v-80.9H48.454v80.9Zm34.728,0H73.089V122.068H83.18Zm15.562,0h-10.1V122.068h10.1Zm19.166,0h-13.7V119.336a2.734,2.734,0,0,0-2.733-2.733H70.356a2.733,2.733,0,0,0-2.733,2.733v23.139h-13.7V18.419h63.988Zm42.152,0H123.373v-80.9h36.688v80.9Zm-96.291-54.1H78.532a2.731,2.731,0,0,0,2.733-2.733V76.522a2.733,2.733,0,0,0-2.733-2.733H63.768a2.734,2.734,0,0,0-2.733,2.733v9.118A2.733,2.733,0,0,0,63.768,88.373ZM66.5,79.255h9.3v3.653H66.5ZM22.726,88.373H37.49a2.731,2.731,0,0,0,2.733-2.733V76.522A2.733,2.733,0,0,0,37.49,73.79H22.726a2.734,2.734,0,0,0-2.733,2.733v9.118A2.733,2.733,0,0,0,22.726,88.373Zm2.733-9.118h9.3v3.653h-9.3Zm-2.733,30.457H37.49a2.73,2.73,0,0,0,2.733-2.733V97.863a2.733,2.733,0,0,0-2.733-2.733H22.726a2.734,2.734,0,0,0-2.733,2.733v9.116A2.73,2.73,0,0,0,22.726,109.713Zm2.733-9.115h9.3v3.651h-9.3Zm-2.733,30.457H37.49a2.73,2.73,0,0,0,2.733-2.733v-9.116a2.733,2.733,0,0,0-2.733-2.733H22.726a2.734,2.734,0,0,0-2.733,2.733v9.116A2.731,2.731,0,0,0,22.726,131.055Zm2.733-9.116h9.3v3.651h-9.3ZM134.333,88.373H149.1a2.733,2.733,0,0,0,2.733-2.733V76.522A2.734,2.734,0,0,0,149.1,73.79H134.333a2.733,2.733,0,0,0-2.733,2.733v9.118A2.731,2.731,0,0,0,134.333,88.373Zm2.733-9.118h9.3v3.653h-9.3Zm-2.733,30.457H149.1a2.731,2.731,0,0,0,2.733-2.733V97.863a2.734,2.734,0,0,0-2.733-2.733H134.333a2.733,2.733,0,0,0-2.733,2.733v9.116A2.729,2.729,0,0,0,134.333,109.713Zm2.733-9.115h9.3v3.651h-9.3Zm-2.733,30.457H149.1a2.731,2.731,0,0,0,2.733-2.733v-9.116a2.734,2.734,0,0,0-2.733-2.733H134.333a2.733,2.733,0,0,0-2.733,2.733v9.116A2.73,2.73,0,0,0,134.333,131.055Zm2.733-9.116h9.3v3.651h-9.3ZM90.56,76.522v9.118a2.731,2.731,0,0,0,2.733,2.733h14.764a2.733,2.733,0,0,0,2.733-2.733V76.522a2.734,2.734,0,0,0-2.733-2.733H93.293A2.733,2.733,0,0,0,90.56,76.522Zm5.466,2.733h9.3v3.653h-9.3ZM63.768,109.716H78.532a2.733,2.733,0,0,0,2.733-2.733v-9.12a2.733,2.733,0,0,0-2.733-2.733H63.768a2.734,2.734,0,0,0-2.733,2.733v9.12A2.733,2.733,0,0,0,63.768,109.716ZM66.5,100.6h9.3v3.655H66.5Zm41.556-5.466H93.293a2.733,2.733,0,0,0-2.733,2.733v9.12a2.733,2.733,0,0,0,2.733,2.733h14.764a2.734,2.734,0,0,0,2.733-2.733v-9.12A2.733,2.733,0,0,0,108.057,95.132Zm-2.733,9.118h-9.3V100.6h9.3Z" transform="translate(406 211)" fill="#019f86"/>
        <g id="Elipse_17" data-name="Elipse 17" transform="translate(471.914 232.94)" fill="none" stroke="#019f86" stroke-width="4">
          <circle cx="20" cy="20" r="20" stroke="none"/>
          <circle cx="20" cy="20" r="18" fill="none"/>
        </g>
      </g>
      <text id="H" transform="translate(1229.888 -479)" fill="#019f86" stroke="#019f86" stroke-width="2" font-size="30" font-family="Quicksand-Bold, Quicksand" font-weight="700"><tspan x="0" y="30">H</tspan></text>
    </g>
  </g>
</svg>
