<svg xmlns="http://www.w3.org/2000/svg" width="47" height="47" viewBox="0 0 47 47">
  <g id="Grupo_1615" data-name="Grupo 1615" transform="translate(-308 -953)">
    <g id="Grupo_535" data-name="Grupo 535" transform="translate(-2 -95)">
      <g id="Grupo_332" data-name="Grupo 332">
        <g id="Grupo_260" data-name="Grupo 260" transform="translate(-714 1105)">
          <g id="Elipse_16" data-name="Elipse 16" transform="translate(1024 -57)" fill="none" stroke="#019f86" stroke-width="1.5">
            <circle cx="23.5" cy="23.5" r="23.5" stroke="none"/>
            <circle cx="23.5" cy="23.5" r="22.75" fill="none"/>
          </g>
        </g>
      </g>
    </g>
    <g id="Grupo_555" data-name="Grupo 555" transform="translate(637.809 -13181.133)">
      <g id="Grupo_179" data-name="Grupo 179" transform="translate(-322.3 14143.228)">
        <g id="noun_Hospital_374992" transform="translate(0 0)">
          <path id="Trazado_45" data-name="Trazado 45" d="M37.725,21.618H29.81V13.5a.549.549,0,0,0-.549-.549H15.314a.549.549,0,0,0-.549.549v8.116H6.851a.549.549,0,0,0-.549.549V39.51a.548.548,0,0,0,.549.549H37.725a.548.548,0,0,0,.549-.549V22.167A.549.549,0,0,0,37.725,21.618ZM14.766,38.961H7.4V22.715h7.367V38.961Zm6.973,0H19.713v-4.1h2.026Zm3.125,0H22.837v-4.1h2.027Zm3.848,0H25.961V34.315a.549.549,0,0,0-.549-.549H19.164a.549.549,0,0,0-.549.549v4.646H15.864V14.05H28.713Zm8.464,0H29.81V22.715h7.367V38.961ZM17.841,28.1h2.965a.548.548,0,0,0,.549-.549V25.718a.549.549,0,0,0-.549-.549H17.841a.549.549,0,0,0-.549.549v1.831A.549.549,0,0,0,17.841,28.1Zm.549-1.831h1.867V27H18.39ZM9.6,28.1h2.965a.548.548,0,0,0,.549-.549V25.718a.549.549,0,0,0-.549-.549H9.6a.549.549,0,0,0-.549.549v1.831A.549.549,0,0,0,9.6,28.1Zm.549-1.831h1.867V27H10.149ZM9.6,32.382h2.965a.548.548,0,0,0,.549-.549V30a.549.549,0,0,0-.549-.549H9.6A.549.549,0,0,0,9.051,30v1.831A.548.548,0,0,0,9.6,32.382Zm.549-1.83h1.867v.733H10.149ZM9.6,36.668h2.965a.548.548,0,0,0,.549-.549V34.289a.549.549,0,0,0-.549-.549H9.6a.549.549,0,0,0-.549.549v1.831A.548.548,0,0,0,9.6,36.668Zm.549-1.831h1.867v.733H10.149ZM32.011,28.1h2.965a.549.549,0,0,0,.549-.549V25.718a.549.549,0,0,0-.549-.549H32.011a.549.549,0,0,0-.549.549v1.831A.548.548,0,0,0,32.011,28.1Zm.549-1.831h1.867V27H32.56Zm-.549,6.116h2.965a.548.548,0,0,0,.549-.549V30a.549.549,0,0,0-.549-.549H32.011a.549.549,0,0,0-.549.549v1.831A.548.548,0,0,0,32.011,32.382Zm.549-1.83h1.867v.733H32.56Zm-.549,6.116h2.965a.548.548,0,0,0,.549-.549V34.289a.549.549,0,0,0-.549-.549H32.011a.549.549,0,0,0-.549.549v1.831A.548.548,0,0,0,32.011,36.668Zm.549-1.831h1.867v.733H32.56Zm-9.338-9.12v1.831a.548.548,0,0,0,.549.549h2.965a.549.549,0,0,0,.549-.549V25.718a.549.549,0,0,0-.549-.549H23.77A.549.549,0,0,0,23.221,25.718Zm1.1.549h1.867V27H24.319Zm-6.477,6.117h2.965a.549.549,0,0,0,.549-.549V30a.549.549,0,0,0-.549-.549H17.841a.549.549,0,0,0-.549.549v1.831A.549.549,0,0,0,17.841,32.383Zm.549-1.831h1.867v.734H18.39Zm8.344-1.1H23.77a.549.549,0,0,0-.549.549v1.831a.549.549,0,0,0,.549.549h2.965a.549.549,0,0,0,.549-.549V30A.549.549,0,0,0,26.734,29.455Zm-.549,1.831H24.319v-.734h1.867Z" transform="translate(-6.302 -12.953)" fill="#019f86"/>
        </g>
      </g>
      <g id="noun_Helipad_392505" transform="translate(-310.659 14145.575)">
        <path id="Trazado_120" data-name="Trazado 120" d="M12.678,7.758a4.1,4.1,0,1,0,4.1,4.1A4.1,4.1,0,0,0,12.678,7.758Zm0,7.9a3.8,3.8,0,1,1,3.8-3.8A3.805,3.805,0,0,1,12.678,15.657Zm2.16-6.247H13.387a.148.148,0,0,0-.148.148v1.424H12.117V9.558a.148.148,0,0,0-.148-.148H10.518a.148.148,0,0,0-.148.148v4.6a.148.148,0,0,0,.148.148h1.451a.148.148,0,0,0,.148-.148V12.73h1.121v1.424a.148.148,0,0,0,.148.148h1.451a.148.148,0,0,0,.148-.148v-4.6A.148.148,0,0,0,14.838,9.41Zm-.148,4.6H13.535V12.581a.148.148,0,0,0-.148-.148H11.969a.148.148,0,0,0-.148.148v1.424H10.666v-4.3H11.82v1.424a.148.148,0,0,0,.148.148h1.418a.148.148,0,0,0,.148-.148V9.707h1.154Z" transform="translate(-8.58 -7.758)" fill="#019f86" stroke="#019f86" stroke-width="0.5"/>
      </g>
    </g>
  </g>
</svg>
