<svg xmlns="http://www.w3.org/2000/svg" xmlns:xlink="http://www.w3.org/1999/xlink" width="112" height="112" viewBox="0 0 112 112">
  <defs>
    <filter id="Elipse_7" x="0" y="0" width="112" height="112" filterUnits="userSpaceOnUse">
      <feOffset dy="3" input="SourceAlpha"/>
      <feGaussianBlur stdDeviation="3" result="blur"/>
      <feFlood flood-opacity="0.161"/>
      <feComposite operator="in" in2="blur"/>
      <feComposite in="SourceGraphic"/>
    </filter>
  </defs>
  <g id="Grupo_1603" data-name="Grupo 1603" transform="translate(16353 8666.115)">
    <g id="Grupo_255" data-name="Grupo 255" transform="translate(-16845 -9592.115)">
      <g id="Grupo_56" data-name="Grupo 56" transform="translate(501 932)">
        <g transform="matrix(1, 0, 0, 1, -9, -6)" filter="url(#Elipse_7)">
          <circle id="Elipse_7-2" data-name="Elipse 7" cx="47" cy="47" r="47" transform="translate(9 6)" fill="#019f86"/>
        </g>
      </g>
    </g>
    <g id="noun_Medical_license_402593" data-name="noun_Medical license_402593" transform="translate(-16338.123 -8653.068)">
      <path id="Trazado_237" data-name="Trazado 237" d="M65.218,16.474H57.48L41.247,5.292a1.1,1.1,0,0,0-1.248,0L23.765,16.474H16.027a1.1,1.1,0,0,0-1.1,1.1V69.793a1.1,1.1,0,0,0,1.1,1.1H65.218a1.1,1.1,0,0,0,1.1-1.1V17.573A1.1,1.1,0,0,0,65.218,16.474Zm-24.6-8.943,12.982,8.943H27.641Zm23.5,61.163H17.126V18.672H64.119ZM20.8,65.018H60.444V22.347H20.8ZM23,24.545H58.246V62.82H23Zm27.218,27.07H31.03a1.1,1.1,0,1,0,0,2.2H50.216a1.1,1.1,0,0,0,0-2.2Zm-2.18,4.859H33.209a1.1,1.1,0,1,0,0,2.2H48.036a1.1,1.1,0,1,0,0-2.2ZM33.208,41.421h3.846v3.848a1.1,1.1,0,0,0,1.1,1.1h4.94a1.1,1.1,0,0,0,1.1-1.1V41.421h3.845a1.1,1.1,0,0,0,1.1-1.1V35.383a1.1,1.1,0,0,0-1.1-1.1H44.192V30.438a1.1,1.1,0,0,0-1.1-1.1h-4.94a1.1,1.1,0,0,0-1.1,1.1v3.846H33.208a1.1,1.1,0,0,0-1.1,1.1v4.939A1.1,1.1,0,0,0,33.208,41.421Zm1.1-4.939h3.846a1.1,1.1,0,0,0,1.1-1.1V31.537h2.742v3.846a1.1,1.1,0,0,0,1.1,1.1h3.845v2.741H43.093a1.1,1.1,0,0,0-1.1,1.1v3.848H39.251V40.322a1.1,1.1,0,0,0-1.1-1.1H34.307Z" transform="translate(0 0)" fill="#fff"/>
    </g>
  </g>
</svg>
