<svg xmlns="http://www.w3.org/2000/svg" width="47" height="47" viewBox="0 0 47 47">
  <g id="Grupo_570" data-name="Grupo 570" transform="translate(-308 -953)">
    <g id="Grupo_535" data-name="Grupo 535" transform="translate(-2 -95)">
      <g id="Grupo_332" data-name="Grupo 332">
        <g id="Grupo_260" data-name="Grupo 260" transform="translate(-714 1105)">
          <g id="Elipse_16" data-name="Elipse 16" transform="translate(1024 -57)" fill="none" stroke="#019f86" stroke-width="1.5">
            <circle cx="23.5" cy="23.5" r="23.5" stroke="none"/>
            <circle cx="23.5" cy="23.5" r="22.75" fill="none"/>
          </g>
        </g>
      </g>
    </g>
    <path id="Trazado_267" data-name="Trazado 267" d="M25.349,23a4.267,4.267,0,1,0,0,8.534,4.7,4.7,0,0,0,.711-.059A4.267,4.267,0,0,0,25.349,23Zm0,.853a3.414,3.414,0,1,1-3.414,3.414A3.407,3.407,0,0,1,25.349,23.853ZM14.254,25.56a3.84,3.84,0,1,0,3.84,3.84A3.847,3.847,0,0,0,14.254,25.56Zm22.189,0a3.84,3.84,0,1,0,3.84,3.84A3.847,3.847,0,0,0,36.444,25.56Zm-22.189.853A2.987,2.987,0,1,1,11.267,29.4,2.981,2.981,0,0,1,14.254,26.414Zm22.189,0A2.987,2.987,0,1,1,33.457,29.4,2.981,2.981,0,0,1,36.444,26.414Zm-11.095,5.6c-2.311.2-2.14.712-3.68,1.654-.438.268-3.11,2.566-3.454,2.88-1.151-.782-2.509-2.667-3.961-2.667-2.09,0-4.086,2.08-5.37,2.952A4.615,4.615,0,0,0,7,40.5v2.56a.443.443,0,0,0,.427.427h9.388v2.134a.443.443,0,0,0,.427.427H33.457a.443.443,0,0,0,.427-.427V43.483h9.388a.443.443,0,0,0,.427-.427V40.5c0-1.2-.916-2.071-2.094-3.24s-3.071-3.374-5.161-3.374c-1.422.178-2.806,2.206-3.96,2.667a7.664,7.664,0,0,0-1.173-.88C29.769,34.727,27.66,31.819,25.349,32.014Zm0,.942c2.168,0,4.13,2.582,5.521,3.432s2.16,1.946,2.16,2.827v5.974H17.668V39.215c0-.881.356-1.849,2.16-3.014S23.181,32.957,25.349,32.957ZM14.254,34.735c.889-.213,2.525,1.671,3.294,2.52a3.631,3.631,0,0,0-.733,1.96v3.414H7.853V40.5a3.812,3.812,0,0,1,1.458-3.022C10.437,36.709,12.325,34.735,14.254,34.735Zm22.189,0c2.24.391,2.2,1.422,4.556,3.136-.026-.018.051.041.125.091a3.409,3.409,0,0,1,1.72,2.534v2.134H33.883V39.215a3.631,3.631,0,0,0-.733-1.96C33.777,36.8,35.163,34.913,36.444,34.735Z" transform="translate(306.151 942.25)" fill="#019f86" stroke="#019f86" stroke-width="0.5"/>
  </g>
</svg>
