<svg xmlns="http://www.w3.org/2000/svg" width="47" height="47" viewBox="0 0 47 47">
  <g id="Grupo_499" data-name="Grupo 499" transform="translate(-310 -1048)">
    <g id="Grupo_440" data-name="Grupo 440">
      <g id="Grupo_260" data-name="Grupo 260" transform="translate(-714 1105)">
        <g id="Elipse_16" data-name="Elipse 16" transform="translate(1024 -57)" fill="none" stroke="#019f86" stroke-width="1.5">
          <circle cx="23.5" cy="23.5" r="23.5" stroke="none"/>
          <circle cx="23.5" cy="23.5" r="22.75" fill="none"/>
        </g>
      </g>
      <g id="noun_pictures_491032" transform="translate(318 1055)">
        <g id="Grupo_325" data-name="Grupo 325" transform="translate(0 3)">
          <path id="Trazado_201" data-name="Trazado 201" d="M25.409,3H7.569A3.761,3.761,0,0,0,3.784,6.784,3.761,3.761,0,0,0,0,10.569V26.247a3.761,3.761,0,0,0,3.784,3.784H22.706a3.761,3.761,0,0,0,3.784-3.784,3.761,3.761,0,0,0,3.784-3.784V7.866A4.845,4.845,0,0,0,25.409,3ZM3.784,7.866H22.706a2.677,2.677,0,0,1,2.7,2.7v14.11L21.571,20.84a2.448,2.448,0,0,0-3.406,0l-1.081,1.081L10.812,15.65a2.5,2.5,0,0,0-1.73-.7,2.6,2.6,0,0,0-1.73.7L1.081,21.976V10.569A2.677,2.677,0,0,1,3.784,7.866ZM22.706,28.95H3.784a2.677,2.677,0,0,1-2.7-2.7V23.489l7.082-7.082a1.409,1.409,0,0,1,1.892,0l8.38,8.38a.523.523,0,0,0,.757,0,.523.523,0,0,0,0-.757L17.84,22.678,18.922,21.6a1.306,1.306,0,0,1,1.892,0l4.649,4.649h0A2.758,2.758,0,0,1,22.706,28.95Zm6.487-6.487a2.677,2.677,0,0,1-2.7,2.7v-14.6a3.761,3.761,0,0,0-3.784-3.784H4.866a2.677,2.677,0,0,1,2.7-2.7h17.84a3.761,3.761,0,0,1,3.784,3.784Z" transform="translate(0 -3)" fill="#019f86"/>
          <path id="Trazado_202" data-name="Trazado 202" d="M34.849,24.3A2.649,2.649,0,1,0,32.2,21.649,2.653,2.653,0,0,0,34.849,24.3Zm0-4.217a1.568,1.568,0,1,1-1.568,1.568A1.569,1.569,0,0,1,34.849,20.081Z" transform="translate(-14.792 -10.35)" fill="#019f86"/>
        </g>
      </g>
    </g>
  </g>
</svg>
