<svg xmlns="http://www.w3.org/2000/svg" width="29" height="29" viewBox="0 0 29 29">
  <g id="Grupo_1595" data-name="Grupo 1595" transform="translate(16659.326 8963.5)">
    <g id="Grupo_807" data-name="Grupo 807" transform="translate(-17203 -9135)">
      <g id="Grupo_504" data-name="Grupo 504" transform="translate(-151.576 -76)">
        <g id="Grupo_502" data-name="Grupo 502" transform="translate(10.25 -170.5)">
          <g id="Elipse_23" data-name="Elipse 23" transform="translate(685 418)" fill="none" stroke="#019f86" stroke-width="1.5">
            <circle cx="14.5" cy="14.5" r="14.5" stroke="none"/>
            <circle cx="14.5" cy="14.5" r="13.75" fill="none"/>
          </g>
        </g>
      </g>
    </g>
    <g id="globe_2_" data-name="globe (2)" transform="translate(-16655.539 -8959.858)">
      <ellipse id="Elipse_125" data-name="Elipse 125" cx="8.713" cy="8.734" rx="8.713" ry="8.734" transform="translate(2 2)" fill="none" stroke="#019f86" stroke-linecap="round" stroke-linejoin="round" stroke-width="1.5"/>
      <line id="Línea_91" data-name="Línea 91" x2="17.427" transform="translate(2 11.294)" fill="none" stroke="#019f86" stroke-linecap="round" stroke-linejoin="round" stroke-width="1.5"/>
      <path id="Trazado_300" data-name="Trazado 300" d="M11.943,2a12.585,12.585,0,0,1,3.943,8.733,12.585,12.585,0,0,1-3.943,8.733A12.585,12.585,0,0,1,8,10.733,12.585,12.585,0,0,1,11.943,2Z" transform="translate(-1.118)" fill="none" stroke="#019f86" stroke-linecap="round" stroke-linejoin="round" stroke-width="1.5"/>
    </g>
  </g>
</svg>
