<svg xmlns="http://www.w3.org/2000/svg" width="47" height="47" viewBox="0 0 47 47">
  <g id="Grupo_1598" data-name="Grupo 1598" transform="translate(-304 -955.25)">
    <g id="Grupo_560" data-name="Grupo 560" transform="translate(-80)">
      <g id="Grupo_491" data-name="Grupo 491" transform="translate(74 -92.75)">
        <g id="Grupo_332" data-name="Grupo 332">
          <g id="Grupo_260" data-name="Grupo 260" transform="translate(-714 1105)">
            <g id="Elipse_16" data-name="Elipse 16" transform="translate(1024 -57)" fill="none" stroke="#019f86" stroke-width="1.5">
              <circle cx="23.5" cy="23.5" r="23.5" stroke="none"/>
              <circle cx="23.5" cy="23.5" r="22.75" fill="none"/>
            </g>
          </g>
        </g>
      </g>
      <g id="Grupo_559" data-name="Grupo 559" transform="translate(390.995 964.959)">
        <rect id="Rectángulo_224" data-name="Rectángulo 224" width="4.509" height="1.002" transform="translate(19.983 25.551)" fill="#019f86"/>
        <path id="Trazado_238" data-name="Trazado 238" d="M32.412,19.972h-1.6V10.389a2.132,2.132,0,0,0-2.13-2.13H18.037c-.023,0-.044.006-.067.007A5.045,5.045,0,0,0,9.519,5.379,5.05,5.05,0,0,0,1,9.05a9.386,9.386,0,0,0,4.018,7.63l1.256.922a8.111,8.111,0,0,0,3.244,1.306,4.074,4.074,0,0,0,2.244-.7L14.08,16.6a9.2,9.2,0,0,0,1.827-1.691V19a3.756,3.756,0,0,0-.824-.1,3.829,3.829,0,0,0-1.7.4L10,21,4.194,19.257V29.739l5.825-1.747.613.263a16.018,16.018,0,0,0,5.275,1.262v1.1a2.132,2.132,0,0,0,2.13,2.13H28.685a2.132,2.132,0,0,0,2.13-2.13V29.458a1.583,1.583,0,0,0,.65-2.564,1.573,1.573,0,0,0,0-2.13,1.548,1.548,0,0,0,.317-1.6h.63a1.6,1.6,0,0,0,0-3.194ZM21.231,9.324h3.194v1.065H21.231Zm-1.065,0v1.065a1.066,1.066,0,0,0,1.065,1.065h3.194a1.066,1.066,0,0,0,1.065-1.065V9.324h3.194a1.066,1.066,0,0,1,1.065,1.065v2.13H16.972v-2.13a1.066,1.066,0,0,1,1.065-1.065ZM12.8,16.1l-1.68,1.148A4.289,4.289,0,0,1,6.84,16.57l-1.277-.844c-2.117-1.86-3.5-4.012-3.5-6.676a3.985,3.985,0,0,1,6.8-2.818l.651.651.651-.651a3.983,3.983,0,0,1,6.772,2.34,2.124,2.124,0,0,0-1.033,1.817v1.065H13.115L11.723,6.582l-2.73,7.1-.975-2.6a1.07,1.07,0,0,0-1-.691H6.226a1.6,1.6,0,1,0,0,1.065H7.02L8.98,16.68l2.593-6.743.517,1.809a1.069,1.069,0,0,0,1.024.773h2.793v.527A11.765,11.765,0,0,1,12.8,16.1ZM5.259,10.921a.532.532,0,1,1-.532-.532A.533.533,0,0,1,5.259,10.921Zm11.713,2.662H29.75V22.1h-.532a1.59,1.59,0,0,0-1.182,2.662,1.573,1.573,0,0,0,0,2.13,1.582,1.582,0,0,0-.317.532H16.972V24.934A2.03,2.03,0,0,0,19.721,22a1.05,1.05,0,0,0,.446.1h1.065v1.065A1.066,1.066,0,0,0,22.3,24.231h2.13a1.066,1.066,0,0,0,1.065-1.065V22.1h1.065a1.066,1.066,0,0,0,1.065-1.065v-2.13a1.066,1.066,0,0,0-1.065-1.065H25.491V16.778a1.066,1.066,0,0,0-1.065-1.065H22.3a1.066,1.066,0,0,0-1.065,1.065v1.065H20.167A1.066,1.066,0,0,0,19.1,18.907v2.13a1.056,1.056,0,0,0,.076.388l-1.4-1.4a3.793,3.793,0,0,0-.8-.607V13.583ZM30.815,25.829a.533.533,0,0,1-.532.532H29.218a.532.532,0,1,1,0-1.065h1.065A.533.533,0,0,1,30.815,25.829Zm-4.259-6.921v2.13h-2.13v2.13H22.3v-2.13h-2.13v-2.13H22.3v-2.13h2.13v2.13Zm-21.3,1.78,4.259,1.278V27.03L5.259,28.308Zm5.792,6.588-.468-.2V21.9l3.273-1.637a2.811,2.811,0,0,1,3.166.514l1.794,1.794a.973.973,0,0,1-1.376,1.377L16.063,22.57a1.588,1.588,0,0,0-1.129-.468H13.778v1.065h1.156a.534.534,0,0,1,.376.156l.6.6v4.531A14.981,14.981,0,0,1,11.051,27.276Zm17.634,4.409H18.037a1.066,1.066,0,0,1-1.065-1.065v-2.13H27.718a1.6,1.6,0,0,0,1.5,1.065h.532V30.62A1.066,1.066,0,0,1,28.685,31.685Zm1.6-3.194H29.218a.532.532,0,1,1,0-1.065h1.065a.532.532,0,0,1,0,1.065Zm.532-4.792a.533.533,0,0,1-.532.532H29.218a.532.532,0,1,1,0-1.065h1.065A.533.533,0,0,1,30.815,23.7Zm1.6-1.6h-1.6V21.037h1.6a.532.532,0,0,1,0,1.065Z" transform="translate(-1 -4)" fill="#019f86"/>
      </g>
    </g>
  </g>
</svg>
