<svg xmlns="http://www.w3.org/2000/svg" width="47" height="47" viewBox="0 0 47 47">
  <g id="Grupo_572" data-name="Grupo 572" transform="translate(-308 -1210.754)">
    <g id="Grupo_536" data-name="Grupo 536" transform="translate(-2 -297)">
      <g id="Grupo_330" data-name="Grupo 330">
        <g id="Grupo_262" data-name="Grupo 262" transform="translate(-714 1564.754)">
          <g id="Elipse_16" data-name="Elipse 16" transform="translate(1024 -57)" fill="none" stroke="#434343" stroke-width="1.5">
            <circle cx="23.5" cy="23.5" r="23.5" stroke="none"/>
            <circle cx="23.5" cy="23.5" r="22.75" fill="none"/>
          </g>
        </g>
      </g>
    </g>
    <g id="noun_Health_Care_404969" data-name="noun_Health Care_404969" transform="translate(310.554 1212.393)">
      <path id="Trazado_269" data-name="Trazado 269" d="M23.44,14.652a5.415,5.415,0,0,0-4.059,1.825,5.425,5.425,0,0,0-9.483,3.6c0,6.649,8.937,9.644,9.317,9.768a.544.544,0,0,0,.337,0c.38-.124,9.317-3.119,9.317-9.769A5.436,5.436,0,0,0,23.44,14.652Zm-4.056,14.1c-1.2-.437-8.4-3.279-8.4-8.677a4.34,4.34,0,0,1,7.948-2.414.543.543,0,0,0,.451.24h0a.541.541,0,0,0,.45-.241,4.342,4.342,0,0,1,7.951,2.415C27.784,25.478,20.587,28.32,19.384,28.756ZM37.356,10.924v-.005l-.088-.021-.025-.006h0l-.923-.221a18.951,18.951,0,0,1-4.21-1.952A13.7,13.7,0,0,0,29.3,7.367c-2.045-.49-3-.284-8.284.86l-.146.031a2,2,0,0,0-1.7,2.114,1.852,1.852,0,0,0,1.94,1.655h4.641a1.874,1.874,0,0,0,.639,1.264l.031.026c1.23,1.058,3.449,2.87,4.489,3.118a11.82,11.82,0,0,0,2.177.194,14.232,14.232,0,0,1,2.722.259.542.542,0,0,0,.655-.4.543.543,0,0,0-.4-.654,15.276,15.276,0,0,0-2.939-.288,11.228,11.228,0,0,1-1.961-.165,17.059,17.059,0,0,1-4.033-2.886l-.032-.028a.817.817,0,0,1-.133-1.069c.24-.362.677-.42,1.2-.16,2.03,1.009,2.9,1.544,2.906,1.549a.543.543,0,0,0,.573-.922c-.037-.023-.911-.563-3-1.6a1.907,1.907,0,0,0-2.587.532c-.031.047-.052.1-.078.145H21.122c-.6-.015-.843-.356-.872-.671a.933.933,0,0,1,.851-.952l.145-.031c5.2-1.125,6-1.3,7.8-.866a13.8,13.8,0,0,1,2.533,1.243,19.647,19.647,0,0,0,4.487,2.061l.839.2.083.019.113.028,0-.008a.536.536,0,1,0,.25-1.043ZM22.436,33.243H17.8a1.869,1.869,0,0,0-.638-1.262l-.028-.024c-1.23-1.059-3.45-2.873-4.493-3.121a11.843,11.843,0,0,0-2.177-.194,14.207,14.207,0,0,1-2.723-.259.543.543,0,1,0-.253,1.056,15.251,15.251,0,0,0,2.94.289,11.258,11.258,0,0,1,1.96.164,17.045,17.045,0,0,1,4.037,2.888l.029.025a.817.817,0,0,1,.133,1.069c-.24.362-.676.42-1.2.16-2.03-1.009-2.9-1.544-2.906-1.549a.543.543,0,0,0-.572.922c.036.023.91.563,3,1.6a2.421,2.421,0,0,0,1.079.277,1.8,1.8,0,0,0,1.508-.809c.031-.046.052-.1.078-.144h4.857c.6.015.843.357.873.671a.933.933,0,0,1-.851.952l-.146.032c-5.2,1.125-6,1.3-7.8.865A13.791,13.791,0,0,1,11.963,35.6a19.636,19.636,0,0,0-4.487-2.061l-.839-.2-.083-.019L6.444,33.3l0,.008a.537.537,0,1,0-.25,1.044v0l.075.018.035.009h0l.923.222a18.964,18.964,0,0,1,4.21,1.952A13.706,13.706,0,0,0,14.244,37.9a7.708,7.708,0,0,0,1.879.249,35.5,35.5,0,0,0,6.4-1.109l.146-.032a2,2,0,0,0,1.7-2.115A1.851,1.851,0,0,0,22.436,33.243Z" transform="translate(0 0)" fill="#434343"/>
    </g>
  </g>
</svg>
