<svg xmlns="http://www.w3.org/2000/svg" width="47" height="47" viewBox="0 0 47 47">
  <g id="Grupo_491" data-name="Grupo 491" transform="translate(-310 -1048)">
    <g id="Grupo_332" data-name="Grupo 332">
      <g id="Grupo_260" data-name="Grupo 260" transform="translate(-714 1105)">
        <g id="Elipse_16" data-name="Elipse 16" transform="translate(1024 -57)" fill="none" stroke="#0083d6" stroke-width="1.5">
          <circle cx="23.5" cy="23.5" r="23.5" stroke="none"/>
          <circle cx="23.5" cy="23.5" r="22.75" fill="none"/>
        </g>
      </g>
      <g id="noun_Doctor_392515" transform="translate(318.186 1055.43)">
        <path id="Trazado_47" data-name="Trazado 47" d="M25.729,29.843a5.2,5.2,0,0,1-5.646,0,.542.542,0,1,0-.629.882,6.272,6.272,0,0,0,6.9,0,.542.542,0,1,0-.629-.882ZM22.907,12.655a2.066,2.066,0,0,0-.749.139.541.541,0,1,0,.391,1.01,1,1,0,1,1-.633,1.037.542.542,0,1,0-1.077.114,2.08,2.08,0,1,0,2.069-2.3Zm13.976,6.837a2.426,2.426,0,0,0-1.7-.35v-5.4c0-4.087-7.144-8.239-12.279-8.239-4.619,0-12.279,3.991-12.279,8.239v5.4a2.427,2.427,0,0,0-1.7.35,3.1,3.1,0,0,0-1.338,2.663c0,2.615,1.458,4.421,3.671,4.624,1.686,6.163,6.4,10.861,11.642,10.861s9.957-4.7,11.642-10.861c2.214-.2,3.673-2.008,3.673-4.624A3.1,3.1,0,0,0,36.883,19.492ZM8.676,22.154a2.058,2.058,0,0,1,.839-1.75,1.346,1.346,0,0,1,1.112-.16v.815c-.014.283-.022.562-.022.848a18.483,18.483,0,0,0,.385,3.739C9.3,25.3,8.676,23.682,8.676,22.154Zm3.034-8.416c0-3.386,6.673-7.155,11.2-7.155s11.2,3.769,11.2,7.155v4.1a16.1,16.1,0,0,0-6.108-2.384,5.145,5.145,0,1,0-10.177-.007,16.214,16.214,0,0,0-6.107,2.365V13.739Zm15.257,1a4.061,4.061,0,1,1-4.061-4.06A4.066,4.066,0,0,1,26.968,14.735ZM22.906,36.556c-5.976,0-11.217-6.846-11.217-14.649,0-.277.008-.547.022-.821,0,0,0-.009,0-.013s0-.009,0-.014V19.144a14.8,14.8,0,0,1,6.37-2.642,5.136,5.136,0,0,0,9.648.007A14.688,14.688,0,0,1,34.1,19.175v1.884s0,.008,0,.012,0,.008,0,.012c.012.275.022.546.022.823C34.124,29.71,28.882,36.556,22.906,36.556ZM34.824,25.638a18.466,18.466,0,0,0,.384-3.731c0-.287-.009-.567-.022-.851v-.811a1.346,1.346,0,0,1,1.113.16,2.057,2.057,0,0,1,.839,1.75C37.138,23.68,36.51,25.29,34.824,25.638Z" transform="translate(-7.593 -5.5)" fill="#0083d6"/>
        <path id="Trazado_212" data-name="Trazado 212" d="M25.729,29.843a5.2,5.2,0,0,1-5.646,0,.542.542,0,1,0-.629.882,6.272,6.272,0,0,0,6.9,0,.542.542,0,1,0-.629-.882ZM22.907,12.655a2.066,2.066,0,0,0-.749.139.541.541,0,1,0,.391,1.01,1,1,0,1,1-.633,1.037.542.542,0,1,0-1.077.114,2.08,2.08,0,1,0,2.069-2.3Zm13.976,6.837a2.426,2.426,0,0,0-1.7-.35v-5.4c0-4.087-7.144-8.239-12.279-8.239-4.619,0-12.279,3.991-12.279,8.239v5.4a2.427,2.427,0,0,0-1.7.35,3.1,3.1,0,0,0-1.338,2.663c0,2.615,1.458,4.421,3.671,4.624,1.686,6.163,6.4,10.861,11.642,10.861s9.957-4.7,11.642-10.861c2.214-.2,3.673-2.008,3.673-4.624A3.1,3.1,0,0,0,36.883,19.492ZM8.676,22.154a2.058,2.058,0,0,1,.839-1.75,1.346,1.346,0,0,1,1.112-.16v.815c-.014.283-.022.562-.022.848a18.483,18.483,0,0,0,.385,3.739C9.3,25.3,8.676,23.682,8.676,22.154Zm3.034-8.416c0-3.386,6.673-7.155,11.2-7.155s11.2,3.769,11.2,7.155v4.1a16.1,16.1,0,0,0-6.108-2.384,5.145,5.145,0,1,0-10.177-.007,16.214,16.214,0,0,0-6.107,2.365V13.739Zm15.257,1a4.061,4.061,0,1,1-4.061-4.06A4.066,4.066,0,0,1,26.968,14.735ZM22.906,36.556c-5.976,0-11.217-6.846-11.217-14.649,0-.277.008-.547.022-.821,0,0,0-.009,0-.013s0-.009,0-.014V19.144a14.8,14.8,0,0,1,6.37-2.642,5.136,5.136,0,0,0,9.648.007A14.688,14.688,0,0,1,34.1,19.175v1.884s0,.008,0,.012,0,.008,0,.012c.012.275.022.546.022.823C34.124,29.71,28.882,36.556,22.906,36.556ZM34.824,25.638a18.466,18.466,0,0,0,.384-3.731c0-.287-.009-.567-.022-.851v-.811a1.346,1.346,0,0,1,1.113.16,2.057,2.057,0,0,1,.839,1.75C37.138,23.68,36.51,25.29,34.824,25.638Z" transform="translate(-7.593 -5.5)" fill="#0083d6"/>
      </g>
    </g>
  </g>
</svg>
