<svg xmlns="http://www.w3.org/2000/svg" width="47" height="47" viewBox="0 0 47 47">
  <g id="Grupo_492" data-name="Grupo 492" transform="translate(-310 -1237.54)">
    <g id="Grupo_331" data-name="Grupo 331">
      <g id="Grupo_261" data-name="Grupo 261" transform="translate(-714 1294.54)">
        <g id="Elipse_16" data-name="Elipse 16" transform="translate(1024 -57)" fill="none" stroke="#434343" stroke-width="1.5">
          <circle cx="23.5" cy="23.5" r="23.5" stroke="none"/>
          <circle cx="23.5" cy="23.5" r="22.75" fill="none"/>
        </g>
        <g id="noun_Medical_Book_392528" data-name="noun_Medical Book_392528" transform="translate(1061 44.662)">
          <path id="Trazado_213" data-name="Trazado 213" d="M39.327,33.377l-1.894-4.411-.277-1.78.684-.153a.546.546,0,0,0,.4-.709L31.749,7.169a.547.547,0,0,0-.638-.358L13.56,10.767l-.008,0a3.181,3.181,0,0,0-2.214,1.61,4.578,4.578,0,0,0-.519,3,.559.559,0,0,0,.015.066l5.508,19.315a4.57,4.57,0,0,0,1.394,2.651,3.24,3.24,0,0,0,2.193.89,3.17,3.17,0,0,0,.485-.038l18.529-4.133a.547.547,0,0,0,.384-.75ZM30.871,7.987,37.009,26.1,19.577,29.987,14.365,11.707ZM16.7,32.011,11.9,15.177a3.479,3.479,0,0,1,.388-2.248,2.242,2.242,0,0,1,1.02-.952l5.211,18.277a3.275,3.275,0,0,0-1.664,1.459C16.8,31.81,16.744,31.91,16.7,32.011Zm3.515,5.174a2.1,2.1,0,0,1-1.74-.588,3.665,3.665,0,0,1-.674-4.335,2.1,2.1,0,0,1,1.479-1.088l.019-.005.016,0,16.775-3.743.371,2.388-14.75,3.359a.547.547,0,0,0,.121,1.08.556.556,0,0,0,.122-.013L36.626,30.9l.394,2.539Zm.608-14.415,3.2-.722.94,2.86a.547.547,0,0,0,.519.376.556.556,0,0,0,.12-.013l3.932-.878a.546.546,0,0,0,.4-.7l-.909-2.767,2.813-.634a.547.547,0,0,0,.4-.709l-1.294-3.818A.547.547,0,0,0,30.3,15.4l-2.908.655-.99-2.977a.546.546,0,0,0-.639-.361l-3.929.886a.547.547,0,0,0-.4.706l.955,2.875-2.916.657a.547.547,0,0,0-.405.684l1.1,3.86A.546.546,0,0,0,20.819,22.771Zm2.4-4.649a.547.547,0,0,0,.4-.706l-.955-2.875,2.858-.645.99,2.977a.547.547,0,0,0,.639.361l2.911-.656.94,2.775-2.808.633a.547.547,0,0,0-.4.7l.909,2.766-2.86.639-.941-2.861a.546.546,0,0,0-.639-.363l-3.185.718-.8-2.806Z" transform="translate(-38 -101)" fill="#434343"/>
        </g>
      </g>
    </g>
  </g>
</svg>
