<svg id="Capa_1" data-name="Capa 1" xmlns="http://www.w3.org/2000/svg" viewBox="0 0 47 47"><defs><style>.cls-1,.cls-2{fill:none;}.cls-2{stroke:#0083d6;stroke-width:1.5px;}.cls-3{fill:#0083d6;}</style></defs><g id="Grupo_260" data-name="Grupo 260"><g id="Elipse_16" data-name="Elipse 16"><circle class="cls-1" cx="23.5" cy="23.5" r="23.5"/><circle class="cls-2" cx="23.5" cy="23.5" r="22.75"/></g></g><path id="Trazado_471" data-name="Trazado 471" class="cls-3" d="M41.05,25.51h0l-4.34-12A.61.61,0,0,0,36,13.2l-5.1,1.86a.61.61,0,0,0-.35.76l.12.32-1.36.31c-1.05-.49-5.48-2.4-7.94-1a5.92,5.92,0,0,0-.79.51,13.22,13.22,0,0,0-4-.14.59.59,0,0,0-.36-.74l-5.1-1.87a.61.61,0,0,0-.76.36L6,25.51a.62.62,0,0,0,.36.76l5.09,1.85a.61.61,0,0,0,.46,0,.6.6,0,0,0,.3-.33l.19-.53a70.53,70.53,0,0,0,9.81,6.3l.12.05a2.09,2.09,0,0,0,1,.24,2.18,2.18,0,0,0,.44,0A2.12,2.12,0,0,0,25.36,32l.63.4a2.07,2.07,0,0,0,3.2-1.87,2,2,0,0,0,.42-.05,2.12,2.12,0,0,0,1.66-2.28,2,2,0,0,0,1.52-.75L34.55,27l.3.79a.6.6,0,0,0,.76.35l5.09-1.85A.61.61,0,0,0,41.05,25.51Zm-1.32-.15-4,1.43L31.82,16l4-1.45ZM26.65,24.24a.62.62,0,0,0-.78.36.63.63,0,0,0,.14.64l0,0,3.62,2.31a.92.92,0,0,1-1,1.57l0,0-4-2.55a.59.59,0,0,0-.4-.16h0a.6.6,0,0,0-.61.6.6.6,0,0,0,.18.43.64.64,0,0,0,.19.13l3.56,2.28a.89.89,0,0,1-1,1.49l-3.92-2.51a.61.61,0,0,0-.41-.15h0a.6.6,0,0,0-.6.6.62.62,0,0,0,.37.56l1.6,1,.1.09a.92.92,0,1,1-1,1.57l0,0a.41.41,0,0,0-.19-.08,71.58,71.58,0,0,1-9.79-6.35l3.26-9A11.28,11.28,0,0,1,19.42,17a6.7,6.7,0,0,0-1.51,3.19v0a1.9,1.9,0,0,0,1.25,2.31,1.71,1.71,0,0,0,.6.08,2.62,2.62,0,0,0,2.36-2c.21-.48,1-.61,1.3-.64l8.26,5.29A.92.92,0,0,1,32,26.54a1,1,0,0,1-.56.4h0a.91.91,0,0,1-.7-.13l-4-2.55Zm-2.8-5.39-.1,0a.27.27,0,0,0-.12,0h-.05c-.08,0-2,0-2.55,1.37,0,0,0,0,0,0-.38,1-1,1.32-1.5,1.17a.7.7,0,0,1-.45-.88v0a.16.16,0,0,0,0-.07,5.67,5.67,0,0,1,2.72-3.87l.07,0c2.16-1.24,7,1.09,7.05,1.11l.06,0a.58.58,0,0,0,.18,0h.16l1.7-.39,3.12,8.59-.85.19a2.11,2.11,0,0,0-1-1.8L23.9,18.87l0,0ZM15.18,16,11.25,26.8l-4-1.45,3.94-10.82Z"/></svg>