<svg id="Capa_1" data-name="Capa 1" xmlns="http://www.w3.org/2000/svg" xmlns:xlink="http://www.w3.org/1999/xlink" viewBox="0 0 112 112"><defs><style>.cls-1{filter:url(#Elipse_7);}.cls-2{fill:#e1f0f9;}.cls-3{fill:#0083d6;}</style><filter id="Elipse_7" x="0" y="0" width="112" height="112" name="Elipse_7"><feOffset dy="3"/><feGaussianBlur result="blur" stdDeviation="3"/><feFlood flood-opacity="0.16"/><feComposite operator="in" in="blur"/><feComposite in="SourceGraphic"/></filter></defs><g id="Grupo_243" data-name="Grupo 243"><g id="Grupo_56" data-name="Grupo 56"><g class="cls-1"><circle id="Elipse_7-2" data-name="Elipse 7-2" class="cls-2" cx="56" cy="53" r="47"/></g></g></g><g id="Grupo_1948" data-name="Grupo 1948"><g id="Grupo_1947" data-name="Grupo 1947"><g id="Trazado_472" data-name="Trazado 472"><path class="cls-3" d="M66.31,80.83H45.69a5.61,5.61,0,0,1-5.61-5.61V30.78a5.61,5.61,0,0,1,5.61-5.61H66.31a5.61,5.61,0,0,1,5.61,5.61V75.22A5.61,5.61,0,0,1,66.31,80.83ZM45.69,26.17a4.6,4.6,0,0,0-4.61,4.61V75.22a4.6,4.6,0,0,0,4.61,4.61H66.31a4.6,4.6,0,0,0,4.61-4.61V30.78a4.6,4.6,0,0,0-4.61-4.61Z"/><path class="cls-3" d="M66.31,81.33H45.69a6.12,6.12,0,0,1-6.11-6.11V30.78a6.12,6.12,0,0,1,6.11-6.11H66.31a6.12,6.12,0,0,1,6.11,6.11V75.22A6.12,6.12,0,0,1,66.31,81.33Zm-20.62-1h0Zm0-53.66a4.12,4.12,0,0,0-4.11,4.11V75.22a4.12,4.12,0,0,0,4.11,4.11H66.31a4.12,4.12,0,0,0,4.11-4.11V30.78a4.12,4.12,0,0,0-4.11-4.11ZM71.42,75.23a5.14,5.14,0,0,1-.54,2.28A5.14,5.14,0,0,0,71.42,75.23Zm0-44.45V75.22h0Zm0,0Zm-5.1-5.1a5.12,5.12,0,0,1,5.1,5.1A5.12,5.12,0,0,0,66.32,25.67Zm0,0Z"/></g></g><g id="Línea_92" data-name="Línea 92"><rect class="cls-3" x="41.08" y="34.08" width="29.85" height="1"/></g><g id="Línea_93" data-name="Línea 93"><rect class="cls-3" x="41.08" y="72.44" width="29.85" height="1"/></g><g id="Trazado_473" data-name="Trazado 473"><path class="cls-3" d="M58.28,61.8H53.72a2.21,2.21,0,0,1-2.21-2.21V57.12H49a2.21,2.21,0,0,1-2.21-2.21V50.35A2.21,2.21,0,0,1,49,48.15h2.47V45.68a2.21,2.21,0,0,1,2.21-2.21h4.56a2.21,2.21,0,0,1,2.21,2.21v2.47H63a2.21,2.21,0,0,1,2.2,2.2v4.56A2.21,2.21,0,0,1,63,57.12H60.49v2.47A2.22,2.22,0,0,1,58.28,61.8ZM49,50.15a.21.21,0,0,0-.21.2v4.56a.21.21,0,0,0,.21.21h4.47v4.47a.21.21,0,0,0,.21.21h4.56a.22.22,0,0,0,.21-.21V55.12H63a.21.21,0,0,0,.21-.21V50.35a.2.2,0,0,0-.21-.2H58.49V45.68a.21.21,0,0,0-.21-.21H53.72a.21.21,0,0,0-.21.21v4.47Z"/></g></g></svg>