<svg id="Capa_1" data-name="Capa 1" xmlns="http://www.w3.org/2000/svg" viewBox="0 0 47 47"><defs><style>.cls-1,.cls-2{fill:none;}.cls-2{stroke:#0083d6;stroke-width:1.5px;}.cls-3{fill:#0083d6;}</style></defs><g id="Grupo_332" data-name="Grupo 332"><g id="Grupo_260" data-name="Grupo 260"><g id="Elipse_16" data-name="Elipse 16"><circle class="cls-1" cx="23.5" cy="23.5" r="23.5"/><circle class="cls-2" cx="23.5" cy="23.5" r="22.75"/></g></g></g><g id="Grupo_1948" data-name="Grupo 1948"><g id="Grupo_1947" data-name="Grupo 1947"><g id="Trazado_472" data-name="Trazado 472"><path class="cls-3" d="M29.21,38.9H17.79a3.11,3.11,0,0,1-3.1-3.11V11.21a3.11,3.11,0,0,1,3.1-3.11H29.21a3.11,3.11,0,0,1,3.1,3.11V35.79A3.11,3.11,0,0,1,29.21,38.9ZM17.79,8.66a2.56,2.56,0,0,0-2.55,2.55V35.79a2.56,2.56,0,0,0,2.55,2.55H29.21a2.56,2.56,0,0,0,2.55-2.55V11.21a2.56,2.56,0,0,0-2.55-2.55Z"/><path class="cls-3" d="M29.21,39.17H17.79a3.4,3.4,0,0,1-3.38-3.38V11.21a3.4,3.4,0,0,1,3.38-3.38H29.21a3.4,3.4,0,0,1,3.38,3.38V35.79A3.4,3.4,0,0,1,29.21,39.17Zm-11.42-.55h0Zm0-29.69a2.29,2.29,0,0,0-2.27,2.28V35.79a2.29,2.29,0,0,0,2.27,2.28H29.21a2.29,2.29,0,0,0,2.27-2.28V11.21A2.29,2.29,0,0,0,29.2,8.93ZM32,35.8a2.82,2.82,0,0,1-.3,1.26A2.82,2.82,0,0,0,32,35.8Zm0-24.59V35.79h0Zm0,0ZM29.21,8.38A2.83,2.83,0,0,1,32,11.2,2.83,2.83,0,0,0,29.21,8.38Zm0,0Z"/></g></g><g id="Línea_92" data-name="Línea 92"><rect class="cls-3" x="15.24" y="13.03" width="16.51" height="0.55"/></g><g id="Línea_93" data-name="Línea 93"><rect class="cls-3" x="15.24" y="34.25" width="16.51" height="0.55"/></g><g id="Trazado_473" data-name="Trazado 473"><path class="cls-3" d="M24.76,28.37H22.24A1.22,1.22,0,0,1,21,27.14V25.78H19.65a1.22,1.22,0,0,1-1.22-1.22V22a1.23,1.23,0,0,1,1.22-1.23H21V19.45a1.22,1.22,0,0,1,1.22-1.22h2.52A1.22,1.22,0,0,1,26,19.45v1.36h1.37A1.23,1.23,0,0,1,28.57,22v2.52a1.22,1.22,0,0,1-1.22,1.22H26v1.36A1.23,1.23,0,0,1,24.76,28.37Zm-5.11-6.45a.11.11,0,0,0-.11.12v2.52a.11.11,0,0,0,.11.11h2.47v2.47a.12.12,0,0,0,.12.12h2.52a.11.11,0,0,0,.11-.12V24.67h2.48a.11.11,0,0,0,.11-.11V22a.11.11,0,0,0-.11-.12H24.88V19.45a.13.13,0,0,0-.12-.12H22.24a.12.12,0,0,0-.12.12v2.47Z"/></g></g></svg>