<svg xmlns="http://www.w3.org/2000/svg" xmlns:xlink="http://www.w3.org/1999/xlink" width="112" height="112" viewBox="0 0 112 112">
  <defs>
    <filter id="Elipse_7" x="0" y="0" width="112" height="112" filterUnits="userSpaceOnUse">
      <feOffset dy="3" input="SourceAlpha"/>
      <feGaussianBlur stdDeviation="3" result="blur"/>
      <feFlood flood-opacity="0.161"/>
      <feComposite operator="in" in2="blur"/>
      <feComposite in="SourceGraphic"/>
    </filter>
  </defs>
  <g id="Grupo_1564" data-name="Grupo 1564" transform="translate(17476 12905.938)">
    <g id="Grupo_255" data-name="Grupo 255" transform="translate(-17968 -13831.938)">
      <g id="Grupo_56" data-name="Grupo 56" transform="translate(501 932)">
        <g transform="matrix(1, 0, 0, 1, -9, -6)" filter="url(#Elipse_7)">
          <circle id="Elipse_7-2" data-name="Elipse 7" cx="47" cy="47" r="47" transform="translate(9 6)" fill="#e1f0f9"/>
        </g>
      </g>
    </g>
    <g id="noun_Cup_1693439_1_" data-name="noun_Cup_1693439 (1)" transform="translate(-17454.678 -12886.438)">
      <g id="Grupo_326" data-name="Grupo 326" transform="translate(10.927 8)">
        <path id="Trazado_203" data-name="Trazado 203" d="M44.589,44.667H20.729a1.988,1.988,0,0,0-1.988,1.987v7.233H46.577V46.654A1.988,1.988,0,0,0,44.589,44.667Z" transform="translate(-8.916 1.435)" fill="none" stroke="#0083d6" stroke-linecap="round" stroke-linejoin="round" stroke-miterlimit="10" stroke-width="2"/>
        <path id="Trazado_204" data-name="Trazado 204" d="M35.763,39.988H27.015a3.339,3.339,0,0,0-3.34,3.338V45.87H39.1V43.327A3.339,3.339,0,0,0,35.763,39.988Z" transform="translate(-7.647 0.231)" fill="none" stroke="#0083d6" stroke-linecap="round" stroke-linejoin="round" stroke-miterlimit="10" stroke-width="2"/>
        <path id="Trazado_205" data-name="Trazado 205" d="M33.281,33.975V41.53H27.758V33.975c1.629,1.145,2.761,1.781,2.761,1.781S31.652,35.12,33.281,33.975Z" transform="translate(-6.596 -1.316)" fill="none" stroke="#0083d6" stroke-linecap="round" stroke-linejoin="round" stroke-miterlimit="10" stroke-width="2"/>
        <path id="Trazado_206" data-name="Trazado 206" d="M18.052,10.963A27.265,27.265,0,0,1,18.141,8H47.893a27.263,27.263,0,0,1,.089,2.963" transform="translate(-9.094 -8)" fill="none" stroke="#0083d6" stroke-linecap="round" stroke-linejoin="round" stroke-miterlimit="10" stroke-width="2"/>
        <path id="Trazado_207" data-name="Trazado 207" d="M21.12,31.316A14.755,14.755,0,0,1,18.143,23c0-1.068-.127-8.381-.089-12.641" transform="translate(-9.095 -7.394)" fill="none" stroke="#0083d6" stroke-linecap="round" stroke-linejoin="round" stroke-miterlimit="10" stroke-width="2"/>
        <path id="Trazado_208" data-name="Trazado 208" d="M32.151,35.745A38.108,38.108,0,0,0,41.237,27.1" transform="translate(-5.466 -3.086)" fill="none" stroke="#0083d6" stroke-linecap="round" stroke-linejoin="round" stroke-miterlimit="10" stroke-width="2"/>
        <path id="Trazado_209" data-name="Trazado 209" d="M20.491,27.026a37.822,37.822,0,0,0,9.137,8.737" transform="translate(-8.466 -3.104)" fill="none" stroke="#0083d6" stroke-linecap="round" stroke-linejoin="round" stroke-miterlimit="10" stroke-width="2"/>
        <path id="Trazado_210" data-name="Trazado 210" d="M22.952,31.316C15.839,27.589,10.927,19.6,10.927,10.357h8.959" transform="translate(-10.927 -7.394)" fill="none" stroke="#0083d6" stroke-linecap="round" stroke-linejoin="round" stroke-miterlimit="10" stroke-width="2"/>
        <path id="Trazado_211" data-name="Trazado 211" d="M51.568,10.357c0,9.322-4.988,17.347-12.191,21.048A14.834,14.834,0,0,0,42.406,23c0-1.068.127-8.381.089-12.641h9.073Z" transform="translate(-3.606 -7.394)" fill="none" stroke="#0083d6" stroke-linecap="round" stroke-linejoin="round" stroke-miterlimit="10" stroke-width="2"/>
      </g>
    </g>
  </g>
</svg>
