<svg xmlns="http://www.w3.org/2000/svg" width="47" height="47" viewBox="0 0 47 47">
  <g id="Grupo_494" data-name="Grupo 494" transform="translate(-310 -1762)">
    <g id="Grupo_329" data-name="Grupo 329">
      <g id="Grupo_283" data-name="Grupo 283" transform="translate(-714 1819)">
        <g id="Elipse_16" data-name="Elipse 16" transform="translate(1024 -57)" fill="none" stroke="#434343" stroke-width="1.5">
          <circle cx="23.5" cy="23.5" r="23.5" stroke="none"/>
          <circle cx="23.5" cy="23.5" r="22.75" fill="none"/>
        </g>
      </g>
      <g id="noun_hands_403275" transform="translate(311.919 1763.476)">
        <path id="Trazado_215" data-name="Trazado 215" d="M35.344,12.01a10.329,10.329,0,0,0-7.351-3.044h0a10.316,10.316,0,0,0-6.538,2.314A10.4,10.4,0,0,0,7.518,26.668a.58.58,0,0,0,.043.048L19.61,38.763a2.6,2.6,0,0,0,4.432-2.157,2.625,2.625,0,0,0,.311.02,2.605,2.605,0,0,0,2.606-2.6,2.528,2.528,0,0,0-.02-.31,2.6,2.6,0,0,0,.31.02h0a2.6,2.6,0,0,0,2.583-2.918,2.643,2.643,0,0,0,.313.02,2.593,2.593,0,0,0,1.845-.764h0l3.356-3.353a.566.566,0,0,0,.04-.045,10.4,10.4,0,0,0-.042-14.662ZM29.092,29.28l-5.955-5.955a.558.558,0,0,0-.79.79L28.3,30.07a1.494,1.494,0,0,1,0,2.108,1.479,1.479,0,0,1-1.052.436h0a1.48,1.48,0,0,1-1.054-.438h0L20.24,26.222a.558.558,0,0,0-.79.79L25.4,32.967A1.49,1.49,0,0,1,23.3,35.074L17.343,29.12a.558.558,0,0,0-.79.79l5.955,5.955A1.491,1.491,0,0,1,20.4,37.972l-12-12c-.013-.016-.027-.032-.041-.047a9.275,9.275,0,0,1,12.252-13.88l-7.373,7.372a1.7,1.7,0,0,0,.176,2.527,3.825,3.825,0,0,0,5.386-.109L21.62,19.01a6.761,6.761,0,0,0,3.111,1.695L31.2,27.172a1.49,1.49,0,1,1-2.108,2.108Zm5.462-3.354c-.014.014-.026.028-.039.043l-1.8,1.8a2.594,2.594,0,0,0-.721-1.389L26.33,20.724a4.549,4.549,0,0,0,2.409-1.32.558.558,0,1,0-.79-.789,3.2,3.2,0,0,1-2.777,1.036A5.8,5.8,0,0,1,22,17.836a.574.574,0,0,0-.79,0l-3.208,3.21a2.7,2.7,0,0,1-3.806.109c-.256-.257-.495-.629-.176-.948L21.431,12.8a9.216,9.216,0,0,1,6.561-2.718h0a9.28,9.28,0,0,1,6.56,15.843Z" transform="translate(0)" fill="#434343"/>
      </g>
    </g>
  </g>
</svg>
