<svg xmlns="http://www.w3.org/2000/svg" width="47" height="47" viewBox="0 0 47 47">
  <g id="Grupo_497" data-name="Grupo 497" transform="translate(-310 -1048)">
    <g id="Grupo_339" data-name="Grupo 339">
      <g id="Grupo_260" data-name="Grupo 260" transform="translate(-714 1105)">
        <g id="Elipse_16" data-name="Elipse 16" transform="translate(1024 -57)" fill="none" stroke="#0083d6" stroke-width="1.5">
          <circle cx="23.5" cy="23.5" r="23.5" stroke="none"/>
          <circle cx="23.5" cy="23.5" r="22.75" fill="none"/>
        </g>
      </g>
      <g id="noun_Cup_1693439_1_" data-name="noun_Cup_1693439 (1)" transform="translate(309.254 1048.137)">
        <g id="Grupo_326" data-name="Grupo 326" transform="translate(10.927 8)">
          <path id="Trazado_203" data-name="Trazado 203" d="M33.1,44.667H19.845a1.1,1.1,0,0,0-1.1,1.1v4.017H34.2V45.77A1.1,1.1,0,0,0,33.1,44.667Z" transform="translate(-13.284 -19.061)" fill="none" stroke="#0083d6" stroke-linecap="round" stroke-linejoin="round" stroke-miterlimit="10" stroke-width="1.5"/>
          <path id="Trazado_204" data-name="Trazado 204" d="M30.389,39.988H25.53a1.855,1.855,0,0,0-1.855,1.854v1.413h8.57V41.843A1.855,1.855,0,0,0,30.389,39.988Z" transform="translate(-14.772 -17.65)" fill="none" stroke="#0083d6" stroke-linecap="round" stroke-linejoin="round" stroke-miterlimit="10" stroke-width="1.5"/>
          <path id="Trazado_205" data-name="Trazado 205" d="M30.826,33.975v4.2H27.758v-4.2c.9.636,1.534.989,1.534.989S29.921,34.611,30.826,33.975Z" transform="translate(-16.004 -15.836)" fill="none" stroke="#0083d6" stroke-linecap="round" stroke-linejoin="round" stroke-miterlimit="10" stroke-width="1.5"/>
          <path id="Trazado_206" data-name="Trazado 206" d="M18.052,9.646A15.144,15.144,0,0,1,18.1,8H34.626a15.143,15.143,0,0,1,.049,1.646" transform="translate(-13.076 -8)" fill="none" stroke="#0083d6" stroke-linecap="round" stroke-linejoin="round" stroke-miterlimit="10" stroke-width="1.5"/>
          <path id="Trazado_207" data-name="Trazado 207" d="M19.754,22a8.2,8.2,0,0,1-1.654-4.62c0-.593-.071-4.655-.049-7.021" transform="translate(-13.075 -8.711)" fill="none" stroke="#0083d6" stroke-linecap="round" stroke-linejoin="round" stroke-miterlimit="10" stroke-width="1.5"/>
          <path id="Trazado_208" data-name="Trazado 208" d="M32.151,31.9A21.165,21.165,0,0,0,37.2,27.1" transform="translate(-17.329 -13.761)" fill="none" stroke="#0083d6" stroke-linecap="round" stroke-linejoin="round" stroke-miterlimit="10" stroke-width="1.5"/>
          <path id="Trazado_209" data-name="Trazado 209" d="M20.491,27.026a21.007,21.007,0,0,0,5.075,4.853" transform="translate(-13.812 -13.74)" fill="none" stroke="#0083d6" stroke-linecap="round" stroke-linejoin="round" stroke-miterlimit="10" stroke-width="1.5"/>
          <path id="Trazado_210" data-name="Trazado 210" d="M17.606,22a13.036,13.036,0,0,1-6.679-11.641H15.9" transform="translate(-10.927 -8.711)" fill="none" stroke="#0083d6" stroke-linecap="round" stroke-linejoin="round" stroke-miterlimit="10" stroke-width="1.5"/>
          <path id="Trazado_211" data-name="Trazado 211" d="M46.148,10.357a13.03,13.03,0,0,1-6.771,11.69,8.239,8.239,0,0,0,1.682-4.669c0-.593.071-4.655.049-7.021h5.039Z" transform="translate(-19.509 -8.711)" fill="none" stroke="#0083d6" stroke-linecap="round" stroke-linejoin="round" stroke-miterlimit="10" stroke-width="1.5"/>
        </g>
      </g>
    </g>
  </g>
</svg>
