<svg id="Capa_1" data-name="Capa 1" xmlns="http://www.w3.org/2000/svg" xmlns:xlink="http://www.w3.org/1999/xlink" viewBox="0 0 112 112"><defs><style>.cls-1{filter:url(#Elipse_7);}.cls-2{fill:#e1f0f9;}.cls-3{fill:#0083d6;}</style><filter id="Elipse_7" x="0" y="0" width="112" height="112" name="Elipse_7"><feOffset dy="3"/><feGaussianBlur result="blur" stdDeviation="3"/><feFlood flood-opacity="0.16"/><feComposite operator="in" in="blur"/><feComposite in="SourceGraphic"/></filter></defs><g id="Grupo_243" data-name="Grupo 243"><g id="Grupo_56" data-name="Grupo 56"><g class="cls-1"><circle id="Elipse_7-2" data-name="Elipse 7-2" class="cls-2" cx="56" cy="53" r="47"/></g></g></g><path id="Trazado_471" data-name="Trazado 471" class="cls-3" d="M91.59,60h0L82.78,35.71A1.22,1.22,0,0,0,81.24,35L70.9,38.78a1.23,1.23,0,0,0-.71,1.54l.24.64-2.75.62c-2.13-1-11.1-4.85-16.1-2a11.18,11.18,0,0,0-1.6,1,26.54,26.54,0,0,0-8.15-.27,1.24,1.24,0,0,0-.73-1.52L30.75,35a1.21,1.21,0,0,0-1.54.72L20.41,60a1.22,1.22,0,0,0,.73,1.53l10.32,3.75a1.2,1.2,0,0,0,.93,0,1.23,1.23,0,0,0,.62-.67l.38-1.06A146.16,146.16,0,0,0,53.28,76.25a1.06,1.06,0,0,0,.25.09,4.28,4.28,0,0,0,2,.5,4.41,4.41,0,0,0,.89-.09A4.28,4.28,0,0,0,59.76,73l1.28.82a4.22,4.22,0,0,0,6.5-3.8,4.93,4.93,0,0,0,.85-.1,4.29,4.29,0,0,0,3.36-4.62,4.43,4.43,0,0,0,.72-.09,4.23,4.23,0,0,0,2.36-1.44l3.58-.85.6,1.6a1.21,1.21,0,0,0,1.54.72L90.87,61.5A1.24,1.24,0,0,0,91.59,60Zm-2.69-.3-8.05,2.9-8-21.93,8.06-2.93ZM62.38,57.39a1.22,1.22,0,0,0-1.28,2l.08.06,7.32,4.69a1.87,1.87,0,0,1-2,3.19l-.07,0-8.1-5.18a1.22,1.22,0,0,0-.82-.32h0A1.23,1.23,0,0,0,56.33,63a1.25,1.25,0,0,0,.35.86,1.34,1.34,0,0,0,.4.27l7.21,4.61a1.81,1.81,0,0,1-2,3L54.4,66.72a1.26,1.26,0,0,0-.83-.32h0a1.22,1.22,0,0,0-.47,2.35l3.25,2.09a1.12,1.12,0,0,0,.2.17,1.87,1.87,0,1,1-1.95,3.18l-.09-.06a1.11,1.11,0,0,0-.39-.16A143.76,143.76,0,0,1,34.26,61.1l6.62-18.24a23.48,23.48,0,0,1,6.85-.22,13.69,13.69,0,0,0-3.06,6.46v.07a3.83,3.83,0,0,0,2.52,4.68,3.92,3.92,0,0,0,1.22.18,5.37,5.37,0,0,0,4.8-4c.42-1,2-1.22,2.63-1.28L72.58,59.46a1.88,1.88,0,0,1-.58,3.4h0a1.9,1.9,0,0,1-1.41-.27l-8.07-5.17ZM56.71,46.45a.76.76,0,0,0-.21-.08.69.69,0,0,0-.24,0h-.1c-.16,0-4,0-5.17,2.77l0,.08c-.77,2.06-2.08,2.67-3,2.38a1.44,1.44,0,0,1-.91-1.8l0,0a.5.5,0,0,0,0-.12,11.4,11.4,0,0,1,5.51-7.85.35.35,0,0,0,.14-.06c4.38-2.51,14.19,2.21,14.29,2.26a.28.28,0,0,0,.12,0,1.17,1.17,0,0,0,.36.08,1.13,1.13,0,0,0,.32,0l3.47-.77,6.32,17.41-1.72.38a4.26,4.26,0,0,0-2-3.64L56.81,46.49l-.1,0ZM39.13,40.61l-8,22-8.06-2.93,8-22Z"/></svg>