<svg xmlns="http://www.w3.org/2000/svg" width="47" height="47" viewBox="0 0 47 47">
  <g id="Grupo_498" data-name="Grupo 498" transform="translate(-310 -1048)">
    <g id="Grupo_435" data-name="Grupo 435">
      <g id="Grupo_260" data-name="Grupo 260" transform="translate(-714 1105)">
        <g id="Elipse_16" data-name="Elipse 16" transform="translate(1024 -57)" fill="none" stroke="#0083d6" stroke-width="1.5">
          <circle cx="23.5" cy="23.5" r="23.5" stroke="none"/>
          <circle cx="23.5" cy="23.5" r="22.75" fill="none"/>
        </g>
      </g>
      <g id="noun_medical_prescription_402599" data-name="noun_medical prescription_402599" transform="translate(304.487 1047.329)">
        <path id="Trazado_195" data-name="Trazado 195" d="M40.713,17.56,32.886,9.733a.541.541,0,0,0-.383-.158H21.041a3.889,3.889,0,0,0-3.886,3.884V34.882a3.889,3.889,0,0,0,3.886,3.884H36.985a3.89,3.89,0,0,0,3.887-3.884V17.943A.541.541,0,0,0,40.713,17.56Zm-7.668-6.137L39.023,17.4H35.849a2.806,2.806,0,0,1-2.8-2.8Zm6.744,23.457a2.805,2.805,0,0,1-2.8,2.8H21.041a2.8,2.8,0,0,1-2.8-2.8V13.459a2.805,2.805,0,0,1,2.8-2.8H31.962V14.6a3.89,3.89,0,0,0,3.887,3.884h3.94ZM25.411,19.9V17.829h2.072a.542.542,0,1,0,0-1.083H25.411V14.677a.542.542,0,1,0-1.083,0v2.068h-2.07a.542.542,0,1,0,0,1.083h2.07V19.9a.542.542,0,0,0,1.083,0ZM35.77,28.236H25.464a.542.542,0,1,0,0,1.083H35.77a.542.542,0,1,0,0-1.083ZM25.464,24.084a.542.542,0,1,0,0,1.083H35.77a.542.542,0,1,0,0-1.083ZM35.77,32.389H25.464a.542.542,0,0,0,0,1.083H35.77a.542.542,0,0,0,0-1.083ZM22.257,23.9a.722.722,0,1,0,.722.722A.722.722,0,0,0,22.257,23.9Zm0,4.153a.722.722,0,1,0,.722.722A.722.722,0,0,0,22.257,28.056Zm0,4.153a.722.722,0,1,0,.722.722A.722.722,0,0,0,22.257,32.209Z" transform="translate(0 0)" fill="#0083d6"/>
      </g>
    </g>
  </g>
</svg>
