<svg xmlns="http://www.w3.org/2000/svg" width="47" height="47" viewBox="0 0 47 47">
  <g id="Grupo_493" data-name="Grupo 493" transform="translate(-310 -1507.754)">
    <g id="Grupo_330" data-name="Grupo 330">
      <g id="Grupo_262" data-name="Grupo 262" transform="translate(-714 1564.754)">
        <g id="Elipse_16" data-name="Elipse 16" transform="translate(1024 -57)" fill="none" stroke="#434343" stroke-width="1.5">
          <circle cx="23.5" cy="23.5" r="23.5" stroke="none"/>
          <circle cx="23.5" cy="23.5" r="22.75" fill="none"/>
        </g>
      </g>
      <g id="noun_doctor_badge_403276" data-name="noun_doctor badge_403276" transform="translate(314.678 1507.188)">
        <path id="Trazado_214" data-name="Trazado 214" d="M29.565,23h-8.03a.488.488,0,1,0,0,.976h8.03a.488.488,0,1,0,0-.976Zm0,2.2h-8.03a.488.488,0,0,0,0,.976h8.03a.488.488,0,1,0,0-.976ZM17.594,23h-2.45v-2.45a.488.488,0,0,0-.488-.488H11.72a.488.488,0,0,0-.488.488V23H8.782a.488.488,0,0,0-.488.488v2.935a.488.488,0,0,0,.488.488h2.45V29.36a.488.488,0,0,0,.488.488h2.936a.488.488,0,0,0,.488-.488V26.908h2.45a.488.488,0,0,0,.488-.488V23.485A.487.487,0,0,0,17.594,23Zm-.488,2.935h-2.45a.488.488,0,0,0-.488.488v2.452h-1.96V26.421a.488.488,0,0,0-.488-.488H9.27V23.973h2.45a.488.488,0,0,0,.488-.488v-2.45h1.96v2.45a.488.488,0,0,0,.488.488h2.45ZM25.55,27.4H21.536a.488.488,0,1,0,0,.976H25.55a.488.488,0,1,0,0-.976ZM31.7,14.9H21.544V11.745a.488.488,0,0,0-.488-.488H17.291a.488.488,0,0,0-.488.488V14.9H6.644a2.335,2.335,0,0,0-2.332,2.332v16.9a2.335,2.335,0,0,0,2.332,2.332H31.7a2.335,2.335,0,0,0,2.332-2.332v-16.9A2.335,2.335,0,0,0,31.7,14.9ZM17.779,12.233h2.789v5.042H17.779Zm15.28,19.85H13.188a.488.488,0,0,0,0,.976H33.059v1.07A1.358,1.358,0,0,1,31.7,35.485H6.644a1.358,1.358,0,0,1-1.356-1.356v-1.07H9.94a.488.488,0,0,0,0-.976H5.288V17.228a1.358,1.358,0,0,1,1.356-1.356H16.8v1.4h-1.41a.488.488,0,0,0,0,.976h7.56a.488.488,0,1,0,0-.976h-1.41v-1.4H31.7a1.358,1.358,0,0,1,1.356,1.356V32.083Z" fill="#434343"/>
      </g>
    </g>
  </g>
</svg>
