<svg xmlns="http://www.w3.org/2000/svg" xmlns:xlink="http://www.w3.org/1999/xlink" width="168" height="168" viewBox="0 0 168 168">
  <defs>
    <filter id="Elipse_7" x="0" y="0" width="168" height="168" filterUnits="userSpaceOnUse">
      <feOffset dy="3" input="SourceAlpha"/>
      <feGaussianBlur stdDeviation="3" result="blur"/>
      <feFlood flood-opacity="0.161"/>
      <feComposite operator="in" in2="blur"/>
      <feComposite in="SourceGraphic"/>
    </filter>
  </defs>
  <g id="Grupo_219" data-name="Grupo 219" transform="translate(-492 -926)">
    <g id="Grupo_56" data-name="Grupo 56" transform="translate(-73)">
      <g transform="matrix(1, 0, 0, 1, 565, 926)" filter="url(#Elipse_7)">
        <circle id="Elipse_7-2" data-name="Elipse 7" cx="75" cy="75" r="75" transform="translate(9 6)" fill="#e1f0f9"/>
      </g>
    </g>
    <g id="noun_Doctor_392515" transform="translate(526 954.5)">
      <path id="Trazado_47" data-name="Trazado 47" d="M57.815,72.909a14.4,14.4,0,0,1-15.634,0,1.5,1.5,0,1,0-1.742,2.443,17.369,17.369,0,0,0,19.118,0,1.5,1.5,0,1,0-1.742-2.443ZM50,25.313a5.722,5.722,0,0,0-2.075.386,1.5,1.5,0,1,0,1.082,2.8,2.762,2.762,0,1,1-1.753,2.873,1.5,1.5,0,1,0-2.983.316A5.761,5.761,0,1,0,50,25.313ZM88.7,44.246a6.718,6.718,0,0,0-4.7-.968V28.314C84,17,64.219,5.5,50,5.5c-12.791,0-34,11.051-34,22.814V43.276a6.72,6.72,0,0,0-4.7.97,8.592,8.592,0,0,0-3.7,7.374c0,7.241,4.037,12.242,10.166,12.805C22.427,81.492,35.495,94.5,50,94.5s27.572-13.007,32.24-30.076c6.131-.561,10.171-5.561,10.171-12.805A8.591,8.591,0,0,0,88.7,44.246ZM10.593,51.619a5.7,5.7,0,0,1,2.323-4.847A3.728,3.728,0,0,1,16,46.328v2.257c-.038.783-.062,1.557-.062,2.348A51.182,51.182,0,0,0,17,61.286C12.322,60.325,10.593,55.848,10.593,51.619ZM19,28.314C19,18.937,37.475,8.5,50,8.5S81,18.937,81,28.314V39.675a44.6,44.6,0,0,0-16.914-6.6,14.246,14.246,0,1,0-28.181-.018A44.9,44.9,0,0,0,19,39.6V28.314Zm42.249,2.759A11.246,11.246,0,1,1,50,19.829,11.259,11.259,0,0,1,61.245,31.073ZM50,91.5c-16.548,0-31.063-18.957-31.063-40.567,0-.766.021-1.514.06-2.273,0-.013,0-.024,0-.037s0-.025,0-.038v-5.3a40.987,40.987,0,0,1,17.641-7.315,14.221,14.221,0,0,0,26.717.019A40.674,40.674,0,0,1,81,43.368v5.218c0,.012,0,.022,0,.033s0,.022,0,.034c.034.761.06,1.511.06,2.28C81.063,72.543,66.546,91.5,50,91.5ZM83,61.266a51.135,51.135,0,0,0,1.063-10.333c0-.794-.026-1.57-.061-2.357V46.329a3.728,3.728,0,0,1,3.082.444,5.7,5.7,0,0,1,2.324,4.847C89.408,55.844,87.67,60.3,83,61.266Z" fill="#0083d6"/>
    </g>
  </g>
</svg>
