<svg xmlns="http://www.w3.org/2000/svg" width="74" height="74" viewBox="0 0 74 74">
  <g id="Grupo_1230" data-name="Grupo 1230" transform="translate(-994 -517.04)">
    <g id="Grupo_197" data-name="Grupo 197" transform="translate(-548 363.04)">
      <g id="Grupo_1229" data-name="Grupo 1229">
        <g id="Grupo_186" data-name="Grupo 186" transform="translate(1542 154)">
          <g id="Grupo_177" data-name="Grupo 177">
            <g id="Elipse_16" data-name="Elipse 16" transform="translate(0 0)" fill="none" stroke="#d1d1d1" stroke-width="3">
              <circle cx="37" cy="37" r="37" stroke="none"/>
              <circle cx="37" cy="37" r="35.5" fill="none"/>
            </g>
          </g>
        </g>
      </g>
    </g>
    <g id="Grupo_512" data-name="Grupo 512" transform="translate(1327.774 -13611.828)">
      <g id="Grupo_179" data-name="Grupo 179" transform="translate(-322.3 14143.228)">
        <g id="noun_Hospital_374992" transform="translate(0 0)">
          <path id="Trazado_45" data-name="Trazado 45" d="M56.477,26.789H43.838V13.829a.877.877,0,0,0-.876-.876H20.693a.876.876,0,0,0-.876.876V26.789H7.178a.876.876,0,0,0-.876.876V55.357a.875.875,0,0,0,.876.876h49.3a.875.875,0,0,0,.876-.876V27.665A.876.876,0,0,0,56.477,26.789ZM19.816,54.481H8.054V28.541H19.817v25.94Zm11.135,0H27.716V47.938h3.235Zm4.99,0H32.7V47.938h3.237Zm6.145,0H37.693V47.062a.877.877,0,0,0-.876-.876H26.839a.876.876,0,0,0-.876.876v7.419H21.569V14.705H42.086Zm13.515,0H43.838V28.541H55.6v25.94ZM24.727,37.135h4.734a.876.876,0,0,0,.876-.876V33.335a.876.876,0,0,0-.876-.876H24.727a.877.877,0,0,0-.876.876v2.924A.876.876,0,0,0,24.727,37.135Zm.876-2.924h2.981v1.171H25.6ZM11.568,37.135H16.3a.876.876,0,0,0,.876-.876V33.335a.876.876,0,0,0-.876-.876H11.568a.877.877,0,0,0-.876.876v2.924A.876.876,0,0,0,11.568,37.135Zm.876-2.924h2.981v1.171H12.444Zm-.876,9.765H16.3a.875.875,0,0,0,.876-.876V40.178A.876.876,0,0,0,16.3,39.3H11.568a.877.877,0,0,0-.876.876V43.1A.875.875,0,0,0,11.568,43.977Zm.876-2.922h2.981v1.171H12.444Zm-.876,9.765H16.3a.875.875,0,0,0,.876-.876V47.021a.876.876,0,0,0-.876-.876H11.568a.877.877,0,0,0-.876.876v2.923A.876.876,0,0,0,11.568,50.82Zm.876-2.923h2.981v1.171H12.444ZM47.352,37.135h4.734a.876.876,0,0,0,.876-.876V33.335a.877.877,0,0,0-.876-.876H47.352a.876.876,0,0,0-.876.876v2.924A.876.876,0,0,0,47.352,37.135Zm.876-2.924H51.21v1.171H48.228Zm-.876,9.765h4.734a.876.876,0,0,0,.876-.876V40.178a.877.877,0,0,0-.876-.876H47.352a.876.876,0,0,0-.876.876V43.1A.875.875,0,0,0,47.352,43.977Zm.876-2.922H51.21v1.171H48.228Zm-.876,9.765h4.734a.876.876,0,0,0,.876-.876V47.021a.877.877,0,0,0-.876-.876H47.352a.876.876,0,0,0-.876.876v2.923A.875.875,0,0,0,47.352,50.82Zm.876-2.923H51.21v1.171H48.228ZM33.317,33.335v2.924a.876.876,0,0,0,.876.876h4.734a.876.876,0,0,0,.876-.876V33.335a.877.877,0,0,0-.876-.876H34.194A.876.876,0,0,0,33.317,33.335Zm1.752.876h2.981v1.171H35.07ZM24.727,43.978h4.734a.876.876,0,0,0,.876-.876V40.178a.876.876,0,0,0-.876-.876H24.727a.877.877,0,0,0-.876.876V43.1A.876.876,0,0,0,24.727,43.978Zm.876-2.924h2.981v1.172H25.6ZM38.927,39.3H34.194a.876.876,0,0,0-.876.876V43.1a.876.876,0,0,0,.876.876h4.734A.877.877,0,0,0,39.8,43.1V40.178A.876.876,0,0,0,38.927,39.3Zm-.876,2.924H35.07V41.054h2.981Z" transform="translate(-6.302 -12.953)" fill="#d1d1d1"/>
        </g>
      </g>
      <g id="noun_Helipad_392505" transform="translate(-303.713 14146.976)">
        <path id="Trazado_120" data-name="Trazado 120" d="M15.123,7.758A6.543,6.543,0,1,0,21.666,14.3,6.55,6.55,0,0,0,15.123,7.758Zm0,12.613A6.07,6.07,0,1,1,21.192,14.3,6.076,6.076,0,0,1,15.123,20.371ZM18.572,10.4H16.255a.237.237,0,0,0-.237.237v2.273h-1.79V10.633a.237.237,0,0,0-.237-.237H11.674a.237.237,0,0,0-.237.237V17.97a.237.237,0,0,0,.237.237h2.317a.237.237,0,0,0,.237-.237V15.7h1.79V17.97a.237.237,0,0,0,.237.237h2.317a.237.237,0,0,0,.237-.237V10.633A.237.237,0,0,0,18.572,10.4Zm-.237,7.337H16.492V15.46a.237.237,0,0,0-.237-.237H13.991a.237.237,0,0,0-.237.237v2.273H11.911V10.87h1.843v2.273a.237.237,0,0,0,.237.237h2.264a.237.237,0,0,0,.237-.237V10.87h1.843Z" transform="translate(-8.58 -7.758)" fill="#d1d1d1" stroke="#d1d1d1" stroke-width="1"/>
      </g>
    </g>
  </g>
</svg>
