<svg xmlns="http://www.w3.org/2000/svg" width="28.5" height="27.5" viewBox="0 0 28.5 27.5">
  <g id="Grupo_1869" data-name="Grupo 1869" transform="translate(-642.5 -507)">
    <g id="Grupo_1866" data-name="Grupo 1866" transform="translate(331 -630.75)">
      <g id="info" transform="translate(310.836 1136.5)">
        <ellipse id="Elipse_128" data-name="Elipse 128" cx="13" cy="12.5" rx="13" ry="12.5" transform="translate(1.914 2.5)" fill="none" stroke="#0083d6" stroke-linecap="round" stroke-linejoin="round" stroke-width="2.5"/>
      </g>
    </g>
    <g id="noun_Doctor_2556211" transform="translate(649.296 512.875)">
      <path id="Trazado_8" data-name="Trazado 8" d="M26.619,4a.619.619,0,1,0,.619.619A.619.619,0,0,0,26.619,4Z" transform="translate(-20.428 -4)" fill="#0083d6" stroke="#0083d6" stroke-width="1"/>
      <path id="Trazado_9" data-name="Trazado 9" d="M16.619,4a.619.619,0,1,0,.619.619A.619.619,0,0,0,16.619,4Z" transform="translate(-13.523 -4)" fill="#0083d6" stroke="#0083d6" stroke-width="1"/>
      <path id="Trazado_10" data-name="Trazado 10" d="M45.613,4a1.613,1.613,0,1,0,1.613,1.613A1.613,1.613,0,0,0,45.613,4Zm0,2.688a1.075,1.075,0,1,1,1.075-1.075A1.075,1.075,0,0,1,45.613,6.688Z" transform="translate(-32.855 -3.631)" fill="#0083d6"/>
      <path id="Trazado_11" data-name="Trazado 11" d="M8.619,10.882H8V5.31A.31.31,0,0,1,8.31,5h2.477v.619H8.619Z" transform="translate(-8 -4.69)" fill="#0083d6" stroke="#0083d6" stroke-width="1"/>
      <path id="Trazado_12" data-name="Trazado 12" d="M31.786,11.192h-.619V5.619H29V5h2.477a.31.31,0,0,1,.31.31Z" transform="translate(-22.499 -4.69)" fill="#0083d6" stroke="#0083d6" stroke-width="1"/>
      <path id="Trazado_13" data-name="Trazado 13" d="M30.349,15.38l.01,9.9a3.87,3.87,0,1,1-7.739,0V23.541L22,23.511v1.766a4.489,4.489,0,1,0,8.978,0l.01-9.965Z" transform="translate(-17.666 -11.81)" fill="#0083d6" stroke="#0083d6" stroke-width="1"/>
      <path id="Trazado_14" data-name="Trazado 14" d="M12.334,29.367h.619v-.31a.31.31,0,0,1,.31-.31,4.029,4.029,0,0,0,4.025-4.025v-.711l-.619.044v.668a3.409,3.409,0,0,1-3.405,3.405H12.025a3.409,3.409,0,0,1-3.405-3.405v-.977L8,23.7v1.021a4.029,4.029,0,0,0,4.025,4.025.31.31,0,0,1,.31.31Z" transform="translate(-8 -17.603)" fill="#0083d6" stroke="#0083d6" stroke-width="1"/>
    </g>
  </g>
</svg>
