<svg xmlns="http://www.w3.org/2000/svg" width="28.5" height="27.5" viewBox="0 0 28.5 27.5">
  <g id="Grupo_1870" data-name="Grupo 1870" transform="translate(-513.25 -741.75)">
    <g id="Grupo_1863" data-name="Grupo 1863" transform="translate(201.75 -396)">
      <g id="info" transform="translate(310.836 1136.5)">
        <ellipse id="Elipse_128" data-name="Elipse 128" cx="13" cy="12.5" rx="13" ry="12.5" transform="translate(1.914 2.5)" fill="none" stroke="#d65d00" stroke-linecap="round" stroke-linejoin="round" stroke-width="2.5"/>
      </g>
    </g>
    <g id="noun_Doctor_402604" transform="translate(508.825 739.346)">
      <path id="Trazado_46" data-name="Trazado 46" d="M24.9,17.052l-2.558-.967a.3.3,0,0,0-.1-.23l-1.07-1.006a.3.3,0,0,0-.055-.041,5.188,5.188,0,0,0,1.035-1.926A1.372,1.372,0,0,0,23.262,11.4a1.053,1.053,0,0,0-.459-.9.841.841,0,0,0-.426-.129c0-.684,0-1.433,0-1.433,0-1.387-2.3-2.558-3.741-2.558-1.409,0-3.741,1.2-3.741,2.557l0,1.43a.846.846,0,0,0-.426.133,1.053,1.053,0,0,0-.459.9,1.372,1.372,0,0,0,1.107,1.485,5.191,5.191,0,0,0,1.035,1.926.312.312,0,0,0-.056.041l-1.07,1.006a.3.3,0,0,0-.1.23l-2.558.967a2.393,2.393,0,0,0-1.714,2.236v4.479a.3.3,0,0,0,.3.3H26.308a.3.3,0,0,0,.3-.3V19.288A2.392,2.392,0,0,0,24.9,17.052ZM22.38,11.325c0-.087,0-.21,0-.352a.25.25,0,0,1,.1.035.457.457,0,0,1,.179.389.917.917,0,0,1-.341.778A5.5,5.5,0,0,0,22.38,11.325ZM14.61,11.4a.457.457,0,0,1,.178-.389.245.245,0,0,1,.1-.035v.352a5.515,5.515,0,0,0,.067.851A.916.916,0,0,1,14.61,11.4Zm7.067,4.76a3.631,3.631,0,0,1-1.416,1.585,1.752,1.752,0,0,0-.764-.889,4.677,4.677,0,0,0,1.534-1.3ZM15.5,8.933c0-.885,1.924-1.95,3.133-1.95,1.347,0,3.133,1.111,3.133,1.951,0,0,0,.432,0,.939a4.932,4.932,0,0,0-1.489-.554c0-.031,0-.063,0-.095a1.652,1.652,0,1,0-3.3,0c0,.031,0,.062,0,.092a4.963,4.963,0,0,0-1.488.549Zm4.176.292a1.043,1.043,0,1,1-1.043-1.044A1.045,1.045,0,0,1,19.675,9.225Zm-4.182,2.1,0-.732a4.158,4.158,0,0,1,1.635-.685,1.649,1.649,0,0,0,3,0,4.12,4.12,0,0,1,1.637.693c0,.3,0,.566,0,.722,0,2.207-1.467,4.144-3.14,4.144S15.493,13.532,15.493,11.325Zm.739,4.223a4.681,4.681,0,0,0,1.534,1.3,1.754,1.754,0,0,0-.764.889,3.628,3.628,0,0,1-1.416-1.585Zm-.471,4.05a.438.438,0,1,1-.437.438A.438.438,0,0,1,15.761,19.6Zm2.566,3.864H13.195V20.087a.3.3,0,1,0-.608,0v3.375H11.26V19.288a1.788,1.788,0,0,1,1.321-1.667l2.571-.971a4.158,4.158,0,0,0,.306.486v1.9a1.046,1.046,0,1,0,.608,0V17.805a4.28,4.28,0,0,0,1,.663.3.3,0,0,0,.433-.238,1.136,1.136,0,0,1,.825-.953v6.185Zm-1.217-7.83a2.828,2.828,0,0,0,3.042,0,5.376,5.376,0,0,1-1.52.966A5.375,5.375,0,0,1,17.111,15.633ZM26,23.463H24.677V20.087a.3.3,0,1,0-.608,0v3.375H18.936V17.277a1.135,1.135,0,0,1,.825.953.3.3,0,0,0,.433.238,4.269,4.269,0,0,0,1-.663v1.907a1.724,1.724,0,0,0-1.418,1.694v.985a.3.3,0,0,0,.3.3h.361a.3.3,0,1,0,0-.608h-.057v-.68a1.114,1.114,0,0,1,2.228,0v.68H22.56a.3.3,0,0,0,0,.608h.361a.3.3,0,0,0,.3-.3v-.985a1.724,1.724,0,0,0-1.418-1.694V17.136a4.157,4.157,0,0,0,.306-.486l2.571.971A1.788,1.788,0,0,1,26,19.288ZM18.285,9.225a.348.348,0,1,0,.348-.348A.348.348,0,0,0,18.285,9.225Zm-.748,4.8a1.991,1.991,0,0,0,2.191,0,.3.3,0,1,0-.353-.5,1.388,1.388,0,0,1-1.484,0,.3.3,0,0,0-.354.5Z" fill="#d65d00" stroke="#d65d00" stroke-width="0.2"/>
    </g>
  </g>
</svg>
