<svg id="noun_User_1768489" xmlns="http://www.w3.org/2000/svg" width="74" height="74" viewBox="0 0 74 74">
  <g id="Grupo_10" data-name="Grupo 10" transform="translate(0 0)">
    <path id="Trazado_7" data-name="Trazado 7" d="M38,1A36.979,36.979,0,0,0,13.333,65.548v.026l.536.463c.094.082.2.15.293.23q1,.842,2.052,1.614c.19.139.379.273.572.407q1.119.786,2.292,1.492c.131.079.265.153.4.228.859.5,1.736.97,2.636,1.4l.028.012a36.75,36.75,0,0,0,6.036,2.245c.039.011.077.023.116.032q1.482.4,3.012.683l.285.051c.984.173,1.98.31,2.989.4.116.011.231.017.345.026,1.016.085,2.04.139,3.077.139s2.061-.054,3.077-.139c.116-.009.231-.015.345-.026,1.01-.093,2.006-.231,2.989-.4l.285-.051q1.529-.28,3.012-.683l.116-.032a36.75,36.75,0,0,0,6.036-2.245l.028-.012c.9-.43,1.778-.9,2.636-1.4.133-.077.265-.15.4-.228.785-.469,1.548-.97,2.292-1.492.191-.134.382-.268.572-.407q1.054-.772,2.052-1.614c.1-.08.2-.148.293-.23l.536-.463v-.026A36.979,36.979,0,0,0,38,1Zm0,37A12.333,12.333,0,1,1,50.333,25.667,12.348,12.348,0,0,1,38,38Zm4.625,3.083A16.978,16.978,0,0,1,59.583,58.042v6.1c-.065.054-.133.1-.2.157q-.913.742-1.872,1.415c-.142.1-.281.2-.422.3-.689.47-1.4.911-2.117,1.329-.131.077-.264.153-.4.228-.755.424-1.525.822-2.309,1.186-.082.039-.165.076-.248.113a33.936,33.936,0,0,1-8.035,2.507l-.264.048q-1.311.224-2.644.347c-.122.011-.245.019-.368.028-.9.069-1.8.116-2.71.116s-1.811-.046-2.71-.119c-.122-.009-.245-.017-.368-.028q-1.332-.123-2.644-.347c-.088-.015-.176-.031-.264-.048a33.936,33.936,0,0,1-8.035-2.507c-.083-.039-.167-.074-.248-.113-.785-.364-1.554-.762-2.309-1.186l-.4-.228c-.72-.416-1.428-.859-2.117-1.329-.143-.1-.282-.2-.422-.3-.638-.45-1.263-.919-1.872-1.415-.065-.052-.133-.1-.2-.157v-6.1A16.978,16.978,0,0,1,33.375,41.083ZM62.667,61.242v-3.2a20.078,20.078,0,0,0-16-19.633,15.417,15.417,0,1,0-17.328,0,20.078,20.078,0,0,0-16,19.633v3.2a33.917,33.917,0,1,1,49.333,0Z" transform="translate(-1 -1)" fill="#e6c804"/>
  </g>
</svg>
