<svg xmlns="http://www.w3.org/2000/svg" width="27.107" height="26.843" viewBox="0 0 27.107 26.843">
  <g id="Grupo_2219" data-name="Grupo 2219" transform="translate(555.321 336.842)">
    <path id="Trazado_639" data-name="Trazado 639" d="M-535.1-315.243H-538a.341.341,0,0,0-.342.341v2.894a.343.343,0,0,0,.34.343h2.9a.342.342,0,0,0,.342-.342v-2.9A.341.341,0,0,0-535.1-315.243Zm-.341,2.9h-2.214v-2.211h2.214Z" transform="translate(-0.693 -0.99)" fill="#1b85d7"/>
    <path id="Trazado_640" data-name="Trazado 640" d="M-539.819-315.243h-2.9a.341.341,0,0,0-.342.341v2.894a.343.343,0,0,0,.34.343h2.9a.341.341,0,0,0,.341-.342v-2.9A.34.34,0,0,0-539.819-315.243Zm-.341,2.9h-2.214v-2.211h2.214Z" transform="translate(-0.5 -0.99)" fill="#1b85d7"/>
    <path id="Trazado_641" data-name="Trazado 641" d="M-544.539-315.243h-2.9a.341.341,0,0,0-.342.341v2.894a.342.342,0,0,0,.34.343h2.9a.341.341,0,0,0,.341-.342v-2.9A.34.34,0,0,0-544.539-315.243Zm-.341,2.9h-2.214v-2.211h2.214Z" transform="translate(-0.308 -0.99)" fill="#1b85d7"/>
    <path id="Trazado_642" data-name="Trazado 642" d="M-549.256-315.243h-2.9a.34.34,0,0,0-.341.341v2.894a.341.341,0,0,0,.339.343h2.9a.342.342,0,0,0,.341-.342v-2.9A.341.341,0,0,0-549.256-315.243Zm-.344,2.9h-2.214v-2.211h2.214Z" transform="translate(0 -0.99)" fill="#1b85d7"/>
    <path id="Trazado_643" data-name="Trazado 643" d="M-530.38-319.8h-2.9a.341.341,0,0,0-.341.341v2.894a.34.34,0,0,0,.341.341h2.9a.341.341,0,0,0,.342-.341v-2.894A.342.342,0,0,0-530.38-319.8Zm-.341,2.894h-2.214v-2.211h2.214Z" transform="translate(-1 -0.696)" fill="#1b85d7"/>
    <path id="Trazado_644" data-name="Trazado 644" d="M-539.819-319.8h-2.9a.342.342,0,0,0-.342.341v2.894a.341.341,0,0,0,.342.341h2.9a.34.34,0,0,0,.341-.341v-2.894A.341.341,0,0,0-539.819-319.8Zm-.341,2.894h-2.214v-2.211h2.214Z" transform="translate(-0.5 -0.696)" fill="#1b85d7"/>
    <path id="Trazado_645" data-name="Trazado 645" d="M-535.1-319.8H-538a.342.342,0,0,0-.342.341v2.894a.341.341,0,0,0,.342.341h2.9a.341.341,0,0,0,.342-.341v-2.894A.342.342,0,0,0-535.1-319.8Zm-.341,2.894h-2.214v-2.211h2.214Z" transform="translate(-0.693 -0.696)" fill="#1b85d7"/>
    <path id="Trazado_646" data-name="Trazado 646" d="M-544.539-319.8h-2.9a.342.342,0,0,0-.342.341v2.894a.341.341,0,0,0,.342.341h2.9a.34.34,0,0,0,.341-.341v-2.894A.341.341,0,0,0-544.539-319.8Zm-.341,2.894h-2.214v-2.211h2.214Z" transform="translate(-0.308 -0.696)" fill="#1b85d7"/>
    <path id="Trazado_647" data-name="Trazado 647" d="M-549.256-319.8h-2.9a.341.341,0,0,0-.341.341v2.894a.34.34,0,0,0,.341.341h2.9a.341.341,0,0,0,.341-.341v-2.894A.341.341,0,0,0-549.256-319.8Zm-.344,2.894h-2.214v-2.211h2.214Z" transform="translate(0 -0.696)" fill="#1b85d7"/>
    <path id="Trazado_648" data-name="Trazado 648" d="M-539.819-324.364h-2.9a.342.342,0,0,0-.342.341v2.894a.342.342,0,0,0,.342.341h2.9a.341.341,0,0,0,.341-.341v-2.894A.341.341,0,0,0-539.819-324.364Zm-.341,2.894h-2.214v-2.212h2.214Z" transform="translate(-0.5 -0.509)" fill="#1b85d7"/>
    <path id="Trazado_649" data-name="Trazado 649" d="M-535.1-324.364H-538a.342.342,0,0,0-.342.341v2.894a.342.342,0,0,0,.342.341h2.9a.342.342,0,0,0,.342-.341v-2.894A.342.342,0,0,0-535.1-324.364Zm-.341,2.894h-2.214v-2.212h2.214Z" transform="translate(-0.693 -0.509)" fill="#1b85d7"/>
    <path id="Trazado_650" data-name="Trazado 650" d="M-533.617-324.023v2.894a.341.341,0,0,0,.341.341h2.9a.342.342,0,0,0,.342-.341v-2.894a.342.342,0,0,0-.342-.341h-2.9A.341.341,0,0,0-533.617-324.023Zm.682.341h2.214v2.212h-2.214Z" transform="translate(-1 -0.509)" fill="#1b85d7"/>
    <path id="Trazado_651" data-name="Trazado 651" d="M-531.082-333.725h-2.105v-1.816a1.3,1.3,0,0,0-1.3-1.3,1.3,1.3,0,0,0-1.3,1.3v1.819h-11.956v-1.819a1.3,1.3,0,0,0-1.3-1.3,1.3,1.3,0,0,0-1.3,1.3v1.819h-2.105a2.868,2.868,0,0,0-2.868,2.865v17.569A3,3,0,0,0-552.453-310h21.37a3,3,0,0,0,2.869-3.289v-17.571A2.869,2.869,0,0,0-531.082-333.725Zm-4.049-1.814a.644.644,0,0,1,.643-.643.643.643,0,0,1,.642.643v3.807a.642.642,0,0,1-.642.642.643.643,0,0,1-.643-.642Zm-14.559,0a.644.644,0,0,1,.643-.643.643.643,0,0,1,.642.643v3.807a.642.642,0,0,1-.642.642.643.643,0,0,1-.643-.642Zm20.818,22.251a2.341,2.341,0,0,1-2.21,2.631h-21.37c-1.3,0-2.21-1.082-2.21-2.631v-13.425h25.791Zm0-14.176-10.769.093h-15.023v-3.485a2.211,2.211,0,0,1,2.21-2.208h2.105v1.333a1.3,1.3,0,0,0,1.3,1.3,1.3,1.3,0,0,0,1.3-1.3v-1.333h11.957v1.333a1.3,1.3,0,0,0,1.3,1.3,1.3,1.3,0,0,0,1.3-1.3v-1.333h2.1a2.211,2.211,0,0,1,2.21,2.208Z" fill="#1b85d7"/>
  </g>
</svg>
