<svg xmlns="http://www.w3.org/2000/svg" width="18" height="20.002" viewBox="0 0 18 20.002">
  <path id="Trazado_760" data-name="Trazado 760" d="M20,14H15.784l.445-4H20a1,1,0,0,0,0-2H16.451l.543-4.89a1,1,0,1,0-1.988-.22L14.438,8H10.45l.544-4.89a1,1,0,0,0-1.988-.22L8.439,8H4a1,1,0,0,0,0,2H8.216l-.444,4H4a1,1,0,0,0,0,2H7.55l-.544,4.89a1,1,0,0,0,.884,1.1A1.032,1.032,0,0,0,8,22a1,1,0,0,0,.993-.89L9.561,16h3.988l-.543,4.89a1,1,0,0,0,.884,1.1A1.032,1.032,0,0,0,14,22a1,1,0,0,0,.993-.89L15.562,16H20a1,1,0,0,0,0-2ZM9.784,14l.444-4h3.988l-.445,4Z" transform="translate(-3 -1.998)" fill="#049372"/>
</svg>
