<svg xmlns="http://www.w3.org/2000/svg" width="28.5" height="27.5" viewBox="0 0 28.5 27.5">
  <g id="Grupo_1872" data-name="Grupo 1872" transform="translate(-1167.25 -741.75)">
    <g id="Grupo_1865" data-name="Grupo 1865" transform="translate(855.75 -396)">
      <g id="info" transform="translate(310.836 1136.5)">
        <ellipse id="Elipse_128" data-name="Elipse 128" cx="13" cy="12.5" rx="13" ry="12.5" transform="translate(1.914 2.5)" fill="none" stroke="#019f86" stroke-linecap="round" stroke-linejoin="round" stroke-width="2.5"/>
      </g>
    </g>
    <g id="Grupo_1615" data-name="Grupo 1615" transform="translate(859.682 -212.297)">
      <g id="Grupo_555" data-name="Grupo 555" transform="translate(312.534 958.225)">
        <g id="Grupo_179" data-name="Grupo 179" transform="translate(0 0)">
          <g id="noun_Hospital_374992">
            <path id="Trazado_45" data-name="Trazado 45" d="M24.825,18.061H20.159V13.276a.324.324,0,0,0-.323-.323H11.615a.323.323,0,0,0-.323.323v4.784H6.625a.323.323,0,0,0-.323.323V28.607a.323.323,0,0,0,.323.323h18.2a.323.323,0,0,0,.323-.323V18.384A.323.323,0,0,0,24.825,18.061ZM11.291,28.284H6.949V18.708h4.342v9.576Zm4.111,0H14.207V25.869H15.4Zm1.842,0h-1.2V25.869h1.2Zm2.269,0H17.891V25.545a.324.324,0,0,0-.323-.323H13.884a.323.323,0,0,0-.323.323v2.739H11.938V13.6h7.574Zm4.989,0H20.159V18.708H24.5v9.576Zm-11.4-6.4h1.748a.323.323,0,0,0,.323-.323V20.477a.323.323,0,0,0-.323-.323H13.1a.324.324,0,0,0-.323.323v1.079A.323.323,0,0,0,13.1,21.88Zm.323-1.079h1.1v.432h-1.1ZM8.246,21.88H9.994a.323.323,0,0,0,.323-.323V20.477a.323.323,0,0,0-.323-.323H8.246a.324.324,0,0,0-.323.323v1.079A.323.323,0,0,0,8.246,21.88ZM8.569,20.8h1.1v.432h-1.1Zm-.323,3.605H9.994a.323.323,0,0,0,.323-.323V23a.323.323,0,0,0-.323-.323H8.246A.324.324,0,0,0,7.923,23v1.079A.323.323,0,0,0,8.246,24.406Zm.323-1.079h1.1v.432h-1.1Zm-.323,3.605H9.994a.323.323,0,0,0,.323-.323V25.53a.323.323,0,0,0-.323-.323H8.246a.324.324,0,0,0-.323.323v1.079A.323.323,0,0,0,8.246,26.932Zm.323-1.079h1.1v.432h-1.1ZM21.457,21.88H23.2a.323.323,0,0,0,.323-.323V20.477a.324.324,0,0,0-.323-.323H21.457a.323.323,0,0,0-.323.323v1.079A.323.323,0,0,0,21.457,21.88ZM21.78,20.8h1.1v.432h-1.1Zm-.323,3.605H23.2a.323.323,0,0,0,.323-.323V23a.324.324,0,0,0-.323-.323H21.457a.323.323,0,0,0-.323.323v1.079A.323.323,0,0,0,21.457,24.406Zm.323-1.079h1.1v.432h-1.1Zm-.323,3.605H23.2a.323.323,0,0,0,.323-.323V25.53a.324.324,0,0,0-.323-.323H21.457a.323.323,0,0,0-.323.323v1.079A.323.323,0,0,0,21.457,26.932Zm.323-1.079h1.1v.432h-1.1Zm-5.5-5.376v1.079a.323.323,0,0,0,.323.323h1.748a.323.323,0,0,0,.323-.323V20.477a.324.324,0,0,0-.323-.323H16.6A.323.323,0,0,0,16.275,20.477Zm.647.323h1.1v.432h-1.1ZM13.1,24.406h1.748a.323.323,0,0,0,.323-.323V23a.323.323,0,0,0-.323-.323H13.1a.324.324,0,0,0-.323.323v1.08A.323.323,0,0,0,13.1,24.406Zm.323-1.079h1.1v.433h-1.1Zm4.919-.647H16.6a.323.323,0,0,0-.323.323v1.08a.323.323,0,0,0,.323.323h1.748a.324.324,0,0,0,.323-.323V23A.323.323,0,0,0,18.346,22.68Zm-.323,1.079h-1.1v-.433h1.1Z" transform="translate(-6.302 -12.953)" fill="#019f86"/>
          </g>
        </g>
        <g id="noun_Helipad_392505" transform="translate(6.862 1.384)">
          <path id="Trazado_120" data-name="Trazado 120" d="M11,7.758a2.416,2.416,0,1,0,2.416,2.416A2.418,2.418,0,0,0,11,7.758Zm0,4.656a2.241,2.241,0,1,1,2.241-2.241A2.243,2.243,0,0,1,11,12.414Zm1.273-3.683h-.855a.087.087,0,0,0-.087.087v.839h-.661V8.819a.087.087,0,0,0-.087-.087H9.722a.087.087,0,0,0-.087.087v2.709a.087.087,0,0,0,.087.087h.855a.087.087,0,0,0,.087-.087v-.839h.661v.839a.087.087,0,0,0,.087.087h.855a.087.087,0,0,0,.087-.087V8.819A.087.087,0,0,0,12.269,8.732Zm-.087,2.709H11.5V10.6a.088.088,0,0,0-.087-.087h-.836a.088.088,0,0,0-.087.087v.839H9.81V8.907h.68v.839a.087.087,0,0,0,.087.087h.836a.087.087,0,0,0,.087-.087V8.907h.68Z" transform="translate(-8.58 -7.758)" fill="#019f86" stroke="#019f86" stroke-width="0.2"/>
        </g>
      </g>
    </g>
  </g>
</svg>
