<svg xmlns="http://www.w3.org/2000/svg" width="25.701" height="24.733" viewBox="0 0 25.701 24.733">
  <defs>
    <style>
      .cls-1 {
        fill: #fff;
      }
    </style>
  </defs>
  <g id="Grupo_2130" data-name="Grupo 2130" transform="translate(0)">
    <path id="Trazado_607" data-name="Trazado 607" class="cls-1" d="M-1734.539-678.645h-2.536V-679.8a.928.928,0,0,0-.927-.927h-1.656v-4.481a.928.928,0,0,0-.927-.927h-11.757a.927.927,0,0,0-.927.927v4.481h-1.656a.928.928,0,0,0-.927.927v1.156h-2.536a.927.927,0,0,0-.927.926v11.049a.927.927,0,0,0,.927.926h5.094v3.416a.928.928,0,0,0,.927.927h11.757a.928.928,0,0,0,.927-.927v-3.416h5.144a.927.927,0,0,0,.927-.926v-11.049A.927.927,0,0,0-1734.539-678.645ZM-1738-679.9a.1.1,0,0,1,.1.1v1.156h-1.759V-679.9Zm-14.443-5.3a.1.1,0,0,1,.1-.1h11.757a.1.1,0,0,1,.1.1v8.281a.1.1,0,0,1-.1.1h-11.757a.1.1,0,0,1-.1-.1Zm-2.583,5.408a.1.1,0,0,1,.1-.1h1.656v1.259h-1.759Zm14.521,17.474a.1.1,0,0,1-.1.1h-11.757a.1.1,0,0,1-.1-.1v-3.691a.406.406,0,0,0,.025-.136.405.405,0,0,0-.025-.136v-3.38a.1.1,0,0,1,.1-.1h11.757a.1.1,0,0,1,.1.1Zm6.071-4.342a.1.1,0,0,1-.1.1h-5.144v-3.1a.926.926,0,0,0-.006-.1h.845a.412.412,0,0,0,.412-.412.412.412,0,0,0-.412-.412h-15.288a.412.412,0,0,0-.412.412.412.412,0,0,0,.412.412h.845a.989.989,0,0,0-.006.1v3.1h-5.094a.1.1,0,0,1-.1-.1v-11.049a.1.1,0,0,1,.1-.1h5.119v.894a.927.927,0,0,0,.927.927h11.757a.928.928,0,0,0,.927-.927v-.894h5.119a.1.1,0,0,1,.1.1Z" transform="translate(1759.314 686.135)"/>
    <path id="Trazado_608" data-name="Trazado 608" class="cls-1" d="M-1561.9-570.309h-2.27a.412.412,0,0,0-.412.412.412.412,0,0,0,.412.412h2.27a.412.412,0,0,0,.412-.412A.412.412,0,0,0-1561.9-570.309Z" transform="translate(1584.625 582.233)"/>
    <path id="Trazado_609" data-name="Trazado 609" class="cls-1" d="M-1672.346-506.615h-9.4a.154.154,0,0,0-.154.154.154.154,0,0,0,.154.154h9.4a.155.155,0,0,0,.155-.154A.155.155,0,0,0-1672.346-506.615Z" transform="translate(1689.874 525.096)"/>
    <path id="Trazado_610" data-name="Trazado 610" class="cls-1" d="M-1672.346-477.474h-9.4a.154.154,0,0,0-.154.154.154.154,0,0,0,.154.154h9.4a.155.155,0,0,0,.155-.154A.155.155,0,0,0-1672.346-477.474Z" transform="translate(1689.874 498.956)"/>
  </g>
</svg>
