<svg xmlns="http://www.w3.org/2000/svg" width="24.064" height="26.883" viewBox="0 0 24.064 26.883">
  <g id="Grupo_2131" data-name="Grupo 2131" transform="translate(2034.189 -0.783)">
    <path id="Trazado_611" data-name="Trazado 611" d="M-2010.4,6.866l-5.86-5.816a.914.914,0,0,0-.648-.267h-12.289a.92.92,0,0,0-.919.919V7.153h-3.271a.845.845,0,0,0-.806.878v8.04a.845.845,0,0,0,.806.878h3.271v9.8a.92.92,0,0,0,.919.919h18.149a.92.92,0,0,0,.919-.919V7.518A.926.926,0,0,0-2010.4,6.866Zm-.851.307h-5.151a.1.1,0,0,1-.1-.1V1.96Zm-22.124,8.9V8.031a.119.119,0,0,1,.015-.06h14.539a.119.119,0,0,1,.015.06v8.04a.12.12,0,0,1-.015.06h-14.539A.12.12,0,0,1-2033.372,16.07Zm22.327,10.779h-18.149a.1.1,0,0,1-.1-.1v-9.8h10.5a.845.845,0,0,0,.806-.878V8.031a.845.845,0,0,0-.806-.878h-10.5V1.7a.1.1,0,0,1,.1-.1h11.876V7.071a.92.92,0,0,0,.919.919h5.456V26.747A.1.1,0,0,1-2011.044,26.849Z" transform="translate(0)" fill="#1b85d7"/>
    <path id="Trazado_612" data-name="Trazado 612" d="M-2009.7,87.5a.386.386,0,0,0-.115-.264.359.359,0,0,0-.274-.125.417.417,0,0,0-.34.2l-1.2,1.587-1.22-1.622a.416.416,0,0,0-.34-.18.426.426,0,0,0-.288.121.389.389,0,0,0-.135.3.386.386,0,0,0,.09.25l1.337,1.777-1.337,1.811a.451.451,0,0,0-.1.285.356.356,0,0,0,.111.253.355.355,0,0,0,.264.115.413.413,0,0,0,.347-.194l1.2-1.628,1.235,1.642a.415.415,0,0,0,.34.181.445.445,0,0,0,.278-.111.37.37,0,0,0,.139-.305.415.415,0,0,0-.083-.257l-1.355-1.8,1.355-1.786A.4.4,0,0,0-2009.7,87.5Z" transform="translate(-18.468 -77.494)" fill="#1b85d7"/>
    <path id="Trazado_613" data-name="Trazado 613" d="M-1964.405,91.344h-1.811V87.721a.4.4,0,0,0-.128-.3.418.418,0,0,0-.3-.121.439.439,0,0,0-.319.121.4.4,0,0,0-.125.3v4.011a.409.409,0,0,0,.121.3.409.409,0,0,0,.3.121h2.256a.423.423,0,0,0,.3-.115.379.379,0,0,0,.122-.288.387.387,0,0,0-.122-.295A.423.423,0,0,0-1964.405,91.344Z" transform="translate(-60.25 -77.677)" fill="#1b85d7"/>
    <path id="Trazado_614" data-name="Trazado 614" d="M-1928.11,89.156a1.713,1.713,0,0,0-.524-.267,5.583,5.583,0,0,0-.732-.181,4.017,4.017,0,0,1-.548-.142.82.82,0,0,1-.35-.215.494.494,0,0,1-.121-.343.48.48,0,0,1,.1-.305.692.692,0,0,1,.309-.208,1.449,1.449,0,0,1,.5-.076,1.435,1.435,0,0,1,.389.059,2.688,2.688,0,0,1,.4.146,1.259,1.259,0,0,1,.3.184.305.305,0,0,0,.187.063.371.371,0,0,0,.278-.125.4.4,0,0,0,.118-.278.463.463,0,0,0-.2-.368,1.947,1.947,0,0,0-.628-.343,2.5,2.5,0,0,0-.836-.135,2.235,2.235,0,0,0-.875.167,1.455,1.455,0,0,0-.628.486,1.273,1.273,0,0,0-.233.77,1.42,1.42,0,0,0,.1.538,1.154,1.154,0,0,0,.288.416,1.533,1.533,0,0,0,.475.291,2.9,2.9,0,0,0,.659.17,2.943,2.943,0,0,1,.652.156.95.95,0,0,1,.382.246.526.526,0,0,1,.125.354.43.43,0,0,1-.132.309.921.921,0,0,1-.347.215,1.344,1.344,0,0,1-.472.08,1.637,1.637,0,0,1-.642-.111,2.2,2.2,0,0,1-.524-.326.367.367,0,0,0-.236-.083.38.38,0,0,0-.288.121.4.4,0,0,0-.115.281.435.435,0,0,0,.048.194.547.547,0,0,0,.139.173,2.089,2.089,0,0,0,.743.427,2.928,2.928,0,0,0,.875.121,2.208,2.208,0,0,0,.878-.174,1.6,1.6,0,0,0,.656-.5,1.24,1.24,0,0,0,.25-.777,1.543,1.543,0,0,0-.1-.6A1.012,1.012,0,0,0-1928.11,89.156Z" transform="translate(-92.394 -77.067)" fill="#1b85d7"/>
    <rect id="Rectángulo_519" data-name="Rectángulo 519" width="3.917" height="1.502" rx="0.751" transform="translate(-2027.42 18.457)" fill="#1b85d7"/>
    <rect id="Rectángulo_520" data-name="Rectángulo 520" width="3.917" height="1.502" rx="0.751" transform="translate(-2022.077 18.457)" fill="#1b85d7"/>
    <rect id="Rectángulo_521" data-name="Rectángulo 521" width="3.917" height="1.502" rx="0.751" transform="translate(-2016.735 18.457)" fill="#1b85d7"/>
    <rect id="Rectángulo_522" data-name="Rectángulo 522" width="3.917" height="1.502" rx="0.751" transform="translate(-2027.42 20.909)" fill="#1b85d7"/>
    <rect id="Rectángulo_523" data-name="Rectángulo 523" width="3.917" height="1.502" rx="0.751" transform="translate(-2022.077 20.909)" fill="#1b85d7"/>
    <rect id="Rectángulo_524" data-name="Rectángulo 524" width="3.917" height="1.502" rx="0.751" transform="translate(-2016.735 20.909)" fill="#1b85d7"/>
    <rect id="Rectángulo_525" data-name="Rectángulo 525" width="3.917" height="1.502" rx="0.751" transform="translate(-2027.42 23.361)" fill="#1b85d7"/>
    <rect id="Rectángulo_526" data-name="Rectángulo 526" width="3.917" height="1.502" rx="0.751" transform="translate(-2022.077 23.361)" fill="#1b85d7"/>
    <rect id="Rectángulo_527" data-name="Rectángulo 527" width="3.917" height="1.502" rx="0.751" transform="translate(-2016.735 23.361)" fill="#1b85d7"/>
  </g>
</svg>
