<svg id="Grupo_2128" data-name="Grupo 2128" xmlns="http://www.w3.org/2000/svg" width="23.755" height="27.092" viewBox="0 0 23.755 27.092">
  <path id="Trazado_590" data-name="Trazado 590" d="M-1734.145-311.729l-5.905-5.861a.921.921,0,0,0-.653-.269h-12.384a.927.927,0,0,0-.927.927v11.411h-2.687a.928.928,0,0,0-.927.927v8.824a.927.927,0,0,0,.927.927h2.687v3.15a.927.927,0,0,0,.927.927h18.289a.927.927,0,0,0,.927-.927v-19.377A.933.933,0,0,0-1734.145-311.729Zm-.857.309h-5.186a.1.1,0,0,1-.1-.1v-5.146Zm-21.8,15.648v-8.824a.1.1,0,0,1,.1-.1h18.891a.1.1,0,0,1,.1.1v8.824a.1.1,0,0,1-.1.1H-1756.7A.1.1,0,0,1-1756.8-295.771Zm22.005,4.18h-18.289a.1.1,0,0,1-.1-.1v-3.15h15.38a.928.928,0,0,0,.927-.927v-8.824a.928.928,0,0,0-.927-.927h-15.38v-11.411a.1.1,0,0,1,.1-.1h11.972v5.513a.927.927,0,0,0,.927.927h5.493v18.9A.1.1,0,0,1-1734.8-291.591Z" transform="translate(1757.627 317.859)" fill="#1b85d7"/>
  <path id="Trazado_591" data-name="Trazado 591" d="M-1716.316-161.444a.37.37,0,0,0,.287-.119.423.423,0,0,0,.109-.3v-1.29h1.188a1.173,1.173,0,0,0,.666-.208,1.561,1.561,0,0,0,.5-.556,1.576,1.576,0,0,0,.191-.771,1.589,1.589,0,0,0-.191-.778,1.532,1.532,0,0,0-.5-.553,1.188,1.188,0,0,0-.666-.2h-1.556a.4.4,0,0,0-.3.119.4.4,0,0,0-.119.3v3.945a.423.423,0,0,0,.109.3A.362.362,0,0,0-1716.316-161.444Zm1.836-3.887a.838.838,0,0,1,.2.276.842.842,0,0,1,.082.369.848.848,0,0,1-.082.365.867.867,0,0,1-.2.283.38.38,0,0,1-.253.109h-1.188v-1.509h1.188A.385.385,0,0,1-1714.48-165.331Z" transform="translate(1720.918 181.833)" fill="#1b85d7"/>
  <path id="Trazado_592" data-name="Trazado 592" d="M-1676.307-161.444h1.631a1.884,1.884,0,0,0,1.116-.321,2.036,2.036,0,0,0,.693-.864,2.961,2.961,0,0,0,.239-1.2,3.135,3.135,0,0,0-.133-.925,2.3,2.3,0,0,0-.4-.764,1.826,1.826,0,0,0-.645-.515,1.988,1.988,0,0,0-.874-.184h-1.631a.4.4,0,0,0-.3.119.4.4,0,0,0-.119.3v3.945a.4.4,0,0,0,.119.3A.4.4,0,0,0-1676.307-161.444Zm2.116-3.863a1.11,1.11,0,0,1,.382.352,1.576,1.576,0,0,1,.222.512,2.536,2.536,0,0,1,.072.611,2.42,2.42,0,0,1-.126.8,1.271,1.271,0,0,1-.4.587,1.078,1.078,0,0,1-.7.222h-1.126v-3.208h1.126A1.117,1.117,0,0,1-1674.191-165.307Z" transform="translate(1685.052 181.833)" fill="#1b85d7"/>
  <path id="Trazado_593" data-name="Trazado 593" d="M-1628.887-161.444a.418.418,0,0,0,.3-.119.392.392,0,0,0,.126-.3v-1.59h1.474a.409.409,0,0,0,.3-.116.362.362,0,0,0,.12-.266.381.381,0,0,0-.12-.29.416.416,0,0,0-.3-.113h-1.474v-1.2h1.782a.409.409,0,0,0,.3-.116.361.361,0,0,0,.12-.266.381.381,0,0,0-.12-.29.416.416,0,0,0-.3-.113h-2.219a.4.4,0,0,0-.3.119.4.4,0,0,0-.119.3v3.945a.4.4,0,0,0,.119.3A.42.42,0,0,0-1628.887-161.444Z" transform="translate(1642.526 181.833)" fill="#1b85d7"/>
</svg>
