<svg xmlns="http://www.w3.org/2000/svg" width="22.015" height="14.186" viewBox="0 0 22.015 14.186">
  <path id="Trazado_761" data-name="Trazado 761" d="M6.64-10.86,2.32-.7a1.23,1.23,0,0,1-.43.59A1.052,1.052,0,0,1,1.26.1a1,1,0,0,1-.8-.3A1.09,1.09,0,0,1,.2-.94a1.323,1.323,0,0,1,.06-.38L5.24-13.28a1.3,1.3,0,0,1,.49-.62,1.048,1.048,0,0,1,.71-.18,1.171,1.171,0,0,1,.67.21,1.185,1.185,0,0,1,.45.59L12.48-1.56a1.346,1.346,0,0,1,.1.48,1.108,1.108,0,0,1-.35.86,1.118,1.118,0,0,1-.77.32,1.049,1.049,0,0,1-.65-.22,1.43,1.43,0,0,1-.45-.6L6.06-10.74ZM2.94-3.14l1.1-2.3h5.4l.38,2.3ZM17.76-8.145,14.52-.525a.923.923,0,0,1-.322.442.789.789,0,0,1-.473.158.752.752,0,0,1-.6-.225.818.818,0,0,1-.2-.555.992.992,0,0,1,.045-.285L16.71-9.96a.978.978,0,0,1,.368-.465.786.786,0,0,1,.533-.135.879.879,0,0,1,.5.158.889.889,0,0,1,.338.442l3.69,8.79a1.009,1.009,0,0,1,.075.36.831.831,0,0,1-.263.645.838.838,0,0,1-.577.24.787.787,0,0,1-.487-.165,1.072,1.072,0,0,1-.338-.45L17.325-8.055Zm-2.775,5.79L15.81-4.08h4.05l.285,1.725Z" transform="translate(-0.2 14.086)" fill="#049372"/>
</svg>
