<svg xmlns="http://www.w3.org/2000/svg" xmlns:xlink="http://www.w3.org/1999/xlink" width="112" height="112" viewBox="0 0 112 112">
  <defs>
    <filter id="PSE" x="0" y="0" width="112" height="112" filterUnits="userSpaceOnUse">
      <feOffset dy="3" input="SourceAlpha"/>
      <feGaussianBlur stdDeviation="3" result="blur"/>
      <feFlood flood-opacity="0.161"/>
      <feComposite operator="in" in2="blur"/>
      <feComposite in="SourceGraphic"/>
    </filter>
    <clipPath id="clip-path">
      <path id="Trazado_412" data-name="Trazado 412" d="M909.669,643.368l3.364,6.729,3.106-3.845-4.857-4.085Z" transform="translate(-909.669 -642.167)" fill="#fff"/>
    </clipPath>
    <clipPath id="clip-path-2">
      <path id="Trazado_413" data-name="Trazado 413" d="M907.285,635.232s.481,4.027,1.923,6.132l1.923-4.144Z" transform="translate(-907.285 -635.232)" fill="#fff"/>
    </clipPath>
    <clipPath id="clip-path-3">
      <path id="Trazado_414" data-name="Trazado 414" d="M909.27,601.939l-1.665,5.281,2.914-.234.243-4.378Z" transform="translate(-907.605 -601.939)" fill="#fff"/>
    </clipPath>
    <clipPath id="clip-path-4">
      <path id="Trazado_415" data-name="Trazado 415" d="M912.706,593a39.906,39.906,0,0,0-2.241,5.545c-.162,1.183,4.164,0,4.164,0l.961-3.623L914.148,593Z" transform="translate(-910.46 -593)" fill="#fff"/>
    </clipPath>
  </defs>
  <g id="Grupo_1649" data-name="Grupo 1649" transform="translate(10575 -13254.563)">
    <g id="Grupo_255" data-name="Grupo 255" transform="translate(-11067 12328.563)">
      <g id="Grupo_56" data-name="Grupo 56" transform="translate(501 932)">
        <g transform="matrix(1, 0, 0, 1, -9, -6)" filter="url(#PSE)">
          <circle id="PSE-2" data-name="PSE" cx="47" cy="47" r="47" transform="translate(9 6)" fill="#019f86"/>
        </g>
      </g>
    </g>
    <g id="Grupo_1483" data-name="Grupo 1483" transform="translate(-11472.231 12692.047)">
      <circle id="Elipse_150" data-name="Elipse 150" cx="2.403" cy="2.403" r="2.403" transform="translate(913.57 600.45)" fill="#fff"/>
      <circle id="Elipse_151" data-name="Elipse 151" cx="2.403" cy="2.403" r="2.403" transform="translate(909.485 621.357)" fill="#fff"/>
      <circle id="Elipse_152" data-name="Elipse 152" cx="2.403" cy="2.403" r="2.403" transform="translate(913.57 627.846)" fill="#fff"/>
      <path id="Trazado_405" data-name="Trazado 405" d="M906.841,612.369h6.729l4.807,6.646h10.667v2.246h-6.511l-3.676,6.969H913.57v-2.294h4.086l2.418-4.675H906.232v-2.474h9.261l-3.845-4.5h-4.807Z" transform="translate(0 -3.748)" fill="#fff"/>
      <path id="Trazado_406" data-name="Trazado 406" d="M966.424,631.118c-1.622,0-3.253.1-4.861-.048-.644-.06-1.837-.014-1.853-1.03.016-.907,1.2-1.418,1.837-1.449,3.146-.152,6.307.006,9.455-.118,1.111-.044,2.637-.243,3.2-.97a7.338,7.338,0,0,0,1.718-4.4c-.1-1.9-1.949-2.291-3.729-2.213-1.439.064-2.883,0-4.324.016-2.325.02-4.3-.681-5.375-2.892a5.348,5.348,0,0,1,1.062-6.491,11.2,11.2,0,0,1,5.478-2.909,48.111,48.111,0,0,1,9.168-.086c.648.021,1.71-.065,1.916.951.274,1.388-1.212,1.408-1.857,1.446-2.964.173-5.962-.092-8.906.207a6.6,6.6,0,0,0-3.9,1.91c-1.978,2.176-.711,4.983,2.227,5.225,1.88.155,3.782.008,5.674.06,4.074.113,6.374,3.349,5.175,7.236a7.937,7.937,0,0,1-7.241,5.541C969.669,631.165,968.046,631.118,966.424,631.118Z" transform="translate(-10.349 -2.97)" fill="#fff"/>
      <path id="Trazado_407" data-name="Trazado 407" d="M949.924,608.521c-1.71-.051-3.424-.038-5.135,0a7.969,7.969,0,0,0-8,6.683q-2.091,11.417-3.941,22.878c-.127.776-.46,2.136.6,2.487,1.344.13,1.661-1.311,1.861-2.122.661-2.694,1.028-5.46,1.482-8.054,1.644.27,3.121.611,4.615.73a41.113,41.113,0,0,0,4.592.017,7.733,7.733,0,0,0,7.526-5.869,93.876,93.876,0,0,0,1.93-10.62C955.9,611.032,953.589,608.631,949.924,608.521Zm2.783,6.909q-.679,4.269-1.525,8.51c-.608,3.023-2.4,4.521-5.46,4.577-6.62.121-9.325.668-7.147-8.262.192-.785.255-1.6.4-2.4a25.174,25.174,0,0,1,.756-3.184c1-3.026,2.605-3.515,7.243-3.514.722,0,1.445-.033,2.164.01C951.808,611.331,953.116,612.853,952.707,615.43Z" transform="translate(-5.122 -2.997)" fill="#fff"/>
      <path id="Trazado_408" data-name="Trazado 408" d="M1000.1,608.542c-1.711-.086-3.428-.042-5.143-.023a8.1,8.1,0,0,0-8.412,6.885q-.956,4.633-1.651,9.32a5.356,5.356,0,0,0,5.067,6.368c3.42.175,6.86.127,10.283-.028.738-.033,1.83.021,2.153-1.44-.323-.942-1.417-1-2.144-1.027-3.064-.118-6.137.01-9.2-.074-2.585-.071-3.929-1.767-3.54-4.3.136-.885.383-1.755.661-2.995,3.579,0,7,0,10.418,0,6.332,0,6.724-.4,6.846-6.839,0-.09,0-.181,0-.271A5.218,5.218,0,0,0,1000.1,608.542Zm2.569,8.189c-.261,2.169-1.547,1.985-3.02,1.971-3.579-.031-7.159-.01-10.945-.01.808-6.936,6.241-10.045,12.221-7.294C1003.32,612.5,1002.933,614.56,1002.671,616.731Z" transform="translate(-15.209 -2.998)" fill="#fff"/>
      <g id="Grupo_1474" data-name="Grupo 1474" transform="translate(933.904 596.36)">
        <path id="Trazado_409" data-name="Trazado 409" d="M950.069,597.171c.119.015.842-.016.96,0v2.171c.24.025.419.057.6.059,2.153.023,2.336.227,1.966,2.318-.12.676-.484,1.512-.641,2.181-.178-.033-.3.034-.481,0,.115-.73.36-1.732.463-2.465.076-.533.422-1.173-.458-1.39-1.018-.252-1.619.082-1.824,1.021-.194.88-.4,1.953-.583,2.834-.185-.036-.339-.262-.523-.3.233-1.347.293-2.685.523-4.026Z" transform="translate(-942.285 -597.166)" fill="#fff"/>
        <path id="Trazado_410" data-name="Trazado 410" d="M941.386,600.319c-.269.74,1.173.249,1.765.256.369,0,.369,0,.585.544-.215.422-.215.422-.6.476-.487.067-1.091-.086-1.457.147a2.187,2.187,0,0,0-1.129,1.4c-.036.252.347.964.634,1.021a5.552,5.552,0,0,0,2.378.013c.311-.079.444-.869.657-1.336.048-.1.1-.209.143-.314l.073-.673C944.48,599.926,943.524,599.393,941.386,600.319Zm.712,3.348c-.358-.067-.977-.533-.944-.626.41-1.143,1.36-.787,2.25-.753C943.729,603.63,943.025,603.842,942.1,603.667Z" transform="translate(-940.543 -597.691)" fill="#fff"/>
        <path id="Trazado_411" data-name="Trazado 411" d="M945.358,601.738s-.16,1.89.427,2.229c.747.434,2.58.3,3.47.34,0,.221-.006-.69,0-.961-.533-.036-1.878.292-2.4.21-.31-.048-.744-.134-.873-.351-.582-.985.507-2.714,1.648-2.8.61-.044,1.629.054,2.11.054,0,.006,0-.96,0-.96-2.463-.692-3.757.227-4.378,2.236" transform="translate(-941.471 -597.574)" fill="#fff"/>
      </g>
      <g id="Grupo_1476" data-name="Grupo 1476" transform="translate(909.004 632.653)">
        <g id="Grupo_1475" data-name="Grupo 1475" clip-path="url(#clip-path)">
          <circle id="Elipse_153" data-name="Elipse 153" cx="2.403" cy="2.403" r="2.403" transform="translate(0 1.682)" fill="#fff"/>
        </g>
      </g>
      <g id="Grupo_1478" data-name="Grupo 1478" transform="translate(907.081 627.06)">
        <g id="Grupo_1477" data-name="Grupo 1477" transform="translate(0 0)" clip-path="url(#clip-path-2)">
          <circle id="Elipse_154" data-name="Elipse 154" cx="2.403" cy="2.403" r="2.403" transform="translate(-2.403 0.546)" fill="#fff"/>
        </g>
      </g>
      <g id="Grupo_1480" data-name="Grupo 1480" transform="translate(907.339 600.21)">
        <g id="Grupo_1479" data-name="Grupo 1479" transform="translate(0 0)" clip-path="url(#clip-path-3)">
          <circle id="Elipse_155" data-name="Elipse 155" cx="2.403" cy="2.403" r="2.403" transform="translate(-2.661)" fill="#fff"/>
        </g>
      </g>
      <g id="Grupo_1482" data-name="Grupo 1482" transform="translate(909.642 593)">
        <g id="Grupo_1481" data-name="Grupo 1481" clip-path="url(#clip-path-4)">
          <circle id="Elipse_156" data-name="Elipse 156" cx="2.403" cy="2.403" r="2.403" transform="translate(-0.638 0.481)" fill="#fff"/>
        </g>
      </g>
    </g>
  </g>
</svg>
