<svg xmlns="http://www.w3.org/2000/svg" xmlns:xlink="http://www.w3.org/1999/xlink" width="112" height="112" viewBox="0 0 112 112">
  <defs>
    <filter id="Elipse_7" x="0" y="0" width="112" height="112" filterUnits="userSpaceOnUse">
      <feOffset dy="3" input="SourceAlpha"/>
      <feGaussianBlur stdDeviation="3" result="blur"/>
      <feFlood flood-opacity="0.161"/>
      <feComposite operator="in" in2="blur"/>
      <feComposite in="SourceGraphic"/>
    </filter>
  </defs>
  <g id="Grupo_1433" data-name="Grupo 1433" transform="translate(-796 -295)">
    <g id="Grupo_257" data-name="Grupo 257" transform="translate(304 -631)">
      <g id="Grupo_56" data-name="Grupo 56" transform="translate(501 932)">
        <g transform="matrix(1, 0, 0, 1, -9, -6)" filter="url(#Elipse_7)">
          <circle id="Elipse_7-2" data-name="Elipse 7" cx="47" cy="47" r="47" transform="translate(9 6)" fill="#0083d6"/>
        </g>
      </g>
    </g>
    <g id="noun_pay_tarjet_1758711" data-name="noun_pay tarjet_1758711" transform="translate(817 321.001)">
      <g id="Grupo_1432" data-name="Grupo 1432" transform="translate(0 -0.001)">
        <path id="Trazado_385" data-name="Trazado 385" d="M62.515,16.392h-1.2L56.836,4.427A6.825,6.825,0,0,0,48.06.433L4.518,16.742C-.865,19.01-.294,22.724.526,25.521L9.394,48.968a6.83,6.83,0,0,0,6.626,5.216H62.515a6.826,6.826,0,0,0,6.818-6.818V23.21A6.826,6.826,0,0,0,62.515,16.392ZM9.2,23.21v20.4l-7.071-18.7a4.925,4.925,0,0,1,2.989-6.57L48.661,2.039a5.11,5.11,0,0,1,6.57,2.989l4.256,11.364H16.02A6.825,6.825,0,0,0,9.2,23.21ZM67.618,47.365a5.11,5.11,0,0,1-5.1,5.1H16.02a5.665,5.665,0,0,1-5.1-5.1V23.21a5.11,5.11,0,0,1,5.1-5.1H62.515a5.11,5.11,0,0,1,5.1,5.1V47.365Zm-34.7-12.313a6.88,6.88,0,0,0,5.165-2.359,6.856,6.856,0,1,0,0-8.994,6.853,6.853,0,1,0-5.165,11.353Zm0-12c3.634-.045,5.165,3.789,5.165,3.789s1.612-3.762,5.164-3.789a5.142,5.142,0,1,1,0,10.283c-3.266.027-5.164-3.789-5.164-3.789s-1.531,3.959-5.165,3.789A5.236,5.236,0,0,1,27.777,28.2,5.171,5.171,0,0,1,32.919,23.054Zm-15,23.407a.429.429,0,0,1-.428.428H16.107a.428.428,0,0,1-.428-.428v-.326a.428.428,0,0,1,.844-.1h.971A.428.428,0,0,1,17.923,46.461Zm-2.245-1.755V42.992a.428.428,0,0,1,.856,0v1.715a.428.428,0,0,1-.856,0Zm.819-2.324a.429.429,0,0,1,.428-.428h1.714a.428.428,0,1,1,0,.856H16.925A.427.427,0,0,1,16.5,42.382Zm10.852,0v1.144a.428.428,0,0,1-.856,0V42.81h-.141a.428.428,0,1,1,0-.856h.569A.429.429,0,0,1,27.349,42.382Zm-3.142,4.079a.428.428,0,0,1-.428.428H22.064a.428.428,0,1,1,0-.856h1.714A.428.428,0,0,1,24.206,46.461Zm3.142-1.505v1.505a.429.429,0,0,1-.428.428H25.207a.428.428,0,1,1,0-.856h1.286V44.956a.428.428,0,0,1,.856,0Zm-6.285,1.505a.429.429,0,0,1-.428.428H18.921a.428.428,0,1,1,0-.856h1.715A.428.428,0,0,1,21.064,46.461Zm-1.426-4.079a.429.429,0,0,1,.428-.428h1.715a.428.428,0,1,1,0,.856H20.066A.427.427,0,0,1,19.638,42.382Zm3.142,0a.428.428,0,0,1,.428-.428h1.714a.428.428,0,1,1,0,.856H23.209A.428.428,0,0,1,22.78,42.382Zm6.063,0a.429.429,0,0,1,.428-.428h1.714a.428.428,0,1,1,0,.856H29.272A.427.427,0,0,1,28.843,42.382Zm8.426-.428a.428.428,0,1,1,0,.856H35.555a.428.428,0,1,1,0-.856Zm-8.388,1.038v1.715a.428.428,0,0,1-.856,0V42.992a.428.428,0,1,1,.856,0Zm5.247-1.038a.428.428,0,1,1,0,.856H32.414a.428.428,0,1,1,0-.856Zm5.567,3v1.505a.428.428,0,0,1-.427.428H37.553a.428.428,0,1,1,0-.856h1.285V44.956a.428.428,0,0,1,.856,0Zm0-2.573v1.144a.428.428,0,1,1-.856,0V42.81H38.7a.428.428,0,1,1,0-.856h.57A.428.428,0,0,1,39.7,42.382Zm-3.141,4.079a.428.428,0,0,1-.428.428H34.412a.428.428,0,0,1,0-.856h1.714A.428.428,0,0,1,36.554,46.461Zm-6.284,0a.429.429,0,0,1-.428.428H28.454a.428.428,0,0,1-.428-.428v-.326a.428.428,0,0,1,.844-.1h.971A.428.428,0,0,1,30.269,46.461Zm3.142,0a.429.429,0,0,1-.428.428H31.269a.428.428,0,1,1,0-.856h1.715A.428.428,0,0,1,33.412,46.461Zm13.031-4.507a.428.428,0,0,1,0,.856H44.728a.428.428,0,1,1,0-.856Zm-5.285.428a.428.428,0,0,1,.428-.428H43.3a.428.428,0,1,1,0,.856H41.586A.427.427,0,0,1,41.157,42.382Zm8.427-.428a.428.428,0,0,1,0,.856H47.87a.428.428,0,1,1,0-.856ZM41.2,42.992v1.715a.428.428,0,0,1-.856,0V42.992a.428.428,0,1,1,.856,0Zm4.53,3.469a.429.429,0,0,1-.428.428H43.583a.428.428,0,0,1,0-.856H45.3A.428.428,0,0,1,45.726,46.461Zm-3.142,0a.429.429,0,0,1-.428.428H40.768a.429.429,0,0,1-.428-.428v-.326a.429.429,0,0,1,.845-.1h.971A.428.428,0,0,1,42.583,46.461Zm6.285,0a.428.428,0,0,1-.428.428H46.726a.428.428,0,0,1,0-.856H48.44A.428.428,0,0,1,48.868,46.461Zm3.142-1.505v1.505a.428.428,0,0,1-.428.428H49.868a.428.428,0,1,1,0-.856h1.286V44.956a.428.428,0,0,1,.856,0Zm0-2.573v1.144a.428.428,0,1,1-.856,0V42.81h-.141a.428.428,0,1,1,0-.856h.569A.429.429,0,0,1,52.01,42.382Zm7.778,0a.428.428,0,0,1,.428-.428h1.715a.428.428,0,1,1,0,.856H60.217A.427.427,0,0,1,59.789,42.382Zm-3.142,0a.428.428,0,0,1,.428-.428h1.715a.428.428,0,0,1,0,.856H57.075A.428.428,0,0,1,56.646,42.382Zm7.711,0v1.144a.428.428,0,0,1-.856,0V42.81H63.36a.428.428,0,1,1,0-.856h.569A.428.428,0,0,1,64.357,42.382Zm-11.67,2.324V42.992a.428.428,0,1,1,.856,0v1.715a.428.428,0,0,1-.856,0Zm.818-2.324a.428.428,0,0,1,.428-.428h1.714a.428.428,0,1,1,0,.856H53.933A.427.427,0,0,1,53.5,42.382Zm7.71,4.079a.428.428,0,0,1-.428.428H59.072a.428.428,0,0,1,0-.856h1.715A.428.428,0,0,1,61.215,46.461Zm-6.284,0a.429.429,0,0,1-.428.428H53.115a.428.428,0,0,1-.427-.428v-.326a.428.428,0,0,1,.844-.1H54.5A.429.429,0,0,1,54.931,46.461Zm9.426-1.505v1.505a.428.428,0,0,1-.428.428H62.215a.428.428,0,1,1,0-.856H63.5V44.956a.429.429,0,0,1,.857,0Zm-6.284,1.505a.429.429,0,0,1-.428.428H55.93a.428.428,0,1,1,0-.856h1.715A.429.429,0,0,1,58.073,46.461Z" transform="translate(0 0.001)" fill="#fff"/>
      </g>
    </g>
  </g>
</svg>
