<svg xmlns="http://www.w3.org/2000/svg" xmlns:xlink="http://www.w3.org/1999/xlink" width="112" height="112" viewBox="0 0 112 112">
  <defs>
    <filter id="Elipse_7" x="0" y="0" width="112" height="112" filterUnits="userSpaceOnUse">
      <feOffset dy="3" input="SourceAlpha"/>
      <feGaussianBlur stdDeviation="3" result="blur"/>
      <feFlood flood-opacity="0.161"/>
      <feComposite operator="in" in2="blur"/>
      <feComposite in="SourceGraphic"/>
    </filter>
  </defs>
  <g id="Grupo_1573" data-name="Grupo 1573" transform="translate(16595.375 -5709.873)">
    <g id="Grupo_1305" data-name="Grupo 1305" transform="translate(-17416.625 5516)">
      <g id="Grupo_257" data-name="Grupo 257" transform="translate(329.25 -732.127)">
        <g id="Grupo_56" data-name="Grupo 56" transform="translate(501 932)">
          <g transform="matrix(1, 0, 0, 1, -9, -6)" filter="url(#Elipse_7)">
            <circle id="Elipse_7-2" data-name="Elipse 7" cx="47" cy="47" r="47" transform="translate(9 6)" fill="#019f86"/>
          </g>
        </g>
      </g>
      <path id="Trazado_242" data-name="Trazado 242" d="M42.25,23a8.2,8.2,0,1,0,0,16.4,9.023,9.023,0,0,0,1.365-.114A8.2,8.2,0,0,0,42.25,23Zm0,1.64A6.558,6.558,0,1,1,35.692,31.2,6.546,6.546,0,0,1,42.25,24.64ZM20.936,27.919A7.378,7.378,0,1,0,28.314,35.3,7.39,7.39,0,0,0,20.936,27.919Zm42.628,0A7.378,7.378,0,1,0,70.942,35.3,7.39,7.39,0,0,0,63.564,27.919Zm-42.628,1.64A5.738,5.738,0,1,1,15.2,35.3,5.726,5.726,0,0,1,20.936,29.558Zm42.628,0A5.738,5.738,0,1,1,57.826,35.3,5.726,5.726,0,0,1,63.564,29.558ZM42.25,40.318c-4.44.375-4.111,1.369-7.07,3.177-.842.515-5.974,4.93-6.635,5.533-2.212-1.5-4.819-5.124-7.609-5.124-4.015,0-7.85,4-10.315,5.67A8.866,8.866,0,0,0,7,56.61v4.919a.852.852,0,0,0,.82.82H25.855v4.1a.852.852,0,0,0,.82.82H57.826a.852.852,0,0,0,.82-.82v-4.1H76.68a.852.852,0,0,0,.82-.82V56.61c0-2.3-1.759-3.979-4.022-6.225s-5.9-6.481-9.914-6.481c-2.733.342-5.39,4.237-7.608,5.124A14.724,14.724,0,0,0,53.7,47.337C50.742,45.529,46.69,39.942,42.25,40.318Zm0,1.81c4.164,0,7.934,4.96,10.606,6.593s4.15,3.738,4.15,5.431V65.628H27.494V54.151c0-1.693.683-3.552,4.15-5.79S38.086,42.128,42.25,42.128ZM20.936,45.544c1.708-.41,4.85,3.211,6.328,4.842a6.976,6.976,0,0,0-1.409,3.766v6.558H8.64v-4.1a7.324,7.324,0,0,1,2.8-5.806C13.6,49.336,17.231,45.544,20.936,45.544Zm42.628,0c4.3.752,4.235,2.732,8.752,6.025-.049-.035.1.078.24.175,2.162,1.468,3.3,3.341,3.3,4.867v4.1H58.645V54.151a6.976,6.976,0,0,0-1.409-3.766C58.44,49.506,61.1,45.885,63.564,45.544Z" transform="translate(836.473 201.866)" fill="#fff" stroke="#fff" stroke-width="1"/>
    </g>
  </g>
</svg>
