<svg xmlns="http://www.w3.org/2000/svg" xmlns:xlink="http://www.w3.org/1999/xlink" width="112" height="112" viewBox="0 0 112 112">
  <defs>
    <filter id="Elipse_7" x="0" y="0" width="112" height="112" filterUnits="userSpaceOnUse">
      <feOffset dy="3" input="SourceAlpha"/>
      <feGaussianBlur stdDeviation="3" result="blur"/>
      <feFlood flood-opacity="0.161"/>
      <feComposite operator="in" in2="blur"/>
      <feComposite in="SourceGraphic"/>
    </filter>
  </defs>
  <g id="Grupo_1035" data-name="Grupo 1035" transform="translate(-319 -193.873)">
    <g id="Grupo_243" data-name="Grupo 243" transform="translate(-173 -732.127)">
      <g id="Grupo_56" data-name="Grupo 56" transform="translate(501 932)">
        <g transform="matrix(1, 0, 0, 1, -9, -6)" filter="url(#Elipse_7)">
          <circle id="Elipse_7-2" data-name="Elipse 7" cx="47" cy="47" r="47" transform="translate(9 6)" fill="#019f86"/>
        </g>
      </g>
    </g>
    <g id="noun_Data_3247810" transform="translate(302.941 210.848)">
      <g id="Grupo_1034" data-name="Grupo 1034" transform="translate(49 9)">
        <g id="Grupo_1033" data-name="Grupo 1033" transform="translate(0 0)">
          <g id="Grupo_1032" data-name="Grupo 1032">
            <g id="Grupo_1029" data-name="Grupo 1029">
              <g id="Grupo_1019" data-name="Grupo 1019">
                <g id="Grupo_1012" data-name="Grupo 1012">
                  <path id="Trazado_303" data-name="Trazado 303" d="M86.169,65.152H49.8a.791.791,0,0,1-.8-.8V9.8a.791.791,0,0,1,.8-.8H95.263a.791.791,0,0,1,.8.8V55.263a.791.791,0,0,1-.8.8h-8.3v8.3A.791.791,0,0,1,86.169,65.152ZM50.591,63.561H85.374v-8.3a.791.791,0,0,1,.8-.8h8.3V10.591H50.591Z" transform="translate(-49 -9)" fill="#fff"/>
                </g>
                <g id="Grupo_1013" data-name="Grupo 1013" transform="translate(36.371 45.476)">
                  <path id="Trazado_304" data-name="Trazado 304" d="M369.774,419.751a.839.839,0,0,1-.568-.227.8.8,0,0,1,0-1.125l9.093-9.093a.8.8,0,0,1,1.125,1.125l-9.093,9.093A.792.792,0,0,1,369.774,419.751Z" transform="translate(-368.975 -409.075)" fill="#fff"/>
                </g>
                <g id="Grupo_1014" data-name="Grupo 1014" transform="translate(22.734 13.64)">
                  <path id="Trazado_305" data-name="Trazado 305" d="M249.8,139.685a.791.791,0,0,1-.8-.8V129.8a.8.8,0,1,1,1.591,0v9.093A.791.791,0,0,1,249.8,139.685Z" transform="translate(-249 -129)" fill="#fff"/>
                </g>
                <g id="Grupo_1015" data-name="Grupo 1015" transform="translate(27.28 9.093)">
                  <path id="Trazado_306" data-name="Trazado 306" d="M289.8,104.232a.791.791,0,0,1-.8-.8V89.8a.8.8,0,1,1,1.591,0v13.64A.791.791,0,0,1,289.8,104.232Z" transform="translate(-289 -89)" fill="#fff"/>
                </g>
                <g id="Grupo_1016" data-name="Grupo 1016" transform="translate(31.827 4.547)">
                  <path id="Trazado_307" data-name="Trazado 307" d="M329.8,68.778a.791.791,0,0,1-.8-.8V49.8a.8.8,0,1,1,1.591,0V67.983A.791.791,0,0,1,329.8,68.778Z" transform="translate(-329 -49)" fill="#fff"/>
                </g>
                <g id="Grupo_1017" data-name="Grupo 1017" transform="translate(36.374 6.82)">
                  <path id="Trazado_308" data-name="Trazado 308" d="M369.8,86.5a.791.791,0,0,1-.8-.8V69.8a.8.8,0,1,1,1.591,0V85.709A.791.791,0,0,1,369.8,86.5Z" transform="translate(-369 -69)" fill="#fff"/>
                </g>
                <g id="Grupo_1018" data-name="Grupo 1018" transform="translate(40.921 12.503)">
                  <path id="Trazado_309" data-name="Trazado 309" d="M409.8,130.821a.791.791,0,0,1-.8-.8V119.8a.8.8,0,0,1,1.591,0v10.23A.791.791,0,0,1,409.8,130.821Z" transform="translate(-409 -119)" fill="#fff"/>
                </g>
              </g>
              <g id="Grupo_1020" data-name="Grupo 1020" transform="translate(18.187 31.827)">
                <path id="Trazado_310" data-name="Trazado 310" d="M232.529,290.591H209.8a.8.8,0,1,1,0-1.591h22.734a.8.8,0,1,1,0,1.591Z" transform="translate(-209 -289)" fill="#fff"/>
              </g>
              <g id="Grupo_1021" data-name="Grupo 1021" transform="translate(18.187 27.28)">
                <path id="Trazado_311" data-name="Trazado 311" d="M232.529,250.591H209.8a.8.8,0,0,1,0-1.591h22.734a.8.8,0,1,1,0,1.591Z" transform="translate(-209 -249)" fill="#fff"/>
              </g>
              <g id="Grupo_1022" data-name="Grupo 1022" transform="translate(18.187 36.374)">
                <path id="Trazado_312" data-name="Trazado 312" d="M232.529,330.591H209.8a.8.8,0,1,1,0-1.591h22.734a.8.8,0,1,1,0,1.591Z" transform="translate(-209 -329)" fill="#fff"/>
              </g>
              <g id="Grupo_1023" data-name="Grupo 1023" transform="translate(18.187 40.921)">
                <path id="Trazado_313" data-name="Trazado 313" d="M232.529,370.591H209.8a.8.8,0,1,1,0-1.591h22.734a.8.8,0,1,1,0,1.591Z" transform="translate(-209 -369)" fill="#fff"/>
              </g>
              <g id="Grupo_1024" data-name="Grupo 1024" transform="translate(18.187 45.467)">
                <path id="Trazado_314" data-name="Trazado 314" d="M223.436,410.591H209.8a.8.8,0,1,1,0-1.591h13.64a.8.8,0,0,1,0,1.591Z" transform="translate(-209 -409)" fill="#fff"/>
              </g>
              <g id="Grupo_1025" data-name="Grupo 1025" transform="translate(18.187 50.014)">
                <path id="Trazado_315" data-name="Trazado 315" d="M223.436,450.591H209.8a.8.8,0,1,1,0-1.591h13.64a.8.8,0,1,1,0,1.591Z" transform="translate(-209 -449)" fill="#fff"/>
              </g>
              <g id="Grupo_1026" data-name="Grupo 1026" transform="translate(4.547 27.28)">
                <path id="Trazado_316" data-name="Trazado 316" d="M94.342,259.685a5.342,5.342,0,1,1,5.342-5.342A5.351,5.351,0,0,1,94.342,259.685Zm0-9.093a3.751,3.751,0,1,0,3.751,3.751A3.755,3.755,0,0,0,94.342,250.591Z" transform="translate(-89 -249)" fill="#fff"/>
              </g>
              <g id="Grupo_1027" data-name="Grupo 1027" transform="translate(4.547 40.921)">
                <path id="Trazado_317" data-name="Trazado 317" d="M94.342,379.685a5.342,5.342,0,1,1,0-10.685.791.791,0,0,1,.8.8v3.751h3.751a.791.791,0,0,1,.8.8A5.351,5.351,0,0,1,94.342,379.685Zm-.8-9.014a3.754,3.754,0,1,0,4.467,4.467H94.342a.791.791,0,0,1-.8-.8Z" transform="translate(-89 -369)" fill="#fff"/>
              </g>
              <g id="Grupo_1028" data-name="Grupo 1028" transform="translate(9.093 27.28)">
                <path id="Trazado_318" data-name="Trazado 318" d="M134.342,255.138H129.8a.791.791,0,0,1-.8-.8V249.8a.8.8,0,1,1,1.591,0v3.751h3.751a.8.8,0,1,1,0,1.591Z" transform="translate(-129 -249)" fill="#fff"/>
              </g>
            </g>
            <g id="Grupo_1030" data-name="Grupo 1030" transform="translate(6.82 4.547)">
              <path id="Trazado_319" data-name="Trazado 319" d="M114.342,59.685a5.342,5.342,0,1,1,5.342-5.342A5.351,5.351,0,0,1,114.342,59.685Zm0-9.093a3.751,3.751,0,1,0,3.751,3.751A3.755,3.755,0,0,0,114.342,50.591Z" transform="translate(-109 -49)" fill="#fff"/>
            </g>
            <g id="Grupo_1031" data-name="Grupo 1031" transform="translate(4.547 13.64)">
              <path id="Trazado_320" data-name="Trazado 320" d="M103.436,139.685H89.8a.791.791,0,0,1-.8-.8v-4.547A5.351,5.351,0,0,1,94.342,129h4.547a5.351,5.351,0,0,1,5.342,5.342v4.547A.791.791,0,0,1,103.436,139.685Zm-12.845-1.591H102.64v-3.751a3.755,3.755,0,0,0-3.751-3.751H94.342a3.755,3.755,0,0,0-3.751,3.751Z" transform="translate(-89 -129)" fill="#fff"/>
            </g>
          </g>
        </g>
      </g>
    </g>
  </g>
</svg>
