<svg xmlns="http://www.w3.org/2000/svg" xmlns:xlink="http://www.w3.org/1999/xlink" width="112" height="112" viewBox="0 0 112 112">
  <defs>
    <filter id="Elipse_7" x="0" y="0" width="112" height="112" filterUnits="userSpaceOnUse">
      <feOffset dy="3" input="SourceAlpha"/>
      <feGaussianBlur stdDeviation="3" result="blur"/>
      <feFlood flood-opacity="0.161"/>
      <feComposite operator="in" in2="blur"/>
      <feComposite in="SourceGraphic"/>
    </filter>
  </defs>
  <g id="Grupo_1900" data-name="Grupo 1900" transform="translate(16517.75 -5758.5)">
    <g id="Grupo_259" data-name="Grupo 259" transform="translate(-17009.75 4832.5)">
      <g id="Grupo_56" data-name="Grupo 56" transform="translate(501 932)">
        <g transform="matrix(1, 0, 0, 1, -9, -6)" filter="url(#Elipse_7)">
          <circle id="Elipse_7-2" data-name="Elipse 7" cx="47" cy="47" r="47" transform="translate(9 6)" fill="#019f86"/>
        </g>
      </g>
    </g>
    <g id="noun_Doctor_402604" transform="translate(-16502.43 5766.625)">
      <path id="Trazado_46" data-name="Trazado 46" d="M65.346,47.364l-9.821-3.711a1.162,1.162,0,0,0-.365-.884l-4.107-3.863a1.146,1.146,0,0,0-.213-.157,19.917,19.917,0,0,0,3.974-7.393c2.576-.415,4.25-2.6,4.25-5.7A4.041,4.041,0,0,0,57.3,22.192a3.227,3.227,0,0,0-1.634-.5c-.008-2.626-.017-5.5-.017-5.5,0-5.326-8.822-9.82-14.362-9.82-5.411,0-14.362,4.59-14.362,9.817l-.014,5.49a3.248,3.248,0,0,0-1.637.51,4.041,4.041,0,0,0-1.76,3.462c0,3.1,1.675,5.288,4.25,5.7a19.927,19.927,0,0,0,3.973,7.392,1.2,1.2,0,0,0-.214.158l-4.106,3.863a1.165,1.165,0,0,0-.365.884l-9.82,3.711c-2.457.927-6.581,3.277-6.581,8.583v17.2a1.168,1.168,0,0,0,1.168,1.168H70.758a1.168,1.168,0,0,0,1.168-1.168v-17.2C71.927,50.642,67.8,48.291,65.346,47.364ZM55.677,25.377c0-.332,0-.807,0-1.352a.959.959,0,0,1,.368.134,1.755,1.755,0,0,1,.686,1.495,3.52,3.52,0,0,1-1.31,2.988A21.124,21.124,0,0,0,55.677,25.377Zm-29.826.277a1.753,1.753,0,0,1,.685-1.495.94.94,0,0,1,.37-.134l0,1.352a21.173,21.173,0,0,0,.259,3.268A3.515,3.515,0,0,1,25.851,25.654ZM52.983,43.927a13.939,13.939,0,0,1-5.437,6.083A6.725,6.725,0,0,0,44.612,46.6,17.955,17.955,0,0,0,50.5,41.591ZM29.262,16.194c0-3.4,7.387-7.484,12.027-7.484,5.17,0,12.027,4.266,12.027,7.488,0,0,.006,1.66.012,3.607a18.932,18.932,0,0,0-5.716-2.127c.008-.121.018-.241.018-.364a6.341,6.341,0,1,0-12.683,0c0,.12.012.237.018.355a19.052,19.052,0,0,0-5.712,2.109ZM45.3,17.315a4.006,4.006,0,1,1-4.005-4.006A4.011,4.011,0,0,1,45.3,17.315ZM29.239,25.38l.007-2.809a15.964,15.964,0,0,1,6.277-2.63,6.33,6.33,0,0,0,11.528.007,15.815,15.815,0,0,1,6.283,2.66c0,1.15.006,2.175.006,2.77,0,8.474-5.632,15.907-12.053,15.907S29.239,33.851,29.239,25.38Zm2.839,16.213A17.971,17.971,0,0,0,37.966,46.6a6.732,6.732,0,0,0-2.934,3.413A13.928,13.928,0,0,1,29.6,43.928ZM30.269,57.14a1.68,1.68,0,1,1-1.679,1.68A1.683,1.683,0,0,1,30.269,57.14Zm9.852,14.834h-19.7V59.017a1.168,1.168,0,0,0-2.336,0V71.974H12.988V55.947c0-3.705,2.758-5.525,5.07-6.4l9.869-3.729A15.962,15.962,0,0,0,29.1,47.687V55a4.016,4.016,0,1,0,2.336,0V50.256A16.429,16.429,0,0,0,35.293,52.8a1.168,1.168,0,0,0,1.661-.913,4.36,4.36,0,0,1,3.168-3.66V71.974Zm-4.672-30.06a10.855,10.855,0,0,0,11.679,0,20.638,20.638,0,0,1-5.837,3.71A20.633,20.633,0,0,1,35.449,41.914Zm34.142,30.06H64.5V59.017a1.168,1.168,0,1,0-2.336,0V71.974H42.457V48.229a4.359,4.359,0,0,1,3.167,3.659,1.169,1.169,0,0,0,1.662.914,16.388,16.388,0,0,0,3.857-2.547v7.321a6.619,6.619,0,0,0-5.445,6.5v3.78a1.168,1.168,0,0,0,1.168,1.168h1.387a1.168,1.168,0,1,0,0-2.336h-.22V64.078a4.277,4.277,0,0,1,8.553,0V66.69h-.217a1.168,1.168,0,1,0,0,2.336h1.385a1.167,1.167,0,0,0,1.168-1.168v-3.78a6.618,6.618,0,0,0-5.444-6.5V47.687a15.96,15.96,0,0,0,1.174-1.866l9.87,3.729c2.313.873,5.07,2.693,5.07,6.4ZM39.956,17.315a1.335,1.335,0,1,0,1.335-1.335A1.335,1.335,0,0,0,39.956,17.315ZM37.084,35.743a7.642,7.642,0,0,0,8.41,0,1.168,1.168,0,0,0-1.355-1.9,5.33,5.33,0,0,1-5.7,0,1.168,1.168,0,0,0-1.358,1.9Z" transform="translate(0 0)" fill="#fff"/>
    </g>
  </g>
</svg>
