<svg xmlns="http://www.w3.org/2000/svg" xmlns:xlink="http://www.w3.org/1999/xlink" width="112" height="112" viewBox="0 0 112 112">
  <defs>
    <filter id="Elipse_7" x="0" y="0" width="112" height="112" filterUnits="userSpaceOnUse">
      <feOffset dy="3" input="SourceAlpha"/>
      <feGaussianBlur stdDeviation="3" result="blur"/>
      <feFlood flood-opacity="0.161"/>
      <feComposite operator="in" in2="blur"/>
      <feComposite in="SourceGraphic"/>
    </filter>
  </defs>
  <g id="Grupo_1576" data-name="Grupo 1576" transform="translate(16203.375 -5709.874)">
    <g id="Grupo_256" data-name="Grupo 256" transform="translate(-16695.375 4783.874)">
      <g id="Grupo_56" data-name="Grupo 56" transform="translate(501 932)">
        <g transform="matrix(1, 0, 0, 1, -9, -6)" filter="url(#Elipse_7)">
          <circle id="Elipse_7-2" data-name="Elipse 7" cx="47" cy="47" r="47" transform="translate(9 6)" fill="#019f86"/>
        </g>
      </g>
    </g>
    <g id="Grupo_512" data-name="Grupo 512" transform="translate(-15855.146 -8405.848)">
      <g id="Grupo_179" data-name="Grupo 179" transform="translate(-322.3 14143.228)">
        <g id="noun_Hospital_374992" transform="translate(0 0)">
          <path id="Trazado_45" data-name="Trazado 45" d="M65.41,29.252H50.521V13.985a1.033,1.033,0,0,0-1.032-1.032H23.255a1.032,1.032,0,0,0-1.032,1.032V29.252H7.334A1.032,1.032,0,0,0,6.3,30.284V62.907a1.031,1.031,0,0,0,1.032,1.032H65.41a1.031,1.031,0,0,0,1.032-1.032V30.284A1.032,1.032,0,0,0,65.41,29.252ZM22.223,61.875H8.366V31.316H22.223V61.875Zm13.117,0H31.528V54.167H35.34Zm5.878,0H37.4V54.167h3.814Zm7.239,0H43.282v-8.74A1.033,1.033,0,0,0,42.25,52.1H30.5a1.032,1.032,0,0,0-1.032,1.032v8.74H24.288V15.017H48.457Zm15.921,0H50.521V31.316H64.379V61.875ZM28.008,41.44h5.577a1.032,1.032,0,0,0,1.032-1.032V36.964a1.032,1.032,0,0,0-1.032-1.032H28.008a1.033,1.033,0,0,0-1.032,1.032v3.444A1.032,1.032,0,0,0,28.008,41.44ZM29.04,38h3.512v1.38H29.04ZM12.506,41.44h5.577a1.032,1.032,0,0,0,1.032-1.032V36.964a1.032,1.032,0,0,0-1.032-1.032H12.506a1.033,1.033,0,0,0-1.032,1.032v3.444A1.032,1.032,0,0,0,12.506,41.44ZM13.538,38H17.05v1.38H13.538ZM12.506,49.5h5.577a1.031,1.031,0,0,0,1.032-1.032V45.025a1.032,1.032,0,0,0-1.032-1.032H12.506a1.033,1.033,0,0,0-1.032,1.032v3.443A1.031,1.031,0,0,0,12.506,49.5Zm1.032-3.443H17.05v1.379H13.538Zm-1.032,11.5h5.577a1.031,1.031,0,0,0,1.032-1.032V53.086a1.032,1.032,0,0,0-1.032-1.032H12.506a1.033,1.033,0,0,0-1.032,1.032V56.53A1.032,1.032,0,0,0,12.506,57.562Zm1.032-3.443H17.05V55.5H13.538ZM54.661,41.44h5.577a1.032,1.032,0,0,0,1.032-1.032V36.964a1.033,1.033,0,0,0-1.032-1.032H54.661a1.032,1.032,0,0,0-1.032,1.032v3.444A1.032,1.032,0,0,0,54.661,41.44ZM55.693,38h3.512v1.38H55.693ZM54.661,49.5h5.577a1.032,1.032,0,0,0,1.032-1.032V45.025a1.033,1.033,0,0,0-1.032-1.032H54.661a1.032,1.032,0,0,0-1.032,1.032v3.443A1.031,1.031,0,0,0,54.661,49.5Zm1.032-3.443h3.512v1.379H55.693Zm-1.032,11.5h5.577A1.032,1.032,0,0,0,61.27,56.53V53.086a1.033,1.033,0,0,0-1.032-1.032H54.661a1.032,1.032,0,0,0-1.032,1.032V56.53A1.031,1.031,0,0,0,54.661,57.562Zm1.032-3.443h3.512V55.5H55.693ZM38.127,36.964v3.444A1.032,1.032,0,0,0,39.16,41.44h5.577a1.032,1.032,0,0,0,1.032-1.032V36.964a1.033,1.033,0,0,0-1.032-1.032H39.16A1.032,1.032,0,0,0,38.127,36.964ZM40.192,38H43.7v1.38H40.192ZM28.008,49.5h5.577a1.032,1.032,0,0,0,1.032-1.032V45.025a1.032,1.032,0,0,0-1.032-1.032H28.008a1.033,1.033,0,0,0-1.032,1.032V48.47A1.032,1.032,0,0,0,28.008,49.5Zm1.032-3.444h3.512v1.38H29.04Zm15.7-2.064H39.16a1.032,1.032,0,0,0-1.032,1.032V48.47A1.032,1.032,0,0,0,39.16,49.5h5.577a1.033,1.033,0,0,0,1.032-1.032V45.025A1.032,1.032,0,0,0,44.736,43.993ZM43.7,47.437H40.192v-1.38H43.7Z" transform="translate(-6.302 -12.953)" fill="#fff"/>
        </g>
      </g>
      <g id="noun_Helipad_392505" transform="translate(-300.403 14147.644)">
        <path id="Trazado_120" data-name="Trazado 120" d="M16.288,7.758A7.708,7.708,0,1,0,24,15.467,7.717,7.717,0,0,0,16.288,7.758Zm0,14.859a7.15,7.15,0,1,1,7.15-7.15A7.158,7.158,0,0,1,16.288,22.617Zm4.063-11.751H17.622a.279.279,0,0,0-.279.279v2.678H15.233V11.145a.279.279,0,0,0-.279-.279H12.225a.279.279,0,0,0-.279.279v8.644a.279.279,0,0,0,.279.279h2.729a.279.279,0,0,0,.279-.279V17.11h2.109v2.678a.279.279,0,0,0,.279.279h2.729a.279.279,0,0,0,.279-.279V11.145A.279.279,0,0,0,20.351,10.866Zm-.279,8.644H17.9V16.831a.279.279,0,0,0-.279-.279H14.954a.279.279,0,0,0-.279.279v2.678H12.5V11.424h2.171V14.1a.279.279,0,0,0,.279.279h2.667A.279.279,0,0,0,17.9,14.1V11.424h2.171Z" transform="translate(-8.58 -7.758)" fill="#fff" stroke="#fff" stroke-width="1"/>
      </g>
    </g>
  </g>
</svg>
