<svg xmlns="http://www.w3.org/2000/svg" width="28.5" height="27.5" viewBox="0 0 28.5 27.5">
  <g id="Grupo_1580" data-name="Grupo 1580" transform="translate(-311.5 -1137.75)">
    <g id="info" transform="translate(310.836 1136.5)">
      <ellipse id="Elipse_128" data-name="Elipse 128" cx="13" cy="12.5" rx="13" ry="12.5" transform="translate(1.914 2.5)" fill="none" stroke="#0083d6" stroke-linecap="round" stroke-linejoin="round" stroke-width="2.5"/>
    </g>
    <path id="phone-call_3_" data-name="phone-call (3)" d="M10.164,3.489a3.112,3.112,0,0,1,2.458,2.458M10.164,1a5.6,5.6,0,0,1,4.948,4.941m-.622,4.966v1.867a1.245,1.245,0,0,1-1.357,1.245,12.316,12.316,0,0,1-5.371-1.911A12.136,12.136,0,0,1,4.028,8.375a12.316,12.316,0,0,1-1.911-5.4A1.245,1.245,0,0,1,3.355,1.622H5.222a1.245,1.245,0,0,1,1.245,1.07A7.991,7.991,0,0,0,6.9,4.442a1.245,1.245,0,0,1-.28,1.313l-.79.79a9.957,9.957,0,0,0,3.734,3.734l.79-.79a1.245,1.245,0,0,1,1.313-.28,7.991,7.991,0,0,0,1.749.436,1.245,1.245,0,0,1,1.07,1.263Z" transform="translate(316.389 1144.453)" fill="none" stroke="#0083d6" stroke-linecap="round" stroke-linejoin="round" stroke-width="1.5"/>
  </g>
</svg>
