<svg xmlns="http://www.w3.org/2000/svg" width="26" height="26" viewBox="0 0 26 26">
  <g id="Grupo_1583" data-name="Grupo 1583" transform="translate(8635.75 -5845)">
    <g id="Grupo_1184" data-name="Grupo 1184" transform="translate(-8946.75 5379)">
      <g id="Grupo_1182" data-name="Grupo 1182">
        <g id="Grupo_1180" data-name="Grupo 1180" transform="translate(-8 -167)">
          <g id="Grupo_1158" data-name="Grupo 1158">
            <g id="Elipse_129" data-name="Elipse 129" transform="translate(319 633)" fill="none" stroke="#0083d6" stroke-width="2">
              <circle cx="13" cy="13" r="13" stroke="none"/>
              <circle cx="13" cy="13" r="12" fill="none"/>
            </g>
          </g>
        </g>
      </g>
    </g>
    <g id="noun_building_179144" transform="translate(-8631.293 5849)">
      <g id="Grupo_1345" data-name="Grupo 1345" transform="translate(1.5 0.5)">
        <g id="Grupo_1344" data-name="Grupo 1344" transform="translate(2.101 0)">
          <path id="Trazado_363" data-name="Trazado 363" d="M18.342,18.4H8V4.5H18.342Zm-9.7-.646H17.7V5.146H8.646Z" transform="translate(-8 -3.207)" fill="#0083d6" stroke="#0083d6" stroke-width="0.5"/>
          <rect id="Rectángulo_360" data-name="Rectángulo 360" width="7.756" height="0.646" transform="translate(1.293 3.458)" fill="#0083d6" stroke="#0083d6" stroke-width="0.5"/>
          <rect id="Rectángulo_361" data-name="Rectángulo 361" width="7.756" height="0.646" transform="translate(1.293 5.397)" fill="#0083d6" stroke="#0083d6" stroke-width="0.5"/>
          <rect id="Rectángulo_362" data-name="Rectángulo 362" width="7.756" height="0.646" transform="translate(1.293 7.336)" fill="#0083d6" stroke="#0083d6" stroke-width="0.5"/>
          <rect id="Rectángulo_363" data-name="Rectángulo 363" width="7.756" height="0.646" transform="translate(1.293 9.307)" fill="#0083d6" stroke="#0083d6" stroke-width="0.5"/>
          <path id="Trazado_364" data-name="Trazado 364" d="M22.585,39.378H20V35.5h2.585Zm-1.939-.646h1.293V36.146H20.646Z" transform="translate(-16.122 -24.189)" fill="#0083d6" stroke="#0083d6" stroke-width="0.5"/>
          <path id="Trazado_365" data-name="Trazado 365" d="M19.4,2.116h-.646v-.97h-7.11v.97H11V.5h8.4Z" transform="translate(-10.03 -0.5)" fill="#0083d6" stroke="#0083d6" stroke-width="0.5"/>
        </g>
        <rect id="Rectángulo_364" data-name="Rectángulo 364" width="14.543" height="0.646" transform="translate(0 14.543)" fill="#0083d6" stroke="#0083d6" stroke-width="0.5"/>
      </g>
    </g>
  </g>
</svg>
