<svg xmlns="http://www.w3.org/2000/svg" xmlns:xlink="http://www.w3.org/1999/xlink" width="112" height="112" viewBox="0 0 112 112">
  <defs>
    <filter id="Elipse_7" x="0" y="0" width="112" height="112" filterUnits="userSpaceOnUse">
      <feOffset dy="3" input="SourceAlpha"/>
      <feGaussianBlur stdDeviation="3" result="blur"/>
      <feFlood flood-opacity="0.161"/>
      <feComposite operator="in" in2="blur"/>
      <feComposite in="SourceGraphic"/>
    </filter>
  </defs>
  <g id="Grupo_1572" data-name="Grupo 1572" transform="translate(16791.375 -5709.874)">
    <g id="Grupo_243" data-name="Grupo 243" transform="translate(-17283.375 4783.874)">
      <g id="Grupo_56" data-name="Grupo 56" transform="translate(501 932)">
        <g transform="matrix(1, 0, 0, 1, -9, -6)" filter="url(#Elipse_7)">
          <circle id="Elipse_7-2" data-name="Elipse 7" cx="47" cy="47" r="47" transform="translate(9 6)" fill="#019f86"/>
        </g>
      </g>
    </g>
    <g id="noun_Healthcare_3634742" transform="translate(-16769.318 5730.927)">
      <g id="Grupo_508" data-name="Grupo 508" transform="translate(1 4)">
        <rect id="Rectángulo_224" data-name="Rectángulo 224" width="9" height="2" transform="translate(39.886 51)" fill="#fff"/>
        <path id="Trazado_238" data-name="Trazado 238" d="M63.7,35.88H60.51V16.752A4.255,4.255,0,0,0,56.259,12.5H35.006c-.046,0-.088.012-.134.014A10.071,10.071,0,0,0,18,6.753,10.08,10.08,0,0,0,1,14.08,18.734,18.734,0,0,0,9.02,29.309l2.507,1.839c1.322.915,4.832,2.657,6.476,2.607a8.132,8.132,0,0,0,4.478-1.4l4.627-3.2a18.365,18.365,0,0,0,3.647-3.376v8.169a7.5,7.5,0,0,0-1.645-.19,7.642,7.642,0,0,0-3.4.8l-6.744,3.372L7.376,34.452V55.374L19,51.887l1.224.525a31.972,31.972,0,0,0,10.529,2.52v2.2a4.255,4.255,0,0,0,4.251,4.251H56.259a4.255,4.255,0,0,0,4.251-4.251V54.813a3.159,3.159,0,0,0,1.3-5.118,3.139,3.139,0,0,0,0-4.251,3.09,3.09,0,0,0,.633-3.188H63.7a3.188,3.188,0,0,0,0-6.376ZM41.382,14.627h6.376v2.125H41.382Zm-2.125,0v2.125a2.128,2.128,0,0,0,2.125,2.125h6.376a2.128,2.128,0,0,0,2.125-2.125V14.627h6.376a2.128,2.128,0,0,1,2.125,2.125V21H32.88V16.752a2.128,2.128,0,0,1,2.125-2.125ZM24.545,28.143l-3.354,2.291c-3.62,1.3-5.762.382-8.535-1.345L10.107,27.4C5.882,23.693,3.125,19.4,3.125,14.08A7.955,7.955,0,0,1,16.7,8.455l1.3,1.3,1.3-1.3a7.951,7.951,0,0,1,13.516,4.672,4.239,4.239,0,0,0-2.063,3.626v2.125H25.181L22.4,9.154,16.953,23.323,15.006,18.13a2.136,2.136,0,0,0-1.99-1.378H11.431a3.188,3.188,0,1,0,0,2.125h1.584l3.913,10.431L22.1,15.849l1.032,3.611A2.133,2.133,0,0,0,25.18,21h5.575v1.051C29.556,24.169,26.546,26.758,24.545,28.143ZM9.5,17.815a1.063,1.063,0,1,1-1.063-1.063A1.064,1.064,0,0,1,9.5,17.815ZM32.88,23.128h25.5v17H57.322a3.174,3.174,0,0,0-2.359,5.313,3.139,3.139,0,0,0,0,4.251,3.158,3.158,0,0,0-.633,1.063H32.88V45.784a4.053,4.053,0,0,0,5.487-5.854,2.1,2.1,0,0,0,.889.2h2.125v2.125a2.128,2.128,0,0,0,2.125,2.125h4.251a2.128,2.128,0,0,0,2.125-2.125V40.131h2.125a2.127,2.127,0,0,0,2.125-2.125V33.755a2.127,2.127,0,0,0-2.125-2.125H49.883V29.5a2.128,2.128,0,0,0-2.125-2.125H43.507A2.128,2.128,0,0,0,41.382,29.5V31.63H39.257a2.127,2.127,0,0,0-2.125,2.125v4.251a2.107,2.107,0,0,0,.151.774l-2.8-2.8a7.571,7.571,0,0,0-1.6-1.213V23.128ZM60.51,47.57a1.063,1.063,0,0,1-1.063,1.063H57.322a1.063,1.063,0,0,1,0-2.125h2.125A1.063,1.063,0,0,1,60.51,47.57Zm-8.5-13.815v4.251H47.758v4.251H43.507V38.006H39.257V33.755h4.251V29.5h4.251v4.251ZM9.5,37.309l8.5,2.55V49.967l-8.5,2.55Zm11.561,13.15-.934-.4V39.725l6.533-3.267a5.61,5.61,0,0,1,6.319,1.025l3.581,3.581a1.943,1.943,0,0,1-2.747,2.748l-2.748-2.748a3.169,3.169,0,0,0-2.254-.934H26.5v2.125h2.308a1.066,1.066,0,0,1,.751.311l1.191,1.191V52.8A29.9,29.9,0,0,1,21.062,50.458Zm35.2,8.8H35.006a2.127,2.127,0,0,1-2.125-2.125V52.883H54.33a3.184,3.184,0,0,0,2.993,2.125h1.063v2.125A2.127,2.127,0,0,1,56.259,59.259Zm3.188-6.376H57.322a1.063,1.063,0,0,1,0-2.125h2.125a1.063,1.063,0,1,1,0,2.125Zm1.063-9.564a1.063,1.063,0,0,1-1.063,1.063H57.322a1.063,1.063,0,0,1,0-2.125h2.125A1.063,1.063,0,0,1,60.51,43.319ZM63.7,40.131H60.51V38.006H63.7a1.063,1.063,0,0,1,0,2.125Z" transform="translate(-1 -4)" fill="#fff"/>
      </g>
    </g>
  </g>
</svg>
