<svg xmlns="http://www.w3.org/2000/svg" width="26" height="26" viewBox="0 0 26 26">
  <g id="Grupo_1836" data-name="Grupo 1836" transform="translate(-311 -466)">
    <g id="Grupo_1183" data-name="Grupo 1183">
      <g id="Grupo_1182" data-name="Grupo 1182">
        <g id="Grupo_1180" data-name="Grupo 1180" transform="translate(-8 -167)">
          <g id="Grupo_1158" data-name="Grupo 1158">
            <g id="Elipse_129" data-name="Elipse 129" transform="translate(319 633)" fill="none" stroke="#0083d6" stroke-width="2">
              <circle cx="13" cy="13" r="13" stroke="none"/>
              <circle cx="13" cy="13" r="12" fill="none"/>
            </g>
          </g>
        </g>
      </g>
    </g>
    <g id="noun_Doctor_402604" transform="translate(305.825 462.69)">
      <path id="Trazado_46" data-name="Trazado 46" d="M24.621,16.845,22.113,15.9a.3.3,0,0,0-.093-.226l-1.049-.987a.293.293,0,0,0-.054-.04,5.087,5.087,0,0,0,1.015-1.888A1.345,1.345,0,0,0,23.017,11.3a1.032,1.032,0,0,0-.45-.884.824.824,0,0,0-.417-.127c0-.671,0-1.4,0-1.4,0-1.36-2.253-2.508-3.668-2.508-1.382,0-3.668,1.172-3.668,2.507l0,1.4a.83.83,0,0,0-.418.13,1.032,1.032,0,0,0-.45.884,1.345,1.345,0,0,0,1.085,1.457,5.09,5.09,0,0,0,1.015,1.888.306.306,0,0,0-.055.04l-1.049.987a.3.3,0,0,0-.093.226l-2.508.948a2.346,2.346,0,0,0-1.681,2.192v4.392a.3.3,0,0,0,.3.3H26a.3.3,0,0,0,.3-.3V19.037A2.346,2.346,0,0,0,24.621,16.845Zm-2.47-5.616c0-.085,0-.206,0-.345a.245.245,0,0,1,.094.034.448.448,0,0,1,.175.382.9.9,0,0,1-.335.763A5.4,5.4,0,0,0,22.152,11.228Zm-7.618.071a.448.448,0,0,1,.175-.382.24.24,0,0,1,.094-.034v.345a5.408,5.408,0,0,0,.066.835A.9.9,0,0,1,14.533,11.3Zm6.93,4.667a3.56,3.56,0,0,1-1.389,1.554,1.718,1.718,0,0,0-.749-.872,4.586,4.586,0,0,0,1.5-1.279ZM15.4,8.883c0-.868,1.887-1.912,3.072-1.912,1.321,0,3.072,1.09,3.072,1.913,0,0,0,.424,0,.921a4.836,4.836,0,0,0-1.46-.543c0-.031,0-.061,0-.093a1.62,1.62,0,1,0-3.24,0c0,.031,0,.06,0,.091A4.866,4.866,0,0,0,15.4,9.8Zm4.1.286a1.023,1.023,0,1,1-1.023-1.023A1.024,1.024,0,0,1,19.5,9.169Zm-4.1,2.06,0-.718A4.077,4.077,0,0,1,17,9.84a1.617,1.617,0,0,0,2.945,0,4.039,4.039,0,0,1,1.6.679c0,.294,0,.555,0,.708,0,2.164-1.438,4.063-3.079,4.063S15.4,13.393,15.4,11.229Zm.725,4.141a4.59,4.59,0,0,0,1.5,1.279,1.719,1.719,0,0,0-.749.872,3.557,3.557,0,0,1-1.389-1.554Zm-.462,3.971a.429.429,0,1,1-.429.429A.43.43,0,0,1,15.662,19.342Zm2.516,3.789H13.146v-3.31a.3.3,0,1,0-.6,0v3.31h-1.3V19.037a1.753,1.753,0,0,1,1.3-1.634l2.521-.952a4.077,4.077,0,0,0,.3.477v1.867a1.026,1.026,0,1,0,.6,0V17.583a4.2,4.2,0,0,0,.985.65A.3.3,0,0,0,17.369,18a1.114,1.114,0,0,1,.809-.935V23.13Zm-1.193-7.678a2.773,2.773,0,0,0,2.983,0,5.271,5.271,0,0,1-1.491.948A5.27,5.27,0,0,1,16.985,15.453Zm8.721,7.678H24.4v-3.31a.3.3,0,1,0-.6,0v3.31H18.775V17.065a1.113,1.113,0,0,1,.809.935.3.3,0,0,0,.424.233,4.186,4.186,0,0,0,.985-.651v1.87A1.691,1.691,0,0,0,19.6,21.114v.966a.3.3,0,0,0,.3.3h.354a.3.3,0,0,0,0-.6H20.2v-.667a1.092,1.092,0,0,1,2.185,0v.667h-.055a.3.3,0,0,0,0,.6h.354a.3.3,0,0,0,.3-.3v-.966a1.69,1.69,0,0,0-1.391-1.661V16.927a4.076,4.076,0,0,0,.3-.477l2.521.952a1.753,1.753,0,0,1,1.3,1.634ZM18.136,9.169a.341.341,0,1,0,.341-.341A.341.341,0,0,0,18.136,9.169ZM17.4,13.876a1.952,1.952,0,0,0,2.148,0,.3.3,0,0,0-.346-.486,1.361,1.361,0,0,1-1.455,0,.3.3,0,0,0-.347.486Z" fill="#0083d6" stroke="#0083d6" stroke-width="0.2"/>
    </g>
  </g>
</svg>
