<svg xmlns="http://www.w3.org/2000/svg" width="26" height="26" viewBox="0 0 26 26">
  <g id="Grupo_1169" data-name="Grupo 1169" transform="translate(-311 -2078)">
    <g id="Grupo_1168" data-name="Grupo 1168" transform="translate(1 597)">
      <g id="Grupo_1165" data-name="Grupo 1165" transform="translate(0 595.5)">
        <g id="Grupo_1163" data-name="Grupo 1163" transform="translate(-3 420.5)">
          <g id="Grupo_1160" data-name="Grupo 1160" transform="translate(-6 -168)">
            <g id="Grupo_1158" data-name="Grupo 1158">
              <g id="Elipse_129" data-name="Elipse 129" transform="translate(319 633)" fill="none" stroke="#0083d6" stroke-width="2">
                <circle cx="13" cy="13" r="13" stroke="none"/>
                <circle cx="13" cy="13" r="12" fill="none"/>
              </g>
            </g>
          </g>
        </g>
      </g>
    </g>
    <g id="noun_hand_shake_3880643" data-name="noun_hand shake_3880643" transform="translate(313.035 2064.717)">
      <path id="Trazado_335" data-name="Trazado 335" d="M20.417,28.421,18.049,21.9a.2.2,0,0,0-.25-.117L15.021,22.8a.2.2,0,0,0-.116.25l.114.313-.927.208c-.435-.206-2.924-1.32-4.258-.571h0a2.82,2.82,0,0,0-.456.3,7.092,7.092,0,0,0-2.422-.054l.07-.193a.2.2,0,0,0-.117-.25L4.129,21.787a.2.2,0,0,0-.25.117L1.512,28.421a.2.2,0,0,0,.117.25L4.407,29.68a.191.191,0,0,0,.067.012.193.193,0,0,0,.083-.018.2.2,0,0,0,.1-.11l.163-.449a38.786,38.786,0,0,0,5.47,3.53.2.2,0,0,0,.054.017,1.008,1.008,0,0,0,.488.129,1.029,1.029,0,0,0,.214-.023,1.012,1.012,0,0,0,.8-1.113l.545.349h0a1,1,0,0,0,.544.161,1.017,1.017,0,0,0,.212-.022,1.006,1.006,0,0,0,.773-1.193v0a1,1,0,0,0,.352-.013,1.02,1.02,0,0,0,.775-1.251,1,1,0,0,0,.106.008,1.023,1.023,0,0,0,.215-.023,1.012,1.012,0,0,0,.591-.377l1.118-.266.2.537a.195.195,0,0,0,.25.117L20.3,28.671A.2.2,0,0,0,20.417,28.421Zm-16.06.826-2.412-.876L4.179,22.22l2.411.876Zm10.929.041a.632.632,0,0,1-.477-.088h0l-.193-.124h0l-1.978-1.267a.2.2,0,0,0-.21.329L14.4,29.4a.635.635,0,0,1,.186.877.632.632,0,0,1-.867.192l-.006-.006-2.189-1.4a.2.2,0,1,0-.21.329l1.955,1.252h0a.615.615,0,0,1-.669,1.031h0L10.452,30.3a.2.2,0,1,0-.21.329l.9.577a.184.184,0,0,0,.036.035.631.631,0,1,1-.687,1.058.194.194,0,0,0-.077-.028A38.836,38.836,0,0,1,4.96,28.73L6.8,23.665a6.365,6.365,0,0,1,2.2-.04,3.565,3.565,0,0,0-.956,1.856h0s0,0,0,.006l0,.009h0a.9.9,0,0,0,.589,1.116.93.93,0,0,0,.278.042,1.325,1.325,0,0,0,1.183-1v0c.153-.356.69-.417.86-.428l4.543,2.91h0a.635.635,0,0,1-.213,1.153Zm.877-.445a1.021,1.021,0,0,0-.451-1.035h0l-4.6-2.944a.144.144,0,0,0-.015-.006.19.19,0,0,0-.036-.014.18.18,0,0,0-.039-.008c-.005,0-.01,0-.015,0-.04,0-.989.008-1.272.667,0,0,0,0,0,.005l0,0c-.236.643-.663.83-.982.73a.508.508,0,0,1-.325-.659s0,0,0-.007,0,0,0-.008A3.206,3.206,0,0,1,10,23.348l.006,0,.007,0c1.251-.717,3.941.592,3.968.606l.009,0a.192.192,0,0,0,.077.018.207.207,0,0,0,.043,0l1.042-.234,1.791,4.929Zm1.41.4L15.338,23.1l2.411-.876,2.234,6.151Z" fill="#0083d6" stroke="#0083d6" stroke-width="0.8"/>
    </g>
  </g>
</svg>
