<svg xmlns="http://www.w3.org/2000/svg" width="26" height="26" viewBox="0 0 26 26">
  <g id="Grupo_1341" data-name="Grupo 1341" transform="translate(-313 -465)">
    <g id="Grupo_1160" data-name="Grupo 1160" transform="translate(-6 -168)">
      <g id="Grupo_1158" data-name="Grupo 1158">
        <g id="Elipse_129" data-name="Elipse 129" transform="translate(319 633)" fill="none" stroke="#0083d6" stroke-width="2">
          <circle cx="13" cy="13" r="13" stroke="none"/>
          <circle cx="13" cy="13" r="12" fill="none"/>
        </g>
      </g>
    </g>
    <g id="users_1_" data-name="users (1)" transform="translate(317.121 468)">
      <path id="Trazado_358" data-name="Trazado 358" d="M12.333,19.25V17.833A2.833,2.833,0,0,0,9.5,15H3.833A2.833,2.833,0,0,0,1,17.833V19.25" transform="translate(0 -3.5)" fill="none" stroke="#0083d6" stroke-linecap="round" stroke-linejoin="round" stroke-width="1.5"/>
      <circle id="Elipse_142" data-name="Elipse 142" cx="3" cy="3" r="3" transform="translate(3.88 3)" fill="none" stroke="#0083d6" stroke-linecap="round" stroke-linejoin="round" stroke-width="1.5"/>
      <path id="Trazado_359" data-name="Trazado 359" d="M22.125,19.288V17.871A2.833,2.833,0,0,0,20,15.13" transform="translate(-5.542 -3.538)" fill="none" stroke="#0083d6" stroke-linecap="round" stroke-linejoin="round" stroke-width="1.5"/>
      <path id="Trazado_360" data-name="Trazado 360" d="M16,3.13a2.833,2.833,0,0,1,0,5.49" transform="translate(-4.375 -0.038)" fill="none" stroke="#0083d6" stroke-linecap="round" stroke-linejoin="round" stroke-width="1.5"/>
    </g>
  </g>
</svg>
