<svg xmlns="http://www.w3.org/2000/svg" width="29" height="29" viewBox="0 0 29 29">
  <g id="Grupo_1596" data-name="Grupo 1596" transform="translate(16659.326 8928.5)">
    <g id="Grupo_808" data-name="Grupo 808" transform="translate(-17203 -9100)">
      <g id="Grupo_504" data-name="Grupo 504" transform="translate(-151.576 -76)">
        <g id="Grupo_502" data-name="Grupo 502" transform="translate(10.25 -170.5)">
          <g id="Elipse_23" data-name="Elipse 23" transform="translate(685 418)" fill="none" stroke="#019f86" stroke-width="1.5">
            <circle cx="14.5" cy="14.5" r="14.5" stroke="none"/>
            <circle cx="14.5" cy="14.5" r="13.75" fill="none"/>
          </g>
        </g>
      </g>
    </g>
    <path id="phone-call_2_" data-name="phone-call (2)" d="M11.507,3.9a3.631,3.631,0,0,1,2.868,2.868M11.507,1a6.535,6.535,0,0,1,5.773,5.765m-.726,5.794v2.178a1.452,1.452,0,0,1-1.583,1.452A14.37,14.37,0,0,1,8.7,13.961,14.159,14.159,0,0,1,4.347,9.6a14.37,14.37,0,0,1-2.229-6.3A1.452,1.452,0,0,1,3.563,1.726H5.741A1.452,1.452,0,0,1,7.193,2.975,9.323,9.323,0,0,0,7.7,5.015a1.452,1.452,0,0,1-.327,1.532l-.922.922a11.618,11.618,0,0,0,4.357,4.357l.922-.922a1.452,1.452,0,0,1,1.532-.327,9.323,9.323,0,0,0,2.04.508A1.452,1.452,0,0,1,16.553,12.56Z" transform="translate(-16654.613 -8922.5)" fill="none" stroke="#019f86" stroke-linecap="round" stroke-linejoin="round" stroke-width="1.5"/>
  </g>
</svg>
