<svg id="Capa_1" data-name="Capa 1" xmlns="http://www.w3.org/2000/svg" viewBox="0 0 60 39"><defs><style>.cls-1{fill:#fc0;}.cls-2{fill:red;}</style></defs><title>Mesa de trabajo 1</title><path d="M0,12.93Q0,7,0,1A1.06,1.06,0,0,1,1.07-.16a3.69,3.69,0,0,1,.47,0H58.45A1.7,1.7,0,0,1,60,.51V12.94Z"/><path class="cls-1" d="M60,38.48a1.7,1.7,0,0,1-1.57.7H1.54C.34,39.17,0,38.83,0,37.65c0-3.86,0-7.73,0-11.6H60Z"/><path class="cls-2" d="M60,26.06H0c0-3.37,0-6.75,0-10.13C0,15,0,14,0,13.05H60Z"/><path d="M60,13.05H0v-.12H60Z"/></svg>