<svg id="Capa_1" data-name="Capa 1" xmlns="http://www.w3.org/2000/svg" viewBox="0 0 60 39"><defs><style>.cls-1{fill:#fff;}.cls-2{fill:#ed2939;}.cls-3{fill:#002395;}</style></defs><title>Mesa de trabajo 1 copia 5</title><rect class="cls-1" width="60" height="39"/><path class="cls-2" d="M60,38.49a1.7,1.7,0,0,1-1.56.69q-8.89,0-17.81,0c-.5,0-.66-.11-.66-.64q0-19,0-38.08c0-.53.16-.64.66-.64q8.91,0,17.81,0A1.67,1.67,0,0,1,60,.52Z"/><path class="cls-3" d="M20,19.49c0,6.35,0,12.7,0,19,0,.51-.13.65-.65.65-5.95,0-11.91,0-17.86,0C.35,39.17,0,38.81,0,37.7V1.32C0,.17.34-.16,1.51-.16c5.94,0,11.87,0,17.81,0,.57,0,.66.19.66.69C20,6.84,20,13.17,20,19.49Z"/></svg>