<svg id="Capa_1" data-name="Capa 1" xmlns="http://www.w3.org/2000/svg" viewBox="0 0 60 39"><defs><style>.cls-1{fill:red;}.cls-2{fill:#fadc09;}</style></defs><title>Mesa de trabajo 1 copia 7</title><path class="cls-1" d="M60,4.31c0,1.45,0,2.89,0,4.34H0V4.31H60Z"/><path class="cls-2" d="M0,8.65H60V13H0Z"/><path class="cls-1" d="M0,13H60v4.33H0Z"/><path class="cls-2" d="M0,17.31H60c0,1.45,0,2.89,0,4.34H0Z"/><path class="cls-2" d="M0,30.31V26H60v4.33H0Z"/><path class="cls-1" d="M0,30.31H60v4.34H0Z"/><path class="cls-2" d="M0,34.65H60c0,1.36,0,2.72,0,4.08,0,.2-.07.29-.27.26a1.34,1.34,0,0,0-.2,0H.42C.07,39,0,38.9,0,38.58,0,37.27,0,36,0,34.65Z"/><path class="cls-2" d="M60,4.31H0C0,3,0,1.61,0,.27,0,.07.06,0,.27,0h59.2C60,0,60,0,60,.53,60,1.79,60,3.05,60,4.31Z"/><path class="cls-1" d="M60,26H0V21.65H60Z"/></svg>