<svg id="Capa_1" data-name="Capa 1" xmlns="http://www.w3.org/2000/svg" viewBox="0 0 60 39"><defs><style>.cls-1,.cls-8{fill:#fabd00;}.cls-2{fill:#ad1519;}.cls-3{fill:#c8424b;}.cls-10,.cls-11,.cls-12,.cls-13,.cls-14,.cls-15,.cls-3,.cls-4,.cls-5,.cls-6,.cls-7,.cls-8,.cls-9{stroke:#000;stroke-miterlimit:10;stroke-width:0.08px;}.cls-4{fill:#f3f2f2;}.cls-5{fill:#c9464c;}.cls-6{fill:#c8444c;}.cls-7{fill:#f4f2ee;}.cls-9{fill:#f4f2f0;}.cls-10{fill:#ca484b;}.cls-11{fill:#596aa4;}.cls-12{fill:#f8b348;}.cls-13{fill:#5264a8;}.cls-14{fill:#fea1d2;}.cls-15{fill:#fed150;}</style></defs><title>Mesa de trabajo 1 copia</title><path class="cls-1" d="M60,8.13c0,1.2,0,2.41,0,3.62V30.17c0,.24,0,.47,0,.71H0V8.13H60ZM26,16.45c.08-.26.16-.52.22-.78a.64.64,0,0,0-.62-.84c-.95-.11-1.25.23-1,1.16l.09.45h-.28c-.28,0-.57-.08-.59.39s.15.59.54.59l0,2.05-1.52,0c0-.65,0-1.29,0-1.93a1.05,1.05,0,0,0-1.07-1.19c-.3,0-.62,0-.93,0l0-1,.93-.9a1.43,1.43,0,0,0,.49-1.7,1.52,1.52,0,0,0-1.55-1,.67.67,0,0,1-.7-.35,1.42,1.42,0,0,0-1.76-.61c-.07-.35-.16-.63-.65-.58s-.33.37-.39.62a1.36,1.36,0,0,0-1.77.52.75.75,0,0,1-.8.4,1.55,1.55,0,0,0-1.5,1,1.45,1.45,0,0,0,.5,1.71l1,.94c0,.9,0,.9-.91.93-.13,0-.27,0-.37.11-.85.23-.83.91-.83,1.59,0,1.53,0,1.53-1.54,1.45v-2c.13-.19.46-.08.5-.47.06-.79-.48-.56-.88-.61l.18-.79a.58.58,0,0,0-.52-.8c-.91-.17-1.51.22-1.15,1.08a2.36,2.36,0,0,1,.08.4c-.23.22-.78-.09-.8.53,0,.41.2.52.49.64v2c-.4,0-.51.15-.5.54s.09.58.5.55v1.84a1.79,1.79,0,0,0-.32.13c-.35.23-.19.6-.15.89s.3,0,.46.07c0,.73,0,1.47,0,2.2-.38,0-.53.12-.48.5a4.51,4.51,0,0,1,0,.52c-.5,0-.6.2-.59.66s.34.41.63.41c1,0,2,0,3,0,.27,0,.59.11.59-.39s0-.74-.56-.68a4.51,4.51,0,0,1,0-.52c.05-.4-.14-.53-.5-.5V22.8a3.09,3.09,0,0,0,.32-.14c.36-.23.19-.6.15-.89s-.3,0-.46-.06V20.57l.58,0c.95,0,.95,0,1,.94s0,1.64,0,2.45a2.81,2.81,0,0,0,1,2.25l.05.22c.07.17.2.16.34.12h0c0,.33.28.38.49.49a7.15,7.15,0,0,0,4.85.6,3.73,3.73,0,0,0,2.39-1.18,3.19,3.19,0,0,0,1.19-2.75c-.06-.69,0-1.4,0-2.09,0-.35,0-.7,0-1.05l1.52,0V21.7c-.34-.13-.51-.1-.52.35s.13.65.52.75a16.86,16.86,0,0,0,.09,2.93l-.12,1a2.37,2.37,0,0,1-.53,0c-.41,0-.49.14-.48.5s0,.58.5.57c.89,0,1.79,0,2.68,0s1,0,1-1,0-1.05-1-1.06h-.05l0-2.21c.38.13.57.1.57-.41s-.24-.59-.59-.69V20.57c.39,0,.58-.08.58-.55s-.19-.57-.58-.54a15.79,15.79,0,0,0-.05-2.06c.34,0,.63-.09.62-.51s-.31-.49-.65-.46C26.19,16.46,26.09,16.45,26,16.45Z"/><path class="cls-2" d="M60,8.13H0V.52A1.68,1.68,0,0,1,1.56-.17H58.44c1.25,0,1.56.3,1.56,1.55C60,3.64,60,5.88,60,8.13Z"/><path class="cls-2" d="M0,30.87H60c0,2.38,0,4.76,0,7.14a1.06,1.06,0,0,1-1.08,1.14c-.15,0-.31,0-.47,0H1.56A1.68,1.68,0,0,1,0,38.48Z"/><path class="cls-3" d="M10.88,19.48c1.54.08,1.54.08,1.54-1.45,0-.68,0-1.36.83-1.59l4.33,0V20a3.05,3.05,0,0,0-1,.4c-.15-.27.17-.66-.24-.88a.6.6,0,0,1,0-1.05c.36-.2.16-.52.19-.78s-.21-.27-.41-.27H13.89c-.2,0-.44,0-.41.27s-.17.58.19.78a.6.6,0,0,1,0,1.05c-.38.21-.17.55-.18.83s.28.22.45.22H16.4a1.85,1.85,0,0,0-.37.93h-3.6c0-.94,0-.94-1-.94l-.58,0H8.79c-.41,0-.5-.16-.5-.55s.1-.57.5-.54Z"/><path class="cls-4" d="M17.58,20V16.46c1.05-.06,2.11.05,3.16-.1.31,0,.63,0,.93,0a1.05,1.05,0,0,1,1.07,1.19c0,.64,0,1.28,0,1.93v1l0,1.05H19.14A1.68,1.68,0,0,0,17.58,20Zm3.62-1a5.61,5.61,0,0,0,0-.58,1.08,1.08,0,0,0-1-1,1.06,1.06,0,0,0-1,.83,2.32,2.32,0,0,0-.07.69c0,1,.36,1.57,1.08,1.58S21.21,20,21.2,19Z"/><path class="cls-5" d="M21.65,14.46l-.93.9-6.19,0-1-.94c0-.42.44-.51.57-.81L14.9,13l1.18-.55.92-.16.11-.07H18l.12.06.93.16,1.18.56.8.61C21.21,14,21.67,14,21.65,14.46Zm-2,.36a.45.45,0,0,0,.47-.5.42.42,0,0,0-.47-.46.44.44,0,0,0-.51.49A.46.46,0,0,0,19.67,14.82ZM16,14.31a.47.47,0,0,0-.5-.45.45.45,0,0,0-.51.49.44.44,0,0,0,.48.46C15.84,14.83,16,14.61,16,14.31Zm1.58.51c.26,0,.45-.16.45-.48s-.18-.49-.51-.48a.4.4,0,0,0-.44.48C17.12,14.64,17.3,14.79,17.61,14.82Z"/><path class="cls-6" d="M19.14,21.58h3.59c0,.69,0,1.4,0,2.09a3.19,3.19,0,0,1-1.19,2.75c-.11,0-.22,0-.33.08a2.56,2.56,0,0,1-3.58-1.87,8.31,8.31,0,0,1-.07-1.49,2.69,2.69,0,0,0,1-.39c0,.52,0,1,0,1.57a1.59,1.59,0,0,0,1.61,1.38,1.55,1.55,0,0,0,1.44-1.42c0-.41,0-.82,0-1.23s-.11-.51-.49-.5c-.8,0-1.6,0-2.39,0A2.32,2.32,0,0,0,19.14,21.58Z"/><path class="cls-7" d="M17.65,24.64a2.56,2.56,0,0,0,3.58,1.87c.11,0,.22-.05.33-.08a3.73,3.73,0,0,1-2.39,1.18,7.15,7.15,0,0,1-4.85-.6c-.21-.11-.49-.16-.49-.49l.68.13a1.38,1.38,0,0,0,1,0,1.63,1.63,0,0,0,1.06-.46C17.16,25.84,17.3,25.17,17.65,24.64Z"/><path class="cls-8" d="M14.53,15.4l6.19,0c0,.34,0,.67,0,1-1,.15-2.11,0-3.16.1l-4.33,0c.1-.12.24-.1.37-.11C14.53,16.3,14.53,16.3,14.53,15.4Z"/><path class="cls-7" d="M14.09,13.65c-.13.3-.59.39-.57.81a1.45,1.45,0,0,1-.5-1.71,1.55,1.55,0,0,1,1.5-1,.75.75,0,0,0,.8-.4,1.36,1.36,0,0,1,1.77-.52c0,.35,0,.69,0,1-.87-.19-1-.11-1,.6L14.9,13a.49.49,0,0,0-.75-.1C13.89,13.13,13.93,13.39,14.09,13.65Z"/><path class="cls-7" d="M21.65,14.46c0-.42-.44-.51-.58-.82.17-.25.21-.51-.05-.71a.49.49,0,0,0-.75.1l-1.18-.56c0-.72-.2-.82-1-.54l.05-1.12a1.42,1.42,0,0,1,1.76.61.67.67,0,0,0,.7.35,1.52,1.52,0,0,1,1.55,1A1.43,1.43,0,0,1,21.65,14.46Z"/><path class="cls-7" d="M24.38,25.73a16.86,16.86,0,0,1-.09-2.93,15.54,15.54,0,0,1,2.09.7l0,2.21Z"/><path class="cls-9" d="M10.87,22.8v2.9H8.8c0-.73,0-1.47,0-2.2Z"/><path class="cls-10" d="M14.51,26.65l-.68-.13h0c-.06-.17-.22-.09-.34-.12a2.25,2.25,0,0,1-.05-.22c0-1.56,0-3.13,0-4.69h1.08Z"/><path class="cls-9" d="M26.32,17.42a15.79,15.79,0,0,1,.05,2.06H24.29l0-2.05Z"/><path class="cls-5" d="M24.29,19.48h2.08c.39,0,.58.07.58.54s-.19.58-.58.55H24.29l-1.52,0v-1Z"/><path class="cls-11" d="M11.37,26.72c.54-.06.56.26.56.68s-.32.39-.59.39c-1,0-2,0-3,0-.29,0-.63.12-.63-.41s.09-.71.59-.66Z"/><path class="cls-11" d="M27.42,26.77c0,1,0,1-1,1s-1.79,0-2.68,0c-.46,0-.5-.21-.5-.57s.07-.55.48-.5a2.37,2.37,0,0,0,.53,0Z"/><path class="cls-8" d="M13.46,21.5c0,1.56,0,3.13,0,4.69a2.81,2.81,0,0,1-1-2.25c0-.81,0-1.63,0-2.45Z"/><path class="cls-9" d="M10.88,19.48H8.79v-2l.62-.05a2.12,2.12,0,0,0,.87,0l.61.07Z"/><path class="cls-10" d="M26.38,23.5a15.54,15.54,0,0,0-2.09-.7c-.39-.1-.52-.33-.52-.75s.18-.48.52-.35l2.07.7c.35.1.6.21.59.69S26.76,23.63,26.38,23.5Z"/><path class="cls-8" d="M27.42,26.77l-3.16-.05.12-1,2,0h.05C27.43,25.72,27.43,25.72,27.42,26.77Z"/><path class="cls-7" d="M8.79,20.57h2.09v1.14l-2.08.7Z"/><path class="cls-8" d="M11.37,26.72h-3a4.51,4.51,0,0,0,0-.52c-.05-.38.1-.54.48-.5h2.07c.36,0,.55.1.5.5A4.51,4.51,0,0,0,11.37,26.72Z"/><path class="cls-9" d="M26.36,22.4l-2.07-.7V20.57h2.08C26.37,21.18,26.36,21.79,26.36,22.4Z"/><path class="cls-6" d="M8.8,22.41l2.08-.7c.16,0,.43-.25.46.06s.21.66-.15.89a3.09,3.09,0,0,1-.32.14l-2.08.7c-.16-.08-.42.25-.46-.07s-.2-.66.15-.89A1.79,1.79,0,0,1,8.8,22.41Z"/><path class="cls-8" d="M10.89,17.52l-.61-.07a1.44,1.44,0,0,0-.87,0l-.62.05c-.29-.12-.5-.23-.49-.64,0-.62.57-.31.8-.53.45.23.94.05,1.41.11s.94-.18.88.61C11.35,17.44,11,17.33,10.89,17.52Z"/><path class="cls-8" d="M26.32,17.42h-2c-.39,0-.57-.15-.54-.59s.31-.38.59-.39H26c.1,0,.2,0,.3,0,.34,0,.64,0,.65.46S26.66,17.41,26.32,17.42Z"/><path class="cls-10" d="M10.51,16.44c-.47-.06-1,.12-1.41-.11a2.36,2.36,0,0,0-.08-.4c-.36-.86.24-1.25,1.15-1.08a.58.58,0,0,1,.52.8Z"/><path class="cls-10" d="M26,16.45H24.65L24.56,16c-.22-.93.08-1.27,1-1.16a.64.64,0,0,1,.62.84C26.15,15.93,26.07,16.19,26,16.45Z"/><path class="cls-12" d="M18.13,10.81c0,.37,0,.75,0,1.12l-.06.32h-.9l0-.37c0-.34,0-.68,0-1s-.11-.58.39-.62S18.06,10.46,18.13,10.81Z"/><path class="cls-7" d="M13.49,26.41c.12,0,.28-.05.34.12C13.69,26.57,13.56,26.58,13.49,26.41Z"/><path class="cls-8" d="M16.4,20.56H13.94c-.17,0-.46.08-.45-.22s-.2-.62.18-.83a.6.6,0,0,0,0-1.05c-.36-.2-.16-.52-.19-.78s.21-.27.41-.27h2.22c.2,0,.44,0,.41.27s.17.58-.19.78a.6.6,0,0,0,0,1.05c.41.22.09.61.24.88Z"/><path class="cls-13" d="M16.4,20.56l.17-.18a3.05,3.05,0,0,1,1-.4,1.68,1.68,0,0,1,1.56,1.6,2.32,2.32,0,0,1-.32,1l-.21.22a2.69,2.69,0,0,1-1,.39,3.08,3.08,0,0,1-1-.4A2,2,0,0,1,16,21.49,1.85,1.85,0,0,1,16.4,20.56Z"/><path class="cls-8" d="M14.51,26.65l0-5.15h.92l0,5.15A1.38,1.38,0,0,1,14.51,26.65Z"/><path class="cls-10" d="M15.49,26.65l0-5.15H16a2,2,0,0,0,.51,1.26c0,1.15,0,2.29,0,3.44A1.63,1.63,0,0,1,15.49,26.65Z"/><path class="cls-14" d="M21.2,19c0,1-.36,1.57-1,1.56S19.11,20,19.11,19a2.32,2.32,0,0,1,.07-.69,1.06,1.06,0,0,1,1-.83,1.08,1.08,0,0,1,1,1A5.61,5.61,0,0,1,21.2,19Z"/><path class="cls-15" d="M19.67,14.82a.46.46,0,0,1-.51-.47.44.44,0,0,1,.51-.49.42.42,0,0,1,.47.46A.45.45,0,0,1,19.67,14.82Z"/><path class="cls-15" d="M16,14.31c-.06.3-.19.52-.53.5a.44.44,0,0,1-.48-.46.45.45,0,0,1,.51-.49A.47.47,0,0,1,16,14.31Z"/><path class="cls-15" d="M17.61,14.82c-.31,0-.49-.18-.5-.48a.4.4,0,0,1,.44-.48c.33,0,.51.14.51.48S17.87,14.78,17.61,14.82Z"/><path class="cls-15" d="M17.1,11.88l0,.37h0l-.11.07-.92.16C16.08,11.77,16.23,11.69,17.1,11.88Z"/><path class="cls-15" d="M18,12.25l.06-.32c.8-.28,1-.18,1,.54l-.93-.16L18,12.25Z"/><path class="cls-15" d="M14.09,13.65c-.16-.26-.2-.52.06-.72a.49.49,0,0,1,.75.1Z"/><path class="cls-15" d="M20.27,13a.49.49,0,0,1,.75-.1c.26.2.22.46.05.71Z"/><path class="cls-12" d="M18,12.25l.12.06Z"/><path class="cls-12" d="M17,12.32l.11-.07Z"/><path class="cls-8" d="M18.61,22.76l.21-.22c.79,0,1.59,0,2.39,0,.38,0,.51.12.49.5s0,.82,0,1.23a1.55,1.55,0,0,1-1.44,1.42,1.59,1.59,0,0,1-1.61-1.38C18.61,23.81,18.62,23.28,18.61,22.76Zm1.54.85c-.28,0-.5,0-.48.42s.12.62.52.61.49-.32.53-.64S20.46,23.61,20.15,23.61Z"/><path class="cls-8" d="M16.55,26.19c0-1.15,0-2.29,0-3.44a3.08,3.08,0,0,0,1,.4,8.31,8.31,0,0,0,.07,1.49C17.3,25.17,17.16,25.84,16.55,26.19Z"/><path class="cls-15" d="M9.41,17.45a1.44,1.44,0,0,1,.87,0A2.12,2.12,0,0,1,9.41,17.45Z"/><path class="cls-10" d="M20.15,23.61c.31,0,.61,0,.57.39s-.13.64-.53.64-.5-.26-.52-.61S19.87,23.58,20.15,23.61Z"/></svg>