<svg id="Capa_1" data-name="Capa 1" xmlns="http://www.w3.org/2000/svg" viewBox="0 0 60 39"><defs><style>.cls-1{fill:#3d8e33;}.cls-2{fill:#ce1126;}.cls-3{fill:#fcd856;}.cls-4{fill:#f2f0f0;}.cls-5{fill:#0072c6;}</style></defs><title>Mesa de trabajo 1 copia 3</title><path class="cls-1" d="M21.69,39.15l-.87,0H1.49A1.55,1.55,0,0,1,0,38.48V.52a1.55,1.55,0,0,1,1.49-.7H21.11l.58,0c0,3.45,0,6.9,0,10.35a9.69,9.69,0,0,0-4.22,1A9.31,9.31,0,0,0,14.9,25.79a9.21,9.21,0,0,0,6.8,3Z"/><path class="cls-2" d="M21.69,39.15c0-3.45,0-6.9,0-10.35A9.82,9.82,0,0,0,25,28.22a9.3,9.3,0,0,0,2.49-16,9.16,9.16,0,0,0-5.75-2c0-3.45,0-6.9,0-10.35l3.4,0H58.36C59.72-.17,60,.12,60,1.49V37.57c0,1.29-.3,1.6-1.58,1.6H22.22Z"/><path class="cls-3" d="M21.7,10.2A9.31,9.31,0,0,1,31,18.37a9.31,9.31,0,0,1-6,9.85,9.82,9.82,0,0,1-3.26.58,9.21,9.21,0,0,1-6.8-3,9.31,9.31,0,0,1,2.58-14.56A9.69,9.69,0,0,1,21.7,10.2Zm0,4.14H18c-1.11,0-1.45.34-1.45,1.48,0,1.44,0,2.89,0,4.33a6.91,6.91,0,0,0,.16,1.51,5.17,5.17,0,0,0,10.11-.15,43.33,43.33,0,0,0,.1-6c0-.8-.44-1.14-1.25-1.14Z"/><path class="cls-2" d="M21.74,14.34h3.92c.81,0,1.25.34,1.25,1.14a43.33,43.33,0,0,1-.1,6,5.17,5.17,0,0,1-10.11.15,6.91,6.91,0,0,1-.16-1.51c0-1.44,0-2.89,0-4.33,0-1.14.34-1.48,1.45-1.48Zm0,2c-.88,0-1.76,0-2.63,0-.4,0-.5.13-.49.5,0,1.25,0,2.5,0,3.75a3.1,3.1,0,0,0,6.19,0c0-1.27,0-2.54,0-3.81,0-.37-.13-.46-.47-.45C23.5,16.38,22.62,16.37,21.74,16.37ZM19.2,23.29c-.07-.31-.25-.51-.57-.48a.46.46,0,0,0-.45.56.45.45,0,0,0,.51.45A.52.52,0,0,0,19.2,23.29Zm2.49-7.42a.51.51,0,0,0,.07-1,.48.48,0,0,0-.54.49A.48.48,0,0,0,21.69,15.87Zm4.67-.47a.49.49,0,0,0-.51-.55.5.5,0,0,0-.5.48.51.51,0,0,0,1,.07Zm-8.3,4.09A.41.41,0,0,0,17.6,19a.44.44,0,0,0-.5.49.43.43,0,0,0,.47.47C17.9,20,18.06,19.82,18.06,19.49Zm6.78,3.3a.49.49,0,0,0-.48.55.48.48,0,1,0,.95,0A.49.49,0,0,0,24.84,22.79Zm-7.73-7.32a.44.44,0,0,0,.51.39.46.46,0,0,0,.44-.52.45.45,0,0,0-.52-.48C17.27,14.88,17.08,15.06,17.11,15.47Zm9.26,4a.5.5,0,0,0-.56-.46.48.48,0,0,0,0,1A.49.49,0,0,0,26.37,19.48Z"/><path class="cls-4" d="M21.74,16.37c.88,0,1.76,0,2.64,0,.34,0,.48.08.47.45,0,1.27,0,2.54,0,3.81a3.1,3.1,0,0,1-6.19,0c0-1.25,0-2.5,0-3.75,0-.37.09-.51.49-.5C20,16.39,20.86,16.37,21.74,16.37ZM20,19.26c-.4,0-.79-.1-.72.54.05.47.07.92.67,1s.66-.32.71-1S20.37,19.2,20,19.26Zm3.5,0c-.33,0-.66-.07-.62.53s.25,1,.7,1,.63-.34.68-1S23.87,19.25,23.46,19.25Zm-1.73,2.14c-.45-.09-.72,0-.67.56s.22,1,.67,1,.61-.32.68-.95S22.18,21.31,21.73,21.39Zm0-4.24c-.43-.07-.75-.06-.7.56s.24,1,.67,1,.63-.34.67-1S22.21,17.06,21.76,17.15Zm0,2.11c-.43-.07-.75-.05-.7.56s.23,1,.67,1,.63-.33.67-1S22.22,19.16,21.76,19.26Z"/><path class="cls-3" d="M19.2,23.29a.52.52,0,0,1-.51.53.45.45,0,0,1-.51-.45.46.46,0,0,1,.45-.56C19,22.78,19.13,23,19.2,23.29Z"/><path class="cls-3" d="M21.69,15.87a.48.48,0,0,1-.47-.53.48.48,0,0,1,.54-.49.51.51,0,0,1-.07,1Z"/><path class="cls-3" d="M26.36,15.4a.51.51,0,0,1-1-.07.5.5,0,0,1,.5-.48A.49.49,0,0,1,26.36,15.4Z"/><path class="cls-3" d="M18.06,19.49c0,.33-.16.5-.49.49a.43.43,0,0,1-.47-.47.44.44,0,0,1,.5-.49A.41.41,0,0,1,18.06,19.49Z"/><path class="cls-3" d="M24.84,22.79a.49.49,0,0,1,.47.55.48.48,0,1,1-.95,0A.49.49,0,0,1,24.84,22.79Z"/><path class="cls-3" d="M17.11,15.47c0-.41.16-.59.43-.61a.45.45,0,0,1,.52.48.46.46,0,0,1-.44.52A.44.44,0,0,1,17.11,15.47Z"/><path class="cls-3" d="M26.37,19.48a.49.49,0,0,1-.53.5.48.48,0,0,1,0-1A.5.5,0,0,1,26.37,19.48Z"/><path class="cls-5" d="M20,19.26c.41-.06.71,0,.66.53s-.25,1-.71,1-.62-.51-.67-1C19.17,19.16,19.56,19.22,20,19.26Z"/><path class="cls-5" d="M23.46,19.25c.41,0,.81-.13.76.5s-.22,1-.68,1-.64-.33-.7-1S23.13,19.22,23.46,19.25Z"/><path class="cls-5" d="M21.73,21.39c.45-.08.73,0,.68.57s-.24.95-.68.95-.61-.31-.67-1S21.28,21.3,21.73,21.39Z"/><path class="cls-5" d="M21.76,17.15c.45-.09.68,0,.64.55s-.23,1-.67,1-.61-.33-.67-1S21.33,17.08,21.76,17.15Z"/><path class="cls-5" d="M21.76,19.26c.46-.1.68,0,.64.55s-.23,1-.67,1-.61-.33-.67-1S21.33,19.19,21.76,19.26Z"/></svg>