<svg id="Capa_1" data-name="Capa 1" xmlns="http://www.w3.org/2000/svg" viewBox="0 0 60 39"><defs><style>.cls-1{fill:#fff;}.cls-2{fill:#b22234;}.cls-3{fill:#3c3b6e;}.cls-4{fill:#f4f4f4;}</style></defs><title>Mesa de trabajo 1 copia 4</title><rect class="cls-1" width="60" height="39"/><path class="cls-2" d="M60,33.08H57.48q-28.35,0-56.71,0c-.6,0-.77-.16-.72-.73a14.73,14.73,0,0,0,0-1.88c0-.32.08-.48.42-.43.16,0,.31,0,.47,0H59.24L60,30Z"/><path class="cls-2" d="M60,27.11c-.25,0-.5,0-.75,0H.84c-.77,0-.78,0-.78-.77s0-1.25,0-1.88c0-.27.08-.4.37-.37.11,0,.23,0,.35,0H59.42l.58,0Z"/><path class="cls-2" d="M60,38.46a1.7,1.7,0,0,1-1.56.69H1.62c-1.25,0-1.57-.3-1.55-1.55,0-.48-.22-1.11.11-1.39s.89-.08,1.36-.08H60Z"/><path class="cls-2" d="M60,21H28l-.82,0A1.24,1.24,0,0,0,28,19.71c0-.58,0-1.15,0-1.73H60Z"/><path class="cls-2" d="M28,5.91H60V9l-.23,0H28C27.93,7.94,27.93,6.92,28,5.91Z"/><path class="cls-2" d="M60,14.93l-.58,0H28a27.84,27.84,0,0,1,0-3H59.54a3.57,3.57,0,0,0,.46,0Z"/><path class="cls-2" d="M60,2.88H28c0-.58-.05-1.16,0-1.73a1.14,1.14,0,0,0-.84-1.28H58.44A1.7,1.7,0,0,1,60,.54Z"/><path class="cls-3" d="M28,9v3a27.84,27.84,0,0,0,0,3v3c0,.58-.05,1.15,0,1.73A1.24,1.24,0,0,1,27.2,21l-.7,0H1.57C.35,21,.07,20.73.07,19.5q0-9.13,0-18.26C.07.23.43-.15,1.42-.15H26.7l.41,0A1.14,1.14,0,0,1,28,1.15c0,.57,0,1.15,0,1.73v3C27.93,6.92,27.93,7.94,28,9ZM12.38,4.77a1.06,1.06,0,0,1-1.2-.89c0,.83-.56.81-1.14.92.76.24.61.76.5,1.37.46-.64.9-.43,1.38-.08C11.74,5.53,11.74,5.08,12.38,4.77ZM9.16,4.32c-.32-.61,0-1,.41-1.35-.66.09-1-.23-1.14-.84-.08.71-.54.86-1.18.9.76.25.63.76.51,1.3A.94.94,0,0,1,9.16,4.32Zm16.69,0c-.3-.62,0-1,.48-1.29-.82-.21-.82-.21-1.24-.93C25,2.79,24.63,3,24,3a.93.93,0,0,1,.43,1.33A1,1,0,0,1,25.85,4.32ZM23.09,6.1a.93.93,0,0,1,.45-1.35,1,1,0,0,1-1.21-.87c0,.81-.56.82-1.27.86.71.34.86.74.61,1.36A1,1,0,0,1,23.09,6.1Zm3.2,7.67a1,1,0,0,1-1.15-.89c-.07.73-.51.88-1.13.88a.94.94,0,0,1,.43,1.35,1,1,0,0,1,1.43,0A.9.9,0,0,1,26.29,13.77ZM12.46,15.42a.92.92,0,0,1-1.26-.78c0,.79-.54.84-1.09.85.5.61.5.61.44,1.56.45-.79.91-.49,1.39-.15C11.8,16.09,11.8,16.09,12.46,15.42ZM5,6.1a.89.89,0,0,1,1.38,0A1,1,0,0,1,6.8,4.75c-.69.08-1-.27-1.18-.87,0,.75-.51.86-1.14.89C5.13,5,5.15,5.5,5,6.1Zm13.48,7.66c.36.33.74.57.45,1.1-.07.12.06.27.17.15.42-.44.79-.13,1.32.16-.36-.66-.23-1.08.33-1.41a1,1,0,0,1-1.16-.85A.91.91,0,0,1,18.46,13.76ZM7.74,15.16c.47-.68.95-.29,1.46-.13-.48-.63,0-.92.49-1.4-.82.24-1.07-.16-1.29-.74,0,.8-.55.82-1.11.89A1,1,0,0,1,7.74,15.16ZM4,3a1,1,0,0,1-1.16-.87c-.06.73-.53.82-1.12.88a.91.91,0,0,1,.44,1.33.92.92,0,0,1,1.4,0C3.38,3.77,3.4,3.34,4,3ZM20.3,4.33a.84.84,0,0,1,.48-1.28c-.82-.23-.82-.23-1.27-.94,0,.74-.49.87-1.13.94.78.22.64.74.54,1.28C19.4,3.84,19.83,4,20.3,4.33ZM17.5,6.08a1,1,0,0,1,.43-1.33,1,1,0,0,1-1.15-.83c-.09.67-.52.85-1.12.84A1,1,0,0,1,16.1,6.1.92.92,0,0,1,17.5,6.08Zm-1.84,9.46a.93.93,0,0,1,.44,1.34.93.93,0,0,1,1.42,0c-.32-.61-.07-1,.4-1.37-.7.14-.94-.29-1.15-.81C16.69,15.37,16.25,15.5,15.66,15.54Zm-11.14,0c.64.28.62.75.46,1.31.49-.49.92-.36,1.39,0a.92.92,0,0,1,.44-1.34,1,1,0,0,1-1.17-.86C5.56,15.36,5.13,15.52,4.52,15.55Zm-2.36-.31a.89.89,0,0,1,1.46-.13c-.42-.64,0-1,.36-1.38-.69.15-.93-.29-1.13-.81-.09.69-.52.83-1.07.8A1.4,1.4,0,0,1,2.16,15.24Zm19.08.29c.59.31.63.75.44,1.33a.85.85,0,0,1,1.36.05c-.06-.82-.06-.82.51-1.47a.92.92,0,0,1-1.2-.76A.93.93,0,0,1,21.24,15.53ZM14,12.83a1,1,0,0,1-1.12.94,1,1,0,0,1,.44,1.38c.48-.57.93-.39,1.48-.07-.48-.65,0-1,.38-1.29C14.33,13.58,14.33,13.58,14,12.83Zm.71-8.52A1,1,0,0,1,15.17,3,.92.92,0,0,1,14,2.15,1,1,0,0,1,12.86,3a.91.91,0,0,1,.43,1.34C13.78,4,14.2,3.86,14.69,4.31Zm7.67,6.81c-.13.65-.51.86-1.19.85.81.23.59.79.52,1.33.48-.54.92-.36,1.45,0-.47-.64-.07-1,.36-1.37C22.82,12,22.55,11.7,22.36,11.12Zm-15.08-1a1,1,0,0,1,.45,1.38,1,1,0,0,1,1.45,0,1,1,0,0,1,.4-1.37c-.71.15-.95-.25-1.15-.8C8.28,9.94,8,10.29,7.28,10.15Zm6-2.17c.46-.7.93-.31,1.43-.1-.37-.62,0-1,.4-1.33-.66.12-1-.21-1.18-.83,0,.79-.54.82-1.24.85C13.42,6.93,13.56,7.33,13.32,8Zm2.78,1.7a.93.93,0,0,1,1.43,0c-.37-.65,0-1,.4-1.42-.73.2-.94-.27-1.17-.79,0,.75-.54.82-1.1.85A1,1,0,0,1,16.1,9.68ZM12,9.68c-.45-.66,0-1,.54-1.42-.77.11-1.16-.09-1.3-.8-.05.76-.52.88-1.16.9.72.29.62.78.48,1.37C11,9.18,11.44,9.3,12,9.68Zm14.3-3.19c-.74.31-.89-.26-1.19-.76,0,.8-.52.8-1.08.88.63.3.66.75.43,1.34A.89.89,0,0,1,25.86,8C25.75,7.19,25.75,7.19,26.27,6.49ZM7.74,18.72a.93.93,0,0,1,1.42,0,1,1,0,0,1,.42-1.36.94.94,0,0,1-1.14-.83c-.12.68-.53.87-1.16.84C7.91,17.67,8,18.12,7.74,18.72Zm7,0c-.41-.67-.06-1,.43-1.43-.75.21-1-.24-1.21-.8,0,.72-.49.85-1.08.85a1,1,0,0,1,.4,1.36A1,1,0,0,1,14.75,18.73ZM2.86,5.77c-.09.69-.55.8-1.14.83A.92.92,0,0,1,2.16,8,.92.92,0,0,1,3.6,8c-.34-.63-.05-1,.41-1.4C3.34,6.66,3,6.37,2.86,5.77ZM24,17.36c.78.27.65.78.49,1.35a1,1,0,0,1,1.44,0,1,1,0,0,1,.45-1.41c-.75.21-1-.23-1.19-.77A1,1,0,0,1,24,17.36ZM12,13.29c-.52-.68,0-1,.39-1.4-.71.19-1-.22-1.18-.81,0,.75-.51.85-1.09.87a.93.93,0,0,1,.41,1.33A1,1,0,0,1,12,13.29Zm14.31-3.12c-.66.1-1-.21-1.13-.83-.17.61-.48.91-1.13.84a1,1,0,0,1,.42,1.37c.48-.5.93-.42,1.46,0C25.53,10.89,25.77,10.53,26.29,10.17ZM18.4,6.6c.75.24.58.8.58,1.38.45-.78.88-.21,1.52,0-.62-.69-.19-1,.2-1.41-.66.11-.95-.24-1.13-.81C19.46,6.41,19.08,6.62,18.4,6.6Zm2.32,10.72c-.74.2-.93-.3-1.17-.81-.06.75-.55.81-1.13.87.64.28.66.75.47,1.36.49-.62.93-.35,1.42,0A1,1,0,0,1,20.72,17.32Zm.5-9c.6.33.69.78.44,1.44.5-.73.94-.36,1.45-.09-.34-.6-.07-1,.41-1.39-.73.18-1-.22-1.15-.79C22.21,8.12,21.92,8.44,21.22,8.33Zm-12-.4c-.34-.62,0-1,.41-1.4-.74.21-1-.25-1.17-.78-.08.71-.54.83-1.14.85A.92.92,0,0,1,7.74,8C8.24,7.43,8.68,7.57,9.18,7.93ZM1.8,10.16a1.43,1.43,0,0,1,.41,1.32c.67-.3.67-.3,1.46.06-.37-.6-.17-1,.39-1.36-.75-.09-.75-.09-1.19-.76C2.43,10.09,2.43,10.09,1.8,10.16Zm5-1.83c-.66.09-1-.25-1.15-.83-.07.71-.54.84-1.14.87.66.29.65.76.49,1.37.48-.66.92-.32,1.4-.08A.94.94,0,0,1,6.78,8.33Zm-5,9c.67.3.58.79.45,1.34.48-.52.92-.37,1.41,0-.35-.62-.06-1,.4-1.38-.72.18-.94-.27-1.15-.79A.93.93,0,0,1,1.74,17.37ZM16.1,13.3c.48-.56.93-.37,1.43,0a1,1,0,0,1,.41-1.37c-.76.21-.94-.29-1.17-.79A.92.92,0,0,1,15.7,12,1,1,0,0,1,16.1,13.3Zm-.83-3.23c-.78.2-1.1-.11-1.26-.71a1,1,0,0,1-1.15.85c.72.28.58.79.46,1.38.45-.62.91-.41,1.46-.11C14.26,10.82,14.79,10.54,15.27,10.07ZM4.5,12c.72.24.59.75.48,1.32.47-.53.91-.4,1.39,0a1,1,0,0,1,.42-1.37c-.69.13-1-.25-1.09-.84C5.25,11.84,5.25,11.84,4.5,12Zm15.82-.46a1,1,0,0,1,.41-1.38c-.75.22-.93-.3-1.18-.79-.07.72-.53.82-1.14.87.68.25.66.72.51,1.32C19.42,10.92,19.83,11.24,20.32,11.52Z"/><path class="cls-4" d="M12.38,4.77c-.64.31-.64.76-.46,1.32-.48-.35-.92-.56-1.38.08.11-.61.26-1.13-.5-1.37.58-.11,1.15-.09,1.14-.92A1.06,1.06,0,0,0,12.38,4.77Z"/><path class="cls-4" d="M9.16,4.32a.94.94,0,0,0-1.4,0C7.88,3.79,8,3.28,7.25,3c.64,0,1.1-.19,1.18-.9.16.61.48.93,1.14.84C9.12,3.34,8.84,3.71,9.16,4.32Z"/><path class="cls-4" d="M25.85,4.32a1,1,0,0,0-1.41,0A.93.93,0,0,0,24,3c.62,0,1-.21,1.08-.9.42.72.42.72,1.24.93C25.81,3.33,25.55,3.7,25.85,4.32Z"/><path class="cls-4" d="M23.09,6.1a1,1,0,0,0-1.42,0c.25-.62.1-1-.61-1.36.71,0,1.26,0,1.27-.86a1,1,0,0,0,1.21.87A.93.93,0,0,0,23.09,6.1Z"/><path class="cls-4" d="M26.29,13.77a.9.9,0,0,0-.42,1.33,1,1,0,0,0-1.43,0A.94.94,0,0,0,24,13.76c.62,0,1.06-.15,1.13-.88A1,1,0,0,0,26.29,13.77Z"/><path class="cls-4" d="M12.46,15.42c-.66.67-.66.67-.52,1.48-.48-.34-.94-.64-1.39.15.06-.95.06-.95-.44-1.56.55,0,1.07-.06,1.09-.85A.92.92,0,0,0,12.46,15.42Z"/><path class="cls-4" d="M5,6.1c.17-.6.15-1.06-.5-1.33.63,0,1.09-.14,1.14-.89.2.6.49,1,1.18.87A1,1,0,0,0,6.36,6.1.89.89,0,0,0,5,6.1Z"/><path class="cls-4" d="M18.46,13.76a.91.91,0,0,0,1.11-.85,1,1,0,0,0,1.16.85c-.56.33-.69.75-.33,1.41-.53-.29-.9-.6-1.32-.16-.11.12-.24,0-.17-.15C19.2,14.33,18.82,14.09,18.46,13.76Z"/><path class="cls-4" d="M7.74,15.16a1,1,0,0,0-.45-1.38c.56-.07,1.1-.09,1.11-.89.22.58.47,1,1.29.74-.45.48-1,.77-.49,1.4C8.69,14.87,8.21,14.48,7.74,15.16Z"/><path class="cls-4" d="M4,3c-.61.33-.63.76-.44,1.32a.92.92,0,0,0-1.4,0A.91.91,0,0,0,1.73,3c.59-.06,1.06-.15,1.12-.88A1,1,0,0,0,4,3Z"/><path class="cls-4" d="M20.3,4.33c-.47-.35-.9-.49-1.38,0,.1-.54.24-1.06-.54-1.28.64-.07,1.11-.2,1.13-.94.45.71.45.71,1.27.94A.84.84,0,0,0,20.3,4.33Z"/><path class="cls-4" d="M17.5,6.08a.92.92,0,0,0-1.4,0,1,1,0,0,0-.44-1.34c.6,0,1-.17,1.12-.84a1,1,0,0,0,1.15.83A1,1,0,0,0,17.5,6.08Z"/><path class="cls-4" d="M15.66,15.54c.59,0,1-.17,1.11-.86.21.52.45,1,1.15.81-.47.37-.72.76-.4,1.37a.93.93,0,0,0-1.42,0A.93.93,0,0,0,15.66,15.54Z"/><path class="cls-4" d="M4.52,15.55c.61,0,1-.19,1.12-.89a1,1,0,0,0,1.17.86.92.92,0,0,0-.44,1.34c-.47-.36-.9-.49-1.39,0C5.14,16.3,5.16,15.83,4.52,15.55Z"/><path class="cls-4" d="M2.16,15.24a1.4,1.4,0,0,0-.38-1.52c.55,0,1-.11,1.07-.8.2.52.44,1,1.13.81-.4.39-.78.74-.36,1.38A.89.89,0,0,0,2.16,15.24Z"/><path class="cls-4" d="M21.24,15.53a.93.93,0,0,0,1.11-.85.92.92,0,0,0,1.2.76c-.57.65-.57.65-.51,1.47a.85.85,0,0,0-1.36-.05C21.87,16.28,21.83,15.84,21.24,15.53Z"/><path class="cls-4" d="M14,12.83c.35.75.35.75,1.18,1-.43.32-.86.64-.38,1.29-.55-.32-1-.5-1.48.07a1,1,0,0,0-.44-1.38A1,1,0,0,0,14,12.83Z"/><path class="cls-4" d="M14.69,4.31c-.49-.45-.91-.35-1.4,0A.91.91,0,0,0,12.86,3,1,1,0,0,0,14,2.15.92.92,0,0,0,15.17,3,1,1,0,0,0,14.69,4.31Z"/><path class="cls-4" d="M22.36,11.12c.19.58.46.92,1.14.79-.43.37-.83.73-.36,1.37-.53-.34-1-.52-1.45,0,.07-.54.29-1.1-.52-1.33C21.85,12,22.23,11.77,22.36,11.12Z"/><path class="cls-4" d="M7.28,10.15c.71.14,1-.21,1.15-.8.2.55.44,1,1.15.8a1,1,0,0,0-.4,1.37,1,1,0,0,0-1.45,0A1,1,0,0,0,7.28,10.15Z"/><path class="cls-4" d="M13.32,8c.24-.65.1-1.05-.59-1.41.7,0,1.22-.06,1.24-.85.21.62.52,1,1.18.83-.44.37-.77.71-.4,1.33C14.25,7.67,13.78,7.28,13.32,8Z"/><path class="cls-4" d="M16.1,9.68a1,1,0,0,0-.44-1.33c.56,0,1.06-.1,1.1-.85.23.52.44,1,1.17.79-.42.4-.77.77-.4,1.42A.93.93,0,0,0,16.1,9.68Z"/><path class="cls-4" d="M12,9.68c-.53-.38-1-.5-1.44.05.14-.59.24-1.08-.48-1.37.64,0,1.11-.14,1.16-.9.14.71.53.91,1.3.8C11.94,8.7,11.52,9,12,9.68Z"/><path class="cls-4" d="M26.27,6.49c-.52.7-.52.7-.41,1.53A.89.89,0,0,0,24.43,8c.23-.59.2-1-.43-1.34.56-.08,1.11-.08,1.08-.88C25.38,6.23,25.53,6.8,26.27,6.49Z"/><path class="cls-4" d="M7.74,18.72c.21-.6.17-1-.46-1.37.63,0,1-.16,1.16-.84a.94.94,0,0,0,1.14.83,1,1,0,0,0-.42,1.36A.93.93,0,0,0,7.74,18.72Z"/><path class="cls-4" d="M14.75,18.73a1,1,0,0,0-1.46,0,1,1,0,0,0-.4-1.36c.59,0,1-.13,1.08-.85.25.56.46,1,1.21.8C14.69,17.7,14.34,18.06,14.75,18.73Z"/><path class="cls-4" d="M2.86,5.77c.17.6.48.89,1.15.78-.46.37-.75.77-.41,1.4A.92.92,0,0,0,2.16,8,.92.92,0,0,0,1.72,6.6C2.31,6.57,2.77,6.46,2.86,5.77Z"/><path class="cls-4" d="M24,17.36a1,1,0,0,0,1.19-.83c.21.54.44,1,1.19.77a1,1,0,0,0-.45,1.41,1,1,0,0,0-1.44,0C24.6,18.14,24.73,17.63,24,17.36Z"/><path class="cls-4" d="M12,13.29a1,1,0,0,0-1.47,0A.93.93,0,0,0,10.1,12c.58,0,1.05-.12,1.09-.87.22.59.47,1,1.18.81C12,12.29,11.46,12.61,12,13.29Z"/><path class="cls-4" d="M26.29,10.17c-.52.36-.76.72-.38,1.36-.53-.4-1-.48-1.46,0A1,1,0,0,0,24,10.18c.65.07,1-.23,1.13-.84C25.31,10,25.63,10.27,26.29,10.17Z"/><path class="cls-4" d="M18.4,6.6c.68,0,1.06-.19,1.17-.85.18.57.47.92,1.13.81-.39.39-.82.72-.2,1.41-.64-.2-1.07-.77-1.52,0C19,7.4,19.15,6.84,18.4,6.6Z"/><path class="cls-4" d="M20.72,17.32a1,1,0,0,0-.41,1.37c-.49-.3-.93-.57-1.42,0,.19-.61.17-1.08-.47-1.36.58-.06,1.07-.12,1.13-.87C19.79,17,20,17.52,20.72,17.32Z"/><path class="cls-4" d="M21.22,8.33c.7.11,1-.21,1.15-.83.17.57.42,1,1.15.79-.48.39-.75.79-.41,1.39-.51-.27-.95-.64-1.45.09C21.91,9.11,21.82,8.66,21.22,8.33Z"/><path class="cls-4" d="M9.18,7.93c-.5-.36-.94-.5-1.44,0A.92.92,0,0,0,7.28,6.6c.6,0,1.06-.14,1.14-.85.21.53.43,1,1.17.78C9.13,6.92,8.84,7.31,9.18,7.93Z"/><path class="cls-4" d="M1.8,10.16c.63-.07.63-.07,1.07-.74.44.67.44.67,1.19.76-.56.34-.76.76-.39,1.36-.79-.36-.79-.36-1.46-.06A1.43,1.43,0,0,0,1.8,10.16Z"/><path class="cls-4" d="M6.78,8.33a.94.94,0,0,0-.4,1.33c-.48-.24-.92-.58-1.4.08.16-.61.17-1.08-.49-1.37.6,0,1.07-.16,1.14-.87C5.83,8.08,6.12,8.42,6.78,8.33Z"/><path class="cls-4" d="M1.74,17.37a.93.93,0,0,0,1.11-.85c.21.52.43,1,1.15.79-.46.38-.75.76-.4,1.38-.49-.35-.93-.5-1.41,0C2.32,18.16,2.41,17.67,1.74,17.37Z"/><path class="cls-4" d="M16.1,13.3A1,1,0,0,0,15.7,12a.92.92,0,0,0,1.07-.84c.23.5.41,1,1.17.79a1,1,0,0,0-.41,1.37C17,12.93,16.58,12.74,16.1,13.3Z"/><path class="cls-4" d="M15.27,10.07c-.48.47-1,.75-.49,1.41-.55-.3-1-.51-1.46.11.12-.59.26-1.1-.46-1.38A1,1,0,0,0,14,9.36C14.17,10,14.49,10.27,15.27,10.07Z"/><path class="cls-4" d="M4.5,12c.75-.14.75-.14,1.2-.9.14.59.4,1,1.09.84a1,1,0,0,0-.42,1.37c-.48-.39-.92-.52-1.39,0C5.09,12.73,5.22,12.22,4.5,12Z"/><path class="cls-4" d="M20.32,11.52c-.49-.28-.9-.6-1.4,0,.15-.6.17-1.07-.51-1.32.61-.05,1.07-.15,1.14-.87.25.49.43,1,1.18.79A1,1,0,0,0,20.32,11.52Z"/></svg>