<svg xmlns="http://www.w3.org/2000/svg" width="26" height="26" viewBox="0 0 26 26">
  <g id="Grupo_1167" data-name="Grupo 1167" transform="translate(-310 -1481)">
    <g id="Grupo_1165" data-name="Grupo 1165" transform="translate(0 595.5)">
      <g id="Grupo_1163" data-name="Grupo 1163" transform="translate(-3 420.5)">
        <g id="Grupo_1160" data-name="Grupo 1160" transform="translate(-6 -168)">
          <g id="Grupo_1158" data-name="Grupo 1158">
            <g id="Elipse_129" data-name="Elipse 129" transform="translate(319 633)" fill="none" stroke="#019f86" stroke-width="2">
              <circle cx="13" cy="13" r="13" stroke="none"/>
              <circle cx="13" cy="13" r="12" fill="none"/>
            </g>
          </g>
        </g>
      </g>
    </g>
    <g id="file-text" transform="translate(313.8 1485.5)">
      <path id="Trazado_332" data-name="Trazado 332" d="M10.5,2H5.3A1.3,1.3,0,0,0,4,3.3V13.7A1.3,1.3,0,0,0,5.3,15h7.8a1.3,1.3,0,0,0,1.3-1.3V5.9Z" fill="none" stroke="#019f86" stroke-linecap="round" stroke-linejoin="round" stroke-width="1.5"/>
      <path id="Trazado_333" data-name="Trazado 333" d="M14,2V5.9h3.9" transform="translate(-3.5)" fill="none" stroke="#019f86" stroke-linecap="round" stroke-linejoin="round" stroke-width="1.5"/>
      <line id="Línea_123" data-name="Línea 123" x1="5" transform="translate(7 9)" fill="none" stroke="#019f86" stroke-linecap="round" stroke-linejoin="round" stroke-width="1.5"/>
      <line id="Línea_124" data-name="Línea 124" x1="5" transform="translate(7 12)" fill="none" stroke="#019f86" stroke-linecap="round" stroke-linejoin="round" stroke-width="1.5"/>
      <path id="Trazado_334" data-name="Trazado 334" d="M9.3,9H8" transform="translate(-1.4 -2.45)" fill="none" stroke="#019f86" stroke-linecap="round" stroke-linejoin="round" stroke-width="1.5"/>
    </g>
  </g>
</svg>
