<svg xmlns="http://www.w3.org/2000/svg" xmlns:xlink="http://www.w3.org/1999/xlink" width="112" height="112" viewBox="0 0 112 112">
  <defs>
    <filter id="Elipse_7" x="0" y="0" width="112" height="112" filterUnits="userSpaceOnUse">
      <feOffset dy="3" input="SourceAlpha"/>
      <feGaussianBlur stdDeviation="3" result="blur"/>
      <feFlood flood-opacity="0.161"/>
      <feComposite operator="in" in2="blur"/>
      <feComposite in="SourceGraphic"/>
    </filter>
  </defs>
  <g id="Grupo_1585" data-name="Grupo 1585" transform="translate(16798.75 -723.874)">
    <g id="Grupo_243" data-name="Grupo 243" transform="translate(-17290.75 -202.126)">
      <g id="Grupo_56" data-name="Grupo 56" transform="translate(501 932)">
        <g transform="matrix(1, 0, 0, 1, -9, -6)" filter="url(#Elipse_7)">
          <circle id="Elipse_7-2" data-name="Elipse 7" cx="47" cy="47" r="47" transform="translate(9 6)" fill="#0083d6"/>
        </g>
      </g>
    </g>
    <g id="noun_Doctor_392515" transform="translate(-16771.682 746.582)">
      <path id="Trazado_47" data-name="Trazado 47" d="M41.513,51.028a9.729,9.729,0,0,1-10.559,0,1.013,1.013,0,1,0-1.177,1.65,11.731,11.731,0,0,0,12.912,0,1.013,1.013,0,1,0-1.177-1.65ZM36.234,18.882a3.865,3.865,0,0,0-1.4.261,1.013,1.013,0,1,0,.731,1.889,1.865,1.865,0,1,1-1.184,1.94,1.013,1.013,0,1,0-2.015.213,3.891,3.891,0,1,0,3.869-4.3Zm26.14,12.787a4.537,4.537,0,0,0-3.174-.654V20.909C59.2,13.264,45.839,5.5,36.234,5.5c-8.639,0-22.966,7.464-22.966,15.409V31.014a4.538,4.538,0,0,0-3.173.655,5.8,5.8,0,0,0-2.5,4.98c0,4.891,2.727,8.268,6.866,8.649,3.153,11.527,11.979,20.313,21.774,20.313S54.855,56.826,58.008,45.3c4.141-.379,6.87-3.756,6.87-8.649A5.8,5.8,0,0,0,62.375,31.669ZM9.619,36.649a3.85,3.85,0,0,1,1.569-3.274,2.518,2.518,0,0,1,2.08-.3V34.6c-.026.529-.042,1.052-.042,1.586a34.569,34.569,0,0,0,.719,6.992C10.787,42.529,9.619,39.505,9.619,36.649Zm5.675-15.74c0-6.333,12.481-13.382,20.94-13.382s20.94,7.049,20.94,13.382v7.673A30.12,30.12,0,0,0,45.75,24.124a9.622,9.622,0,1,0-19.034-.012,30.326,30.326,0,0,0-11.422,4.423V20.909ZM43.83,22.772a7.6,7.6,0,1,1-7.6-7.594A7.6,7.6,0,0,1,43.83,22.772Zm-7.6,40.813c-11.177,0-20.98-12.8-20.98-27.4,0-.517.014-1.023.041-1.535,0-.009,0-.016,0-.025s0-.017,0-.026V31.018a27.683,27.683,0,0,1,11.915-4.941,9.605,9.605,0,0,0,18.045.013,27.472,27.472,0,0,1,11.919,4.986V34.6c0,.008,0,.015,0,.022s0,.015,0,.023c.023.514.041,1.021.041,1.54C57.215,50.781,47.41,63.585,36.233,63.585Zm22.29-20.42a34.537,34.537,0,0,0,.718-6.979c0-.536-.018-1.06-.041-1.592V33.076a2.518,2.518,0,0,1,2.082.3,3.847,3.847,0,0,1,1.57,3.274C62.851,39.5,61.677,42.514,58.523,43.165Z" transform="translate(-7.593 -5.5)" fill="#fff"/>
      <path id="Trazado_212" data-name="Trazado 212" d="M41.513,51.028a9.729,9.729,0,0,1-10.559,0,1.013,1.013,0,1,0-1.177,1.65,11.731,11.731,0,0,0,12.912,0,1.013,1.013,0,1,0-1.177-1.65ZM36.234,18.882a3.865,3.865,0,0,0-1.4.261,1.013,1.013,0,1,0,.731,1.889,1.865,1.865,0,1,1-1.184,1.94,1.013,1.013,0,1,0-2.015.213,3.891,3.891,0,1,0,3.869-4.3Zm26.14,12.787a4.537,4.537,0,0,0-3.174-.654V20.909C59.2,13.264,45.839,5.5,36.234,5.5c-8.639,0-22.966,7.464-22.966,15.409V31.014a4.538,4.538,0,0,0-3.173.655,5.8,5.8,0,0,0-2.5,4.98c0,4.891,2.727,8.268,6.866,8.649,3.153,11.527,11.979,20.313,21.774,20.313S54.855,56.826,58.008,45.3c4.141-.379,6.87-3.756,6.87-8.649A5.8,5.8,0,0,0,62.375,31.669ZM9.619,36.649a3.85,3.85,0,0,1,1.569-3.274,2.518,2.518,0,0,1,2.08-.3V34.6c-.026.529-.042,1.052-.042,1.586a34.569,34.569,0,0,0,.719,6.992C10.787,42.529,9.619,39.505,9.619,36.649Zm5.675-15.74c0-6.333,12.481-13.382,20.94-13.382s20.94,7.049,20.94,13.382v7.673A30.12,30.12,0,0,0,45.75,24.124a9.622,9.622,0,1,0-19.034-.012,30.326,30.326,0,0,0-11.422,4.423V20.909ZM43.83,22.772a7.6,7.6,0,1,1-7.6-7.594A7.6,7.6,0,0,1,43.83,22.772Zm-7.6,40.813c-11.177,0-20.98-12.8-20.98-27.4,0-.517.014-1.023.041-1.535,0-.009,0-.016,0-.025s0-.017,0-.026V31.018a27.683,27.683,0,0,1,11.915-4.941,9.605,9.605,0,0,0,18.045.013,27.472,27.472,0,0,1,11.919,4.986V34.6c0,.008,0,.015,0,.022s0,.015,0,.023c.023.514.041,1.021.041,1.54C57.215,50.781,47.41,63.585,36.233,63.585Zm22.29-20.42a34.537,34.537,0,0,0,.718-6.979c0-.536-.018-1.06-.041-1.592V33.076a2.518,2.518,0,0,1,2.082.3,3.847,3.847,0,0,1,1.57,3.274C62.851,39.5,61.677,42.514,58.523,43.165Z" transform="translate(-7.593 -5.5)" fill="#fff"/>
    </g>
  </g>
</svg>
