<svg xmlns="http://www.w3.org/2000/svg" xmlns:xlink="http://www.w3.org/1999/xlink" width="205.625" height="112" viewBox="0 0 205.625 112">
  <defs>
    <filter id="Elipse_7" x="93.625" y="0" width="112" height="112" filterUnits="userSpaceOnUse">
      <feOffset dy="3" input="SourceAlpha"/>
      <feGaussianBlur stdDeviation="3" result="blur"/>
      <feFlood flood-opacity="0.161"/>
      <feComposite operator="in" in2="blur"/>
      <feComposite in="SourceGraphic"/>
    </filter>
  </defs>
  <g id="Grupo_1592" data-name="Grupo 1592" transform="translate(16304.375 -723.874)">
    <g id="Grupo_1591" data-name="Grupo 1591">
      <g id="Grupo_256" data-name="Grupo 256" transform="translate(-16702.75 -202.126)">
        <g id="Grupo_56" data-name="Grupo 56" transform="translate(501 932)">
          <g transform="matrix(1, 0, 0, 1, -102.63, -6)" filter="url(#Elipse_7)">
            <circle id="Elipse_7-2" data-name="Elipse 7" cx="47" cy="47" r="47" transform="translate(102.63 6)" fill="#d1d1d1"/>
          </g>
        </g>
      </g>
      <g id="noun_medical_prescription_402599" data-name="noun_medical prescription_402599" transform="translate(-16194.258 739.91)">
        <path id="Trazado_195" data-name="Trazado 195" d="M63.565,25.306,48.146,9.887a1.066,1.066,0,0,0-.755-.312H24.81a7.662,7.662,0,0,0-7.655,7.652v42.2a7.661,7.661,0,0,0,7.655,7.651l31.41,0a7.662,7.662,0,0,0,7.657-7.651V26.061A1.066,1.066,0,0,0,63.565,25.306ZM48.458,13.217,60.235,24.994H53.983a5.528,5.528,0,0,1-5.524-5.519ZM61.744,59.428a5.526,5.526,0,0,1-5.524,5.517l-31.41,0a5.526,5.526,0,0,1-5.522-5.517v-42.2a5.526,5.526,0,0,1,5.522-5.519H46.325v7.767a7.664,7.664,0,0,0,7.658,7.652h7.761ZM33.419,29.921V25.834H37.5a1.067,1.067,0,1,0,0-2.134H33.419V19.626a1.067,1.067,0,1,0-2.134,0V23.7H27.207a1.067,1.067,0,1,0,0,2.134h4.078v4.087a1.067,1.067,0,1,0,2.134,0ZM53.827,46.338h-20.3a1.067,1.067,0,1,0,0,2.134h20.3a1.067,1.067,0,1,0,0-2.134Zm-20.3-8.181a1.067,1.067,0,1,0,0,2.134h20.3a1.067,1.067,0,1,0,0-2.134Zm20.3,16.363h-20.3a1.067,1.067,0,1,0,0,2.134h20.3a1.067,1.067,0,0,0,0-2.134ZM27.206,37.8a1.423,1.423,0,1,0,1.423,1.423A1.423,1.423,0,0,0,27.206,37.8Zm0,8.181A1.423,1.423,0,1,0,28.628,47.4,1.423,1.423,0,0,0,27.206,45.982Zm0,8.182a1.423,1.423,0,1,0,1.423,1.423A1.423,1.423,0,0,0,27.206,54.164Z" fill="#fff"/>
      </g>
    </g>
    <rect id="Rectángulo_385" data-name="Rectángulo 385" width="104" height="7" transform="translate(-16304.375 777)" fill="#d1d1d1"/>
  </g>
</svg>
