<svg xmlns="http://www.w3.org/2000/svg" width="26" height="26" viewBox="0 0 26 26">
  <g id="Grupo_1552" data-name="Grupo 1552" transform="translate(-311 -2385)">
    <g id="Grupo_1170" data-name="Grupo 1170" transform="translate(0 307)">
      <g id="Grupo_1168" data-name="Grupo 1168" transform="translate(1 597)">
        <g id="Grupo_1165" data-name="Grupo 1165" transform="translate(0 595.5)">
          <g id="Grupo_1163" data-name="Grupo 1163" transform="translate(-3 420.5)">
            <g id="Grupo_1160" data-name="Grupo 1160" transform="translate(-6 -168)">
              <g id="Grupo_1158" data-name="Grupo 1158">
                <g id="Elipse_129" data-name="Elipse 129" transform="translate(319 633)" fill="none" stroke="#019f86" stroke-width="2">
                  <circle cx="13" cy="13" r="13" stroke="none"/>
                  <circle cx="13" cy="13" r="12" fill="none"/>
                </g>
              </g>
            </g>
          </g>
        </g>
      </g>
    </g>
    <g id="globe" transform="translate(314.411 2388.334)">
      <circle id="Elipse_131" data-name="Elipse 131" cx="7.59" cy="7.59" r="7.59" transform="translate(2 2)" fill="none" stroke="#019f86" stroke-linecap="round" stroke-linejoin="round" stroke-width="1.5"/>
      <line id="Línea_125" data-name="Línea 125" x2="15.179" transform="translate(2 10.173)" fill="none" stroke="#019f86" stroke-linecap="round" stroke-linejoin="round" stroke-width="1.5"/>
      <path id="Trazado_336" data-name="Trazado 336" d="M11.036,2a11.612,11.612,0,0,1,3.036,7.59,11.612,11.612,0,0,1-3.036,7.59A11.612,11.612,0,0,1,8,9.59,11.612,11.612,0,0,1,11.036,2Z" transform="translate(-1.3 0)" fill="none" stroke="#019f86" stroke-linecap="round" stroke-linejoin="round" stroke-width="1.5"/>
    </g>
  </g>
</svg>
