<svg xmlns="http://www.w3.org/2000/svg" xmlns:xlink="http://www.w3.org/1999/xlink" width="206" height="112" viewBox="0 0 206 112">
  <defs>
    <filter id="Elipse_7" x="94" y="0" width="112" height="112" filterUnits="userSpaceOnUse">
      <feOffset dy="3" input="SourceAlpha"/>
      <feGaussianBlur stdDeviation="3" result="blur"/>
      <feFlood flood-opacity="0.161"/>
      <feComposite operator="in" in2="blur"/>
      <feComposite in="SourceGraphic"/>
    </filter>
  </defs>
  <g id="Grupo_1588" data-name="Grupo 1588" transform="translate(16696.75 -723.873)">
    <rect id="Rectángulo_383" data-name="Rectángulo 383" width="104" height="7" transform="translate(-16696.75 777)" fill="#d1d1d1"/>
    <g id="Grupo_1587" data-name="Grupo 1587">
      <g id="Grupo_257" data-name="Grupo 257" transform="translate(-17094.75 -202.127)">
        <g id="Grupo_56" data-name="Grupo 56" transform="translate(501 932)">
          <g transform="matrix(1, 0, 0, 1, -103, -6)" filter="url(#Elipse_7)">
            <circle id="Elipse_7-2" data-name="Elipse 7" cx="47" cy="47" r="47" transform="translate(103 6)" fill="#d1d1d1"/>
          </g>
        </g>
      </g>
      <g id="Grupo_354" data-name="Grupo 354" transform="translate(-17337 -115.262)">
        <g id="Grupo_355" data-name="Grupo 355">
          <g id="noun_Scissors_395946" transform="matrix(0.695, -0.719, 0.719, 0.695, 744.268, 901.279)">
            <path id="Trazado_222" data-name="Trazado 222" d="M58.7,24.681a6.368,6.368,0,0,0-8.265-.642,1.462,1.462,0,0,1-2-.173.937.937,0,1,0-1.4,1.252,3.6,3.6,0,0,0,1.572.98,6.294,6.294,0,0,0-.75,2.3L41.52,30.1a11.118,11.118,0,0,1-2.819-.468,11.114,11.114,0,0,1-.468-2.819l1.7-6.342a6.3,6.3,0,0,0,2.307-.751,3.59,3.59,0,0,0,.977,1.574.938.938,0,1,0,1.253-1.4,1.467,1.467,0,0,1-.2-1.97,6.38,6.38,0,1,0-9.646.727,6.482,6.482,0,0,0,.668.573l-2.758,10.3C24.222,31.893,8.9,41.655,8.193,42.108a.938.938,0,0,0,.749,1.7L30.236,38.1,24.53,59.393a.938.938,0,0,0,1.7.748c.455-.71,10.213-16.029,12.578-24.338l10.3-2.76a6.38,6.38,0,1,0,9.6-8.362ZM34.629,14.144a4.508,4.508,0,1,1,1.32,3.187A4.474,4.474,0,0,1,34.629,14.144Zm2.357,6A6.357,6.357,0,0,0,38,20.422L36.421,26.33a6.745,6.745,0,0,0,.25,2.86,7.022,7.022,0,0,0-1.906-.137c-.055.006-.116.019-.172.026ZM28.025,53.593l4.3-16.055,4.349-1.165C35,41.36,30.964,48.621,28.025,53.593ZM14.741,40.309c6.108-3.61,15.677-8.882,20.231-9.391a12.954,12.954,0,0,1,3.263.534A9.259,9.259,0,0,0,42,31.913L47.91,30.33a6.347,6.347,0,0,0,.274,1.018Zm42.636-7.924A4.51,4.51,0,1,1,58.7,29.2,4.476,4.476,0,0,1,57.378,32.384ZM54.19,26.257a2.939,2.939,0,1,0,0,5.878h0a2.939,2.939,0,0,0,0-5.878Zm.752,3.692a1.089,1.089,0,0,1-1.5,0,1.064,1.064,0,0,1,1.5-1.5A1.066,1.066,0,0,1,54.942,29.949ZM34.076,32.841a1.05,1.05,0,1,0,1.05-1.05A1.05,1.05,0,0,0,34.076,32.841Zm5.062-15.758h0a2.939,2.939,0,1,0-2.078-.861A2.917,2.917,0,0,0,39.137,17.083Zm-.752-3.691a1.064,1.064,0,1,1,1.5,1.5,1.088,1.088,0,0,1-1.5,0,1.063,1.063,0,0,1,0-1.5Z" transform="translate(0)" fill="#fff"/>
          </g>
          <g id="noun_Syringe_374660" transform="translate(803.577 890.62) rotate(133)">
            <path id="Trazado_223" data-name="Trazado 223" d="M46.75,18.108l-7.12-7.119a.692.692,0,1,0-.978.978l3.071,3.071-4.155,4.157L31.4,13.024A.692.692,0,0,0,30.42,14l1.447,1.447L17.26,30.058a7.363,7.363,0,0,0-.466,9.909l-5.8,5.8a.692.692,0,0,0,.979.978l5.8-5.805a7.369,7.369,0,0,0,9.912-.465l14.6-14.607,1.446,1.447a.692.692,0,1,0,.979-.978l-6.169-6.169L42.7,16.015l3.07,3.071a.692.692,0,1,0,.978-.978ZM26.707,39.5a5.987,5.987,0,1,1-8.468-8.465l1.108-1.108L22.417,33a.692.692,0,1,0,.979-.978L20.325,28.95l2.4-2.4,3.069,3.072a.692.692,0,1,0,.979-.978L23.7,25.574l2.4-2.4,3.069,3.072a.692.692,0,0,0,.979-.978L27.075,22.2l2.4-2.4,3.071,3.071a.692.692,0,0,0,.979-.978l-3.071-3.072,2.4-2.4,8.465,8.467Z" fill="#fff"/>
          </g>
          <g id="noun_Scalpel_392535" transform="translate(782.805 888.549) rotate(-43)">
            <path id="Trazado_224" data-name="Trazado 224" d="M43.07,10.116a5.619,5.619,0,0,0-7.945,0L21.11,24.13a3.408,3.408,0,0,0-.664,3.862c-1.954,1.954-12.2,12.2-14.267,14.267a1.338,1.338,0,0,0-.436,1.327c.107.4.475.942,1.618,1.248a7.23,7.23,0,0,0,1.842.211A14.936,14.936,0,0,0,19.435,40.5a7.114,7.114,0,0,0,1.622-2.941,5.158,5.158,0,0,1,1.085-2.092l2.835-2.835a3.4,3.4,0,0,0,4.079-.554L43.074,18.061A5.626,5.626,0,0,0,43.07,10.116ZM21.208,34.533a6.306,6.306,0,0,0-1.4,2.594A5.88,5.88,0,0,1,18.5,39.565,13.083,13.083,0,0,1,8.32,43.676a2.509,2.509,0,0,1-1.272-.411.672.672,0,0,1,.064-.073C9.134,41.169,18.98,31.325,21.237,29.068l2.718,2.718ZM42.139,17.127,28.123,31.142a2.082,2.082,0,0,1-2.943,0l-3.136-3.135a2.087,2.087,0,0,1,0-2.945l1.015-1.015h4.283a.66.66,0,1,0,0-1.321H24.379l3.01-3.009h4.28a.661.661,0,0,0,0-1.321H28.71l3.008-3.008H36a.661.661,0,0,0,0-1.321h-2.96l3.02-3.021a4.3,4.3,0,0,1,6.08,6.079Z" transform="translate(0)" fill="#fff"/>
          </g>
        </g>
      </g>
    </g>
  </g>
</svg>
