<svg xmlns="http://www.w3.org/2000/svg" width="26" height="26" viewBox="0 0 26 26">
  <g id="Grupo_1164" data-name="Grupo 1164" transform="translate(-310 -885.5)">
    <g id="Grupo_1163" data-name="Grupo 1163" transform="translate(-3 420.5)">
      <g id="Grupo_1160" data-name="Grupo 1160" transform="translate(-6 -168)">
        <g id="Grupo_1158" data-name="Grupo 1158">
          <g id="Elipse_129" data-name="Elipse 129" transform="translate(319 633)" fill="none" stroke="#019f86" stroke-width="2">
            <circle cx="13" cy="13" r="13" stroke="none"/>
            <circle cx="13" cy="13" r="12" fill="none"/>
          </g>
        </g>
      </g>
    </g>
    <g id="noun_graduation_596705" transform="translate(307.153 866.813)">
      <path id="Trazado_331" data-name="Trazado 331" d="M24.733,31.393V29.66a.326.326,0,0,0-.089-.59l-8.964-2.49a.328.328,0,0,0-.175,0L6.54,29.07a.328.328,0,0,0,0,.631l3.54.983v4.1a.328.328,0,0,0,.314.327,9.995,9.995,0,0,1,2,.29,8.335,8.335,0,0,1,2.959,1.336.328.328,0,0,0,.2.067h.092a.326.326,0,0,0,.2-.067A8.326,8.326,0,0,1,18.8,35.4a9.99,9.99,0,0,1,2-.29.327.327,0,0,0,.314-.327V30.68l2.957-.821V31.4a.943.943,0,0,0-.647.894v1.676h1.964V32.291A.942.942,0,0,0,24.733,31.393Zm-9.141-4.158,6.447,1.791h-6.2a.328.328,0,1,0,0,.655h6.432l-6.674,1.854-7.74-2.15Zm4.873,7.241a10.708,10.708,0,0,0-1.821.292A9.029,9.029,0,0,0,15.6,36.105a9.028,9.028,0,0,0-3.045-1.338,10.7,10.7,0,0,0-1.82-.292V30.866L15.5,32.191a.334.334,0,0,0,.088.012.328.328,0,0,0,.087-.012l4.786-1.329v3.614Zm4.273-1.164h-.653v-1.02A.288.288,0,0,1,24.37,32h.085a.288.288,0,0,1,.284.291v1.02Z" transform="translate(0)" fill="#019f86" stroke="#019f86" stroke-width="0.7"/>
    </g>
  </g>
</svg>
