<svg xmlns="http://www.w3.org/2000/svg" width="37.627" height="37.627" viewBox="0 0 37.627 37.627">
  <g id="Grupo_1844" data-name="Grupo 1844" transform="translate(231.813 -60.681)">
    <circle id="Elipse_168" data-name="Elipse 168" cx="18.813" cy="18.813" r="18.813" transform="translate(-231.813 60.681)" fill="#0083d6"/>
    <g id="Grupo_1843" data-name="Grupo 1843">
      <g id="Grupo_1842" data-name="Grupo 1842">
        <path id="Trazado_467" data-name="Trazado 467" d="M-207.16,72.378a1.293,1.293,0,0,0-1.293,1.293,1.293,1.293,0,0,0,1.293,1.293,1.293,1.293,0,0,0,1.293-1.293A1.293,1.293,0,0,0-207.16,72.378Z" fill="#fff"/>
        <path id="Trazado_468" data-name="Trazado 468" d="M-212.909,74.036a5.439,5.439,0,0,0-5.433,5.432,5.439,5.439,0,0,0,5.433,5.433,5.439,5.439,0,0,0,5.432-5.433A5.438,5.438,0,0,0-212.909,74.036Zm0,8.912a3.484,3.484,0,0,1-3.48-3.48,3.483,3.483,0,0,1,3.48-3.479,3.483,3.483,0,0,1,3.479,3.479A3.484,3.484,0,0,1-212.909,82.948Z" fill="#fff"/>
        <path id="Trazado_469" data-name="Trazado 469" d="M-208.6,90.5H-217.4a6.633,6.633,0,0,1-6.625-6.626V75.065a6.633,6.633,0,0,1,6.625-6.626h8.807a6.633,6.633,0,0,1,6.626,6.626v8.807A6.634,6.634,0,0,1-208.6,90.5ZM-217.4,70.514a4.555,4.555,0,0,0-4.55,4.551v8.807a4.556,4.556,0,0,0,4.55,4.551h8.807a4.556,4.556,0,0,0,4.551-4.551V75.065a4.555,4.555,0,0,0-4.551-4.551Z" fill="#fff"/>
      </g>
    </g>
  </g>
</svg>
