<svg xmlns="http://www.w3.org/2000/svg" width="37.626" height="37.627" viewBox="0 0 37.626 37.627">
  <g id="Grupo_1841" data-name="Grupo 1841" transform="translate(289.813 -60.681)">
    <g id="Grupo_1840" data-name="Grupo 1840">
      <path id="Trazado_465" data-name="Trazado 465" d="M-252.187,79.5A18.813,18.813,0,0,0-271,60.681,18.813,18.813,0,0,0-289.813,79.5,18.816,18.816,0,0,0-273.94,98.079V84.933h-4.777V79.5h4.777V75.35c0-4.715,2.809-7.32,7.106-7.32a28.891,28.891,0,0,1,4.212.368v4.63h-2.373a2.718,2.718,0,0,0-3.065,2.938V79.5h5.217l-.834,5.438h-4.383V98.079A18.816,18.816,0,0,0-252.187,79.5Z" fill="#0083d6"/>
      <path id="Trazado_466" data-name="Trazado 466" d="M-263.677,84.933l.834-5.438h-5.217V75.966a2.718,2.718,0,0,1,3.065-2.938h2.373V68.4a28.891,28.891,0,0,0-4.212-.368c-4.3,0-7.106,2.605-7.106,7.32V79.5h-4.777v5.438h4.777V98.079a18.874,18.874,0,0,0,2.94.229,18.874,18.874,0,0,0,2.94-.229V84.933Z" fill="#fff"/>
    </g>
  </g>
</svg>
