<svg xmlns="http://www.w3.org/2000/svg" xmlns:xlink="http://www.w3.org/1999/xlink" width="68.242" height="68.242" viewBox="0 0 68.242 68.242">
  <defs>
    <filter id="Trazado_48" x="0" y="0" width="68.242" height="68.242" filterUnits="userSpaceOnUse">
      <feOffset dy="3" input="SourceAlpha"/>
      <feGaussianBlur stdDeviation="3" result="blur"/>
      <feFlood flood-opacity="0.161"/>
      <feComposite operator="in" in2="blur"/>
      <feComposite in="SourceGraphic"/>
    </filter>
  </defs>
  <g id="Grupo_2057" data-name="Grupo 2057" transform="translate(-128.424 -504)">
    <g id="Grupo_217" data-name="Grupo 217" transform="translate(137.424 510)">
      <g id="Grupo_216" data-name="Grupo 216" transform="translate(0)">
        <g id="Grupo_215" data-name="Grupo 215" transform="translate(0)">
          <g transform="matrix(1, 0, 0, 1, -9, -6)" filter="url(#Trazado_48)">
            <path id="Trazado_48-2" data-name="Trazado 48" d="M25.121,0A25.121,25.121,0,1,1,0,25.121,25.121,25.121,0,0,1,25.121,0Z" transform="translate(9 6)" fill="#e1f0f9"/>
          </g>
        </g>
        <g id="noun_Doctor_402604" transform="translate(9.759 6.021)">
          <path id="Trazado_46" data-name="Trazado 46" d="M37.73,26.668l-4.862-1.837a.575.575,0,0,0-.181-.438l-2.033-1.912a.567.567,0,0,0-.105-.078,9.86,9.86,0,0,0,1.968-3.66,2.607,2.607,0,0,0,2.1-2.823,2,2,0,0,0-.872-1.714,1.6,1.6,0,0,0-.809-.246c0-1.3-.008-2.723-.008-2.723,0-2.637-4.368-4.862-7.111-4.862-2.679,0-7.111,2.272-7.111,4.86L18.7,13.953a1.608,1.608,0,0,0-.81.252,2,2,0,0,0-.872,1.714,2.607,2.607,0,0,0,2.1,2.823,9.866,9.866,0,0,0,1.967,3.66.593.593,0,0,0-.106.078l-2.033,1.912a.577.577,0,0,0-.181.438l-4.862,1.837a4.548,4.548,0,0,0-3.258,4.249V39.43a.578.578,0,0,0,.578.578h29.18a.578.578,0,0,0,.578-.578V30.917A4.547,4.547,0,0,0,37.73,26.668ZM32.943,15.782c0-.165,0-.4,0-.67a.475.475,0,0,1,.182.066.869.869,0,0,1,.34.74,1.743,1.743,0,0,1-.648,1.479A10.458,10.458,0,0,0,32.943,15.782Zm-14.766.137a.868.868,0,0,1,.339-.74.465.465,0,0,1,.183-.066l0,.67a10.482,10.482,0,0,0,.128,1.618A1.74,1.74,0,0,1,18.176,15.92Zm13.433,9.047a6.9,6.9,0,0,1-2.692,3.012,3.329,3.329,0,0,0-1.452-1.69A8.889,8.889,0,0,0,30.38,23.81ZM19.865,11.236c0-1.682,3.657-3.705,5.954-3.705,2.56,0,5.954,2.112,5.954,3.707,0,0,0,.822.006,1.786a9.373,9.373,0,0,0-2.83-1.053c0-.06.009-.119.009-.18a3.14,3.14,0,1,0-6.279,0c0,.059.006.117.009.176a9.432,9.432,0,0,0-2.828,1.044Zm7.937.555A1.983,1.983,0,1,1,25.82,9.808,1.986,1.986,0,0,1,27.8,11.791Zm-7.949,3.993,0-1.391a7.9,7.9,0,0,1,3.108-1.3,3.134,3.134,0,0,0,5.707,0,7.83,7.83,0,0,1,3.111,1.317c0,.569,0,1.077,0,1.372,0,4.2-2.788,7.875-5.967,7.875S19.854,19.978,19.854,15.784Zm1.405,8.027a8.9,8.9,0,0,0,2.915,2.478,3.333,3.333,0,0,0-1.453,1.69,6.9,6.9,0,0,1-2.691-3.012Zm-.9,7.7a.832.832,0,1,1-.831.832A.833.833,0,0,1,20.364,31.508Zm4.878,7.344H15.486V32.437a.578.578,0,0,0-1.156,0v6.415H11.808V30.917a3.4,3.4,0,0,1,2.51-3.168L19.2,25.9a7.9,7.9,0,0,0,.581.924v3.619a1.988,1.988,0,1,0,1.156,0V28.1a8.134,8.134,0,0,0,1.909,1.261.579.579,0,0,0,.822-.452A2.158,2.158,0,0,1,25.242,27.1V38.852ZM22.928,23.97a5.374,5.374,0,0,0,5.782,0,10.217,10.217,0,0,1-2.89,1.837A10.215,10.215,0,0,1,22.928,23.97Zm16.9,14.882H37.31V32.437a.578.578,0,1,0-1.156,0v6.415H26.4V27.1a2.158,2.158,0,0,1,1.568,1.811.579.579,0,0,0,.823.453A8.114,8.114,0,0,0,30.7,28.1v3.625A3.277,3.277,0,0,0,28,34.943v1.872a.578.578,0,0,0,.578.578h.687a.578.578,0,1,0,0-1.156h-.109V34.943a2.117,2.117,0,0,1,4.235,0v1.293h-.108a.578.578,0,1,0,0,1.156h.686a.578.578,0,0,0,.578-.578V34.943a3.276,3.276,0,0,0-2.7-3.219v-4.9a7.9,7.9,0,0,0,.581-.924l4.886,1.846a3.4,3.4,0,0,1,2.51,3.168v7.934ZM25.159,11.791a.661.661,0,1,0,.661-.661A.661.661,0,0,0,25.159,11.791Zm-1.422,9.124a3.783,3.783,0,0,0,4.164,0,.578.578,0,0,0-.671-.942,2.639,2.639,0,0,1-2.821,0,.578.578,0,0,0-.672.941Z" transform="translate(-10.651 -6.375)" fill="#1575d4"/>
        </g>
      </g>
    </g>
  </g>
</svg>
