<svg xmlns="http://www.w3.org/2000/svg" xmlns:xlink="http://www.w3.org/1999/xlink" width="70" height="70" viewBox="0 0 70 70">
  <defs>
    <filter id="Elipse_7" x="0" y="0" width="70" height="70" filterUnits="userSpaceOnUse">
      <feOffset dy="3" input="SourceAlpha"/>
      <feGaussianBlur stdDeviation="3" result="blur"/>
      <feFlood flood-opacity="0.161"/>
      <feComposite operator="in" in2="blur"/>
      <feComposite in="SourceGraphic"/>
    </filter>
  </defs>
  <g id="Grupo_2058" data-name="Grupo 2058" transform="translate(-129.576 -572)">
    <g id="Grupo_810" data-name="Grupo 810" transform="translate(-267.424 578)">
      <g id="Grupo_809" data-name="Grupo 809" transform="translate(406)">
        <g id="Grupo_257" data-name="Grupo 257">
          <g id="Grupo_56" data-name="Grupo 56">
            <g transform="matrix(1, 0, 0, 1, -9, -6)" filter="url(#Elipse_7)">
              <circle id="Elipse_7-2" data-name="Elipse 7" cx="26" cy="26" r="26" transform="translate(9 6)" fill="#e8fffc"/>
            </g>
          </g>
        </g>
        <g id="Grupo_512" data-name="Grupo 512" transform="translate(9.404 12.171)">
          <g id="Grupo_179" data-name="Grupo 179" transform="translate(0 0)">
            <g id="noun_Hospital_374992" transform="translate(0 0)">
              <path id="Trazado_45" data-name="Trazado 45" d="M39,21.97H30.764V13.524a.571.571,0,0,0-.571-.571H15.68a.571.571,0,0,0-.571.571V21.97H6.873a.571.571,0,0,0-.571.571V40.587a.57.57,0,0,0,.571.571H39a.57.57,0,0,0,.571-.571V22.541A.571.571,0,0,0,39,21.97ZM15.109,40.016H7.444v-16.9H15.11v16.9Zm7.256,0H20.257V35.752h2.109Zm3.252,0h-2.11V35.752h2.11Zm4,0H26.759V35.181a.571.571,0,0,0-.571-.571h-6.5a.571.571,0,0,0-.571.571v4.835H16.252V14.1h13.37Zm8.808,0H30.764v-16.9H38.43v16.9Zm-20.12-11.3h3.085a.571.571,0,0,0,.571-.571V26.236a.571.571,0,0,0-.571-.571H18.309a.571.571,0,0,0-.571.571v1.905A.571.571,0,0,0,18.309,28.712Zm.571-1.905h1.943v.763H18.88ZM9.734,28.712h3.085a.571.571,0,0,0,.571-.571V26.236a.571.571,0,0,0-.571-.571H9.734a.571.571,0,0,0-.571.571v1.905A.571.571,0,0,0,9.734,28.712Zm.571-1.905h1.943v.763H10.3Zm-.571,6.364h3.085a.57.57,0,0,0,.571-.571v-1.9a.571.571,0,0,0-.571-.571H9.734a.571.571,0,0,0-.571.571v1.9A.57.57,0,0,0,9.734,33.171Zm.571-1.9h1.943v.763H10.3ZM9.734,37.63h3.085a.57.57,0,0,0,.571-.571v-1.9a.571.571,0,0,0-.571-.571H9.734a.571.571,0,0,0-.571.571v1.9A.571.571,0,0,0,9.734,37.63Zm.571-1.9h1.943v.763H10.3Zm22.749-7.013h3.085a.571.571,0,0,0,.571-.571V26.236a.571.571,0,0,0-.571-.571H33.054a.571.571,0,0,0-.571.571v1.905A.571.571,0,0,0,33.054,28.712Zm.571-1.905h1.943v.763H33.625Zm-.571,6.364h3.085a.571.571,0,0,0,.571-.571v-1.9a.571.571,0,0,0-.571-.571H33.054a.571.571,0,0,0-.571.571v1.9A.57.57,0,0,0,33.054,33.171Zm.571-1.9h1.943v.763H33.625Zm-.571,6.364h3.085a.571.571,0,0,0,.571-.571v-1.9a.571.571,0,0,0-.571-.571H33.054a.571.571,0,0,0-.571.571v1.9A.57.57,0,0,0,33.054,37.63Zm.571-1.9h1.943v.763H33.625Zm-9.717-9.49v1.905a.571.571,0,0,0,.571.571h3.085a.571.571,0,0,0,.571-.571V26.236a.571.571,0,0,0-.571-.571H24.479A.571.571,0,0,0,23.908,26.236Zm1.142.571h1.943v.763H25.05Zm-6.74,6.365h3.085a.571.571,0,0,0,.571-.571V30.695a.571.571,0,0,0-.571-.571H18.309a.571.571,0,0,0-.571.571V32.6A.571.571,0,0,0,18.309,33.171Zm.571-1.905h1.943v.764H18.88Zm8.683-1.142H24.479a.571.571,0,0,0-.571.571V32.6a.571.571,0,0,0,.571.571h3.085a.571.571,0,0,0,.571-.571V30.7A.571.571,0,0,0,27.563,30.124Zm-.571,1.905H25.05v-.764h1.943Z" transform="translate(-6.302 -12.953)" fill="#019f86"/>
            </g>
          </g>
          <g id="noun_Helipad_392505" transform="translate(12.113 2.443)">
            <path id="Trazado_120" data-name="Trazado 120" d="M12.844,7.758a4.264,4.264,0,1,0,4.264,4.264A4.269,4.269,0,0,0,12.844,7.758Zm0,8.22A3.955,3.955,0,1,1,16.8,12.022,3.96,3.96,0,0,1,12.844,15.978Zm2.248-6.5h-1.51a.154.154,0,0,0-.154.154v1.481H12.261V9.631a.154.154,0,0,0-.154-.154H10.6a.154.154,0,0,0-.154.154v4.782a.154.154,0,0,0,.154.154h1.51a.154.154,0,0,0,.154-.154V12.932h1.167v1.482a.154.154,0,0,0,.154.154h1.51a.154.154,0,0,0,.154-.154V9.631A.154.154,0,0,0,15.092,9.477Zm-.154,4.782h-1.2V12.777a.154.154,0,0,0-.154-.154H12.106a.154.154,0,0,0-.154.154v1.482h-1.2V9.786h1.2v1.481a.154.154,0,0,0,.154.154h1.476a.154.154,0,0,0,.154-.154V9.786h1.2Z" transform="translate(-8.58 -7.758)" fill="#019f86" stroke="#019f86" stroke-width="0.5"/>
          </g>
        </g>
      </g>
    </g>
  </g>
</svg>
