<svg xmlns="http://www.w3.org/2000/svg" width="80.058" height="56.75" viewBox="0 0 80.058 56.75">
  <g id="Grupo_21" data-name="Grupo 21" transform="translate(-265.5 -109.679)">
    <g id="Grupo_196" data-name="Grupo 196" transform="translate(257 83)">
      <path id="chevron-down" d="M6,9l5.426,5.426L16.853,9" transform="translate(70.29 47.341)" fill="none" stroke="#fff" stroke-linecap="round" stroke-linejoin="round" stroke-width="2"/>
      <g id="noun_User_1768489" transform="translate(8.5 26.679)">
        <g id="Grupo_10" data-name="Grupo 10" transform="translate(0 0)">
          <path id="Trazado_7" data-name="Trazado 7" d="M29.375,1A28.359,28.359,0,0,0,10.458,50.5v.02l.411.355c.072.063.151.115.225.176q.764.646,1.574,1.238c.145.106.291.209.439.312q.858.6,1.758,1.144c.1.06.2.117.3.175.659.383,1.331.744,2.022,1.074l.021.009a28.183,28.183,0,0,0,4.629,1.721c.03.008.059.018.089.025q1.137.31,2.31.524l.219.039c.754.132,1.518.238,2.292.31.089.008.177.013.265.02.779.065,1.564.106,2.36.106s1.581-.041,2.36-.106c.089-.007.177-.012.265-.02.774-.071,1.538-.177,2.292-.31l.219-.039q1.172-.215,2.31-.524l.089-.025A28.183,28.183,0,0,0,41.539,55L41.56,55c.69-.33,1.363-.692,2.022-1.074.1-.059.2-.115.3-.175.6-.359,1.187-.744,1.758-1.144.147-.1.293-.206.439-.312q.809-.592,1.574-1.238c.073-.061.153-.114.225-.176l.411-.355V50.5A28.359,28.359,0,0,0,29.375,1Zm0,28.375a9.458,9.458,0,1,1,9.458-9.458A9.469,9.469,0,0,1,29.375,29.375Zm3.547,2.365A13.021,13.021,0,0,1,45.927,44.745v4.68c-.05.041-.1.079-.151.121q-.7.569-1.435,1.085c-.109.077-.215.156-.324.231-.528.361-1.071.7-1.623,1.019-.1.059-.2.117-.3.175-.579.325-1.169.63-1.771.909-.063.03-.127.058-.19.086a26.025,26.025,0,0,1-6.162,1.922l-.2.037q-1.006.172-2.028.266c-.093.008-.188.014-.283.021-.689.053-1.382.089-2.078.089s-1.389-.035-2.078-.091c-.093-.007-.188-.013-.283-.021q-1.022-.094-2.028-.266l-.2-.037a26.025,26.025,0,0,1-6.162-1.922c-.064-.03-.128-.057-.19-.086-.6-.279-1.192-.584-1.771-.909l-.3-.175c-.552-.319-1.095-.659-1.623-1.019-.11-.074-.216-.154-.324-.231-.489-.345-.968-.7-1.435-1.085-.05-.04-.1-.079-.151-.121V44.745A13.021,13.021,0,0,1,25.828,31.74ZM48.292,47.2V44.745A15.4,15.4,0,0,0,36.02,29.688a11.823,11.823,0,1,0-13.289,0A15.4,15.4,0,0,0,10.458,44.745V47.2a26.011,26.011,0,1,1,37.833,0Z" transform="translate(-1 -1)" fill="#fff"/>
        </g>
      </g>
    </g>
  </g>
</svg>
