<svg xmlns="http://www.w3.org/2000/svg" width="47" height="47" viewBox="0 0 47 47">
  <g id="Grupo_185" data-name="Grupo 185" transform="translate(-1386 91)">
    <g id="Elipse_16" data-name="Elipse 16" transform="translate(1386 -91)" fill="none" stroke="#fff" stroke-width="1.5">
      <circle cx="23.5" cy="23.5" r="23.5" stroke="none"/>
      <circle cx="23.5" cy="23.5" r="22.75" fill="none"/>
    </g>
    <g id="noun_Doctor_402604" transform="translate(1383.849 -92.38)">
      <path id="Trazado_46" data-name="Trazado 46" d="M37.425,26.44l-4.807-1.817a.569.569,0,0,0-.179-.433L30.428,22.3a.561.561,0,0,0-.1-.077A9.749,9.749,0,0,0,32.27,18.6a2.578,2.578,0,0,0,2.08-2.792,1.978,1.978,0,0,0-.862-1.695,1.58,1.58,0,0,0-.8-.243c0-1.285-.008-2.692-.008-2.692,0-2.607-4.318-4.807-7.031-4.807-2.649,0-7.031,2.247-7.031,4.806l-.007,2.687a1.59,1.59,0,0,0-.8.25,1.978,1.978,0,0,0-.862,1.695,2.578,2.578,0,0,0,2.08,2.792,9.755,9.755,0,0,0,1.945,3.619.586.586,0,0,0-.1.077l-2.01,1.891a.57.57,0,0,0-.179.433L13.872,26.44a4.5,4.5,0,0,0-3.221,4.2v8.417a.572.572,0,0,0,.572.572H40.075a.572.572,0,0,0,.572-.572V30.641A4.5,4.5,0,0,0,37.425,26.44ZM32.692,15.677c0-.163,0-.395,0-.662a.469.469,0,0,1,.18.066.859.859,0,0,1,.336.732,1.723,1.723,0,0,1-.641,1.463A10.34,10.34,0,0,0,32.692,15.677Zm-14.6.136a.858.858,0,0,1,.335-.732.46.46,0,0,1,.181-.066l0,.662a10.364,10.364,0,0,0,.127,1.6A1.721,1.721,0,0,1,18.092,15.812Zm13.282,8.945a6.824,6.824,0,0,1-2.662,2.978,3.292,3.292,0,0,0-1.436-1.671,8.789,8.789,0,0,0,2.882-2.451ZM19.762,11.182c0-1.663,3.616-3.664,5.887-3.664,2.531,0,5.887,2.088,5.887,3.666,0,0,0,.813.006,1.765a9.268,9.268,0,0,0-2.8-1.041c0-.059.009-.118.009-.178a3.1,3.1,0,1,0-6.209,0c0,.059.006.116.009.174a9.326,9.326,0,0,0-2.8,1.033Zm7.848.548a1.961,1.961,0,1,1-1.961-1.961A1.963,1.963,0,0,1,27.61,11.73Zm-7.86,3.948,0-1.375a7.814,7.814,0,0,1,3.073-1.288,3.1,3.1,0,0,0,5.643,0,7.742,7.742,0,0,1,3.076,1.3c0,.563,0,1.065,0,1.356,0,4.148-2.757,7.787-5.9,7.787S19.75,19.825,19.75,15.678Zm1.39,7.937a8.8,8.8,0,0,0,2.882,2.45,3.3,3.3,0,0,0-1.436,1.671,6.818,6.818,0,0,1-2.661-2.978Zm-.885,7.611a.823.823,0,1,1-.822.823A.824.824,0,0,1,20.254,31.226Zm4.823,7.261H15.432V32.144a.572.572,0,1,0-1.143,0v6.343H11.795V30.641a3.36,3.36,0,0,1,2.482-3.132l4.831-1.825a7.814,7.814,0,0,0,.575.914v3.579a1.966,1.966,0,1,0,1.143,0V27.855A8.042,8.042,0,0,0,22.714,29.1a.572.572,0,0,0,.813-.447,2.134,2.134,0,0,1,1.551-1.791V38.487ZM22.79,23.772a5.314,5.314,0,0,0,5.717,0,10.1,10.1,0,0,1-2.857,1.816A10.1,10.1,0,0,1,22.79,23.772ZM39.5,38.487H37.01V32.144a.572.572,0,1,0-1.143,0v6.343H26.221V26.863a2.134,2.134,0,0,1,1.55,1.791.572.572,0,0,0,.813.447,8.022,8.022,0,0,0,1.888-1.247v3.584a3.24,3.24,0,0,0-2.665,3.183v1.85a.572.572,0,0,0,.572.572h.679a.572.572,0,0,0,0-1.143H28.95V34.622a2.093,2.093,0,0,1,4.187,0V35.9H33.03a.572.572,0,1,0,0,1.143h.678a.571.571,0,0,0,.572-.572v-1.85a3.24,3.24,0,0,0-2.665-3.183V26.6a7.813,7.813,0,0,0,.575-.914l4.831,1.825A3.36,3.36,0,0,1,39.5,30.642ZM25,11.73a.653.653,0,1,0,.654-.654A.654.654,0,0,0,25,11.73Zm-1.406,9.021a3.741,3.741,0,0,0,4.117,0,.572.572,0,1,0-.663-.932,2.609,2.609,0,0,1-2.789,0,.572.572,0,0,0-.665.931Z" transform="translate(0 0)" fill="#fff"/>
    </g>
  </g>
</svg>
