<svg id="noun_User_1768489" xmlns="http://www.w3.org/2000/svg" width="47" height="47" viewBox="0 0 47 47">
  <g id="Grupo_10" data-name="Grupo 10" transform="translate(0 0)">
    <path id="Trazado_7" data-name="Trazado 7" d="M24.5,1A23.487,23.487,0,0,0,8.833,42v.017l.341.294c.06.052.125.095.186.146q.633.535,1.3,1.025c.12.088.241.173.363.258q.711.5,1.456.948c.083.05.168.1.252.145.545.317,1.1.616,1.674.889l.018.008a23.341,23.341,0,0,0,3.833,1.426l.073.021q.941.257,1.913.434l.181.032c.625.11,1.257.2,1.9.257.073.007.147.011.219.017.645.054,1.3.088,1.954.088s1.309-.034,1.954-.088c.073-.006.147-.01.219-.017.641-.059,1.274-.147,1.9-.257l.181-.032q.971-.178,1.913-.434l.073-.021a23.341,23.341,0,0,0,3.833-1.426l.018-.008c.572-.273,1.129-.573,1.674-.889.084-.049.168-.095.252-.145.5-.3.983-.616,1.456-.948.121-.085.243-.17.363-.259q.67-.491,1.3-1.025c.061-.051.126-.094.186-.146l.341-.294V42A23.487,23.487,0,0,0,24.5,1Zm0,23.5a7.833,7.833,0,1,1,7.833-7.833A7.842,7.842,0,0,1,24.5,24.5Zm2.938,1.958A10.784,10.784,0,0,1,38.208,37.229V41.1c-.041.034-.084.066-.125.1q-.58.471-1.189.9c-.09.064-.178.129-.268.191-.438.3-.887.579-1.344.844-.083.049-.167.1-.252.145-.48.269-.968.522-1.467.753l-.158.071A21.554,21.554,0,0,1,28.3,45.7l-.167.03q-.833.142-1.679.22c-.077.007-.156.012-.234.018-.571.044-1.145.073-1.721.073s-1.151-.029-1.721-.075l-.234-.018q-.846-.078-1.679-.22L20.7,45.7a21.554,21.554,0,0,1-5.1-1.592l-.158-.071c-.5-.231-.987-.484-1.467-.753l-.252-.145c-.457-.264-.907-.545-1.344-.844-.091-.062-.179-.127-.268-.191-.405-.286-.8-.584-1.189-.9-.041-.033-.084-.066-.125-.1V37.229A10.784,10.784,0,0,1,21.563,26.458Zm12.729,12.8V37.229A12.752,12.752,0,0,0,30,24.759a9.792,9.792,0,1,0-11.006,0A12.752,12.752,0,0,0,8.833,37.229v2.033a21.542,21.542,0,1,1,31.333,0Z" transform="translate(-1 -1)" fill="#232323"/>
  </g>
</svg>
