<svg xmlns="http://www.w3.org/2000/svg" width="47" height="47" viewBox="0 0 47 47">
  <g id="Grupo_188" data-name="Grupo 188" transform="translate(0 -0.256)">
    <g id="Grupo_186" data-name="Grupo 186">
      <g id="Grupo_177" data-name="Grupo 177">
        <g id="Elipse_16" data-name="Elipse 16" transform="translate(0 0.256)" fill="none" stroke="#fff" stroke-width="1.5">
          <circle cx="23.5" cy="23.5" r="23.5" stroke="none"/>
          <circle cx="23.5" cy="23.5" r="22.75" fill="none"/>
        </g>
      </g>
      <g id="Grupo_180" data-name="Grupo 180" transform="translate(6.111 5.441)">
        <g id="noun_Hospital_374992">
          <path id="Trazado_45" data-name="Trazado 45" d="M40.484,22.379h-8.61V13.55a.6.6,0,0,0-.6-.6H16.106a.6.6,0,0,0-.6.6v8.829H6.9a.6.6,0,0,0-.6.6V41.841a.6.6,0,0,0,.6.6H40.484a.6.6,0,0,0,.6-.6V22.976A.6.6,0,0,0,40.484,22.379ZM15.509,41.244H7.5V23.572h8.013V41.244Zm7.586,0h-2.2V36.787h2.2Zm3.4,0H24.288V36.787h2.205Zm4.186,0H27.687V36.19a.6.6,0,0,0-.6-.6h-6.8a.6.6,0,0,0-.6.6v5.054H16.7v-27.1H30.68Zm9.207,0H31.874V23.572h8.014V41.244ZM18.854,29.427h3.225a.6.6,0,0,0,.6-.6V26.838a.6.6,0,0,0-.6-.6H18.854a.6.6,0,0,0-.6.6V28.83A.6.6,0,0,0,18.854,29.427Zm.6-1.992h2.031v.8H19.451ZM9.889,29.427h3.225a.6.6,0,0,0,.6-.6V26.838a.6.6,0,0,0-.6-.6H9.889a.6.6,0,0,0-.6.6V28.83A.6.6,0,0,0,9.889,29.427Zm.6-1.992h2.031v.8H10.486Zm-.6,6.653h3.225a.6.6,0,0,0,.6-.6V31.5a.6.6,0,0,0-.6-.6H9.889a.6.6,0,0,0-.6.6v1.991A.6.6,0,0,0,9.889,34.088Zm.6-1.991h2.031v.8H10.486Zm-.6,6.653h3.225a.6.6,0,0,0,.6-.6V36.162a.6.6,0,0,0-.6-.6H9.889a.6.6,0,0,0-.6.6v1.991A.6.6,0,0,0,9.889,38.75Zm.6-1.991h2.031v.8H10.486Zm23.781-7.332h3.225a.6.6,0,0,0,.6-.6V26.838a.6.6,0,0,0-.6-.6H34.268a.6.6,0,0,0-.6.6V28.83A.6.6,0,0,0,34.268,29.427Zm.6-1.992H36.9v.8H34.865Zm-.6,6.653h3.225a.6.6,0,0,0,.6-.6V31.5a.6.6,0,0,0-.6-.6H34.268a.6.6,0,0,0-.6.6v1.991A.6.6,0,0,0,34.268,34.088Zm.6-1.991H36.9v.8H34.865Zm-.6,6.653h3.225a.6.6,0,0,0,.6-.6V36.162a.6.6,0,0,0-.6-.6H34.268a.6.6,0,0,0-.6.6v1.991A.6.6,0,0,0,34.268,38.75Zm.6-1.991H36.9v.8H34.865Zm-10.158-9.92V28.83a.6.6,0,0,0,.6.6h3.225a.6.6,0,0,0,.6-.6V26.838a.6.6,0,0,0-.6-.6H25.3A.6.6,0,0,0,24.706,26.838Zm1.194.6h2.031v.8H25.9Zm-7.046,6.654h3.225a.6.6,0,0,0,.6-.6V31.5a.6.6,0,0,0-.6-.6H18.854a.6.6,0,0,0-.6.6v1.992A.6.6,0,0,0,18.854,34.089Zm.6-1.992h2.031v.8H19.451ZM28.528,30.9H25.3a.6.6,0,0,0-.6.6v1.992a.6.6,0,0,0,.6.6h3.225a.6.6,0,0,0,.6-.6V31.5A.6.6,0,0,0,28.528,30.9Zm-.6,1.992H25.9v-.8h2.031Z" transform="translate(-6.302 -12.953)" fill="#fff"/>
          <g id="Elipse_17" data-name="Elipse 17" transform="translate(12.89 2.067)" fill="none" stroke="#fff" stroke-width="1">
            <circle cx="4.15" cy="4.15" r="4.15" stroke="none"/>
            <circle cx="4.15" cy="4.15" r="3.65" fill="none"/>
          </g>
        </g>
        <text id="H" transform="translate(14.89 2.067)" fill="#fff" font-size="6" font-family="Quicksand-Bold, Quicksand" font-weight="700"><tspan x="0" y="6">H</tspan></text>
      </g>
    </g>
  </g>
</svg>
