<svg xmlns="http://www.w3.org/2000/svg" width="47" height="47" viewBox="0 0 47 47">
  <g id="Grupo_1530" data-name="Grupo 1530" transform="translate(-1542 -211)">
    <g id="Grupo_178" data-name="Grupo 178" transform="translate(156 302)">
      <g id="Elipse_16" data-name="Elipse 16" transform="translate(1386 -91)" fill="none" stroke="#fff" stroke-width="1.5">
        <circle cx="23.5" cy="23.5" r="23.5" stroke="none"/>
        <circle cx="23.5" cy="23.5" r="22.75" fill="none"/>
      </g>
    </g>
    <g id="noun_Conversation_3730440" transform="translate(1541 209.747)">
      <path id="Trazado_390" data-name="Trazado 390" d="M15.221,21.22a2.385,2.385,0,1,0,2.385,2.385A2.388,2.388,0,0,0,15.221,21.22Zm0,3.482a1.1,1.1,0,1,1,1.1-1.1A1.1,1.1,0,0,1,15.221,24.7Z" transform="translate(-1.105 -2.263)" fill="#fbfbfb"/>
      <path id="Trazado_391" data-name="Trazado 391" d="M26.922,23.605a2.385,2.385,0,1,0-2.385,2.385A2.388,2.388,0,0,0,26.922,23.605Zm-2.385,1.1a1.1,1.1,0,1,1,1.1-1.1A1.1,1.1,0,0,1,24.537,24.7Z" transform="translate(-3.456 -2.263)" fill="#fbfbfb"/>
      <path id="Trazado_392" data-name="Trazado 392" d="M33.853,25.99a2.385,2.385,0,1,0-2.385-2.385A2.388,2.388,0,0,0,33.853,25.99Zm0-3.482a1.1,1.1,0,1,1-1.1,1.1A1.1,1.1,0,0,1,33.853,22.508Z" transform="translate(-5.807 -2.263)" fill="#fbfbfb"/>
      <path id="Trazado_393" data-name="Trazado 393" d="M38.69,20.7H33.7V14.624a2.374,2.374,0,0,0-2.371-2.371H10.83A2.374,2.374,0,0,0,8.46,14.624V28.06a2.374,2.374,0,0,0,2.371,2.371h2.322v4.231a.644.644,0,0,0,1.1.455l4.687-4.686h1.947v2.617a1.979,1.979,0,0,0,1.977,1.977H32.37L35.944,38.6a.644.644,0,0,0,1.1-.455V35.025H38.69a1.979,1.979,0,0,0,1.977-1.977V22.675A1.979,1.979,0,0,0,38.69,20.7ZM18.673,29.143a.644.644,0,0,0-.455.189l-3.776,3.776v-3.32a.644.644,0,0,0-.644-.644H10.83A1.084,1.084,0,0,1,9.748,28.06V14.624a1.084,1.084,0,0,1,1.083-1.083h20.5a1.084,1.084,0,0,1,1.083,1.083V28.06a1.084,1.084,0,0,1-1.083,1.083H18.673Zm20.706,3.905a.689.689,0,0,1-.689.689H36.4a.644.644,0,0,0-.644.644v2.209l-2.664-2.664a.644.644,0,0,0-.455-.189H22.863a.689.689,0,0,1-.689-.689V30.431h9.157A2.374,2.374,0,0,0,33.7,28.06V21.986H38.69a.689.689,0,0,1,.689.689V33.048Z" fill="#fbfbfb"/>
    </g>
  </g>
</svg>
