<svg xmlns="http://www.w3.org/2000/svg" width="47" height="47" viewBox="0 0 47 47">
  <g id="Grupo_1922" data-name="Grupo 1922" transform="translate(3113 3522)">
    <g id="Grupo_185" data-name="Grupo 185" transform="translate(-3113 -3522)">
      <g id="Grupo_1854" data-name="Grupo 1854">
        <g id="Elipse_16" data-name="Elipse 16" fill="none" stroke="#fff" stroke-width="1.5">
          <circle cx="23.5" cy="23.5" r="23.5" stroke="none"/>
          <circle cx="23.5" cy="23.5" r="22.75" fill="none"/>
        </g>
      </g>
      <g id="noun_agenda_1082756" transform="translate(-18.014 -19.098)">
        <path id="Trazado_473" data-name="Trazado 473" d="M54.309,43.142V32.308a1.772,1.772,0,0,0-1.769-1.769H49V28.769a1.769,1.769,0,0,0-3.539,0v1.769H34.847V28.769a1.769,1.769,0,1,0-3.539,0v1.769H27.769A1.772,1.772,0,0,0,26,32.308V52.361a1.772,1.772,0,0,0,1.769,1.769H43.322A8.25,8.25,0,1,0,54.309,43.142ZM46.642,28.769a.59.59,0,0,1,1.18,0v3.539a.59.59,0,0,1-1.18,0Zm-14.155,0a.59.59,0,0,1,1.18,0v3.539a.59.59,0,1,1-1.18,0ZM27.769,52.95a.591.591,0,0,1-.59-.59V32.308a.591.591,0,0,1,.59-.59h3.539v.59a1.769,1.769,0,1,0,3.539,0v-.59H45.463v.59a1.769,1.769,0,0,0,3.539,0v-.59H52.54a.591.591,0,0,1,.59.59V42.682a8.218,8.218,0,0,0-1.18-.254V36.436H28.359V51.771H42.6v-.025a8.226,8.226,0,0,0,.257,1.2ZM48.412,42.334H46.053V39.975h2.359ZM44.873,38.8v4.718H46.54a8.251,8.251,0,0,0-4.026,7.077H29.539V37.616H50.771v4.718a8.188,8.188,0,0,0-1.18.094V38.8Zm5.9,18.873a7.077,7.077,0,1,1,7.077-7.077A7.085,7.085,0,0,1,50.771,57.669Zm0-12.975a5.9,5.9,0,1,0,5.9,5.9A5.9,5.9,0,0,0,50.771,44.693Zm0,10.616a4.718,4.718,0,1,1,4.718-4.718A4.724,4.724,0,0,1,50.771,55.309Zm3.539-4.718a.59.59,0,0,1-.59.59H50.771a.59.59,0,0,1-.59-.59V47.053a.59.59,0,1,1,1.18,0V50H53.72A.59.59,0,0,1,54.309,50.591ZM30.718,43.514h4.718V38.8H30.718Zm1.18-3.539h2.359v2.359H31.9Zm5.9,3.539h4.718V38.8H37.8Zm1.18-3.539h2.359v2.359H38.975Zm-8.257,9.436h4.718V44.693H30.718Zm1.18-3.539h2.359v2.359H31.9Zm5.9,3.539h4.718V44.693H37.8Zm1.18-3.539h2.359v2.359H38.975Z" fill="#fff"/>
      </g>
    </g>
  </g>
</svg>
