<svg xmlns="http://www.w3.org/2000/svg" width="47" height="47" viewBox="0 0 47 47">
  <g id="Grupo_190" data-name="Grupo 190" transform="translate(-1542 -211)">
    <g id="Grupo_178" data-name="Grupo 178" transform="translate(156 302)">
      <g id="Elipse_16" data-name="Elipse 16" transform="translate(1386 -91)" fill="none" stroke="#fff" stroke-width="1.5">
        <circle cx="23.5" cy="23.5" r="23.5" stroke="none"/>
        <circle cx="23.5" cy="23.5" r="22.75" fill="none"/>
      </g>
    </g>
    <g id="Grupo_184" data-name="Grupo 184" transform="translate(292.945 323)">
      <g id="noun_End_devices_1612507" data-name="noun_End devices_1612507" transform="translate(1254.185 -102.64)">
        <g id="Grupo_182" data-name="Grupo 182" transform="translate(0 0)">
          <path id="Trazado_94" data-name="Trazado 94" d="M244.942,234.444h-2.676V224.138a.99.99,0,0,0-.988-.989H213.759a.99.99,0,0,0-.989.989v7.507h-2.327a1.259,1.259,0,0,0-1.258,1.258v14.063a1.259,1.259,0,0,0,1.258,1.258h9.213a1.259,1.259,0,0,0,1.258-1.258V243.74H223.5l-.7,4.964h-1.129a.112.112,0,1,0,0,.224h11.533a.112.112,0,1,0,0-.224h-.976l-.7-4.964h6.849v3.5a.983.983,0,0,0,.982.981h5.577a.983.983,0,0,0,.982-.981V235.426A.984.984,0,0,0,244.942,234.444ZM213,224.138a.765.765,0,0,1,.764-.764h27.519a.764.764,0,0,1,.762.764v10.306h-1.307v-9.722a.113.113,0,0,0-.113-.113h-26.2a.113.113,0,0,0-.113.113v6.923h-1.309v-7.507Zm7.693,22.827A1.034,1.034,0,0,1,219.655,248h-9.213a1.033,1.033,0,0,1-1.032-1.033V232.9a1.033,1.033,0,0,1,1.032-1.032h9.213a1.034,1.034,0,0,1,1.033,1.032v14.063ZM232,248.7h-8.973l.7-4.963h7.578Zm6.379-5.188h-17.47v-3.059h17.47Zm0-3.285h-17.47V232.9c0-.183-.1-.322-.378-.738a1.381,1.381,0,0,0-.8-.519h-5.2v-6.81h25.979v9.61h-1.142c-1.18.188-.982.441-.982,5.786Zm-17.47-1.859Zm0-2.069v0Zm0-2.069v0ZM245.7,247.241a.757.757,0,0,1-.757.757h-5.577a.758.758,0,0,1-.758-.757V235.426a.758.758,0,0,1,.758-.757h5.577a.757.757,0,0,1,.757.757Z" transform="translate(-209.185 -223.149)" fill="#fff" stroke="#fff" stroke-width="0.5"/>
          <path id="Trazado_95" data-name="Trazado 95" d="M289.934,255.749h-4.989a.1.1,0,0,0-.089.108v10.132a.1.1,0,0,0,.089.108h4.989a.1.1,0,0,0,.089-.108V255.857A.1.1,0,0,0,289.934,255.749Zm-.088,10.132h-4.811v-9.916h4.811Z" transform="translate(-254.507 -242.957)" fill="#fff" stroke="#fff" stroke-width="0.3"/>
          <path id="Trazado_96" data-name="Trazado 96" d="M290.745,254h1.56a.305.305,0,0,0,0-.611h-1.56a.305.305,0,0,0,0,.611Zm0-.385h1.56a.08.08,0,1,1,0,.16h-1.56a.08.08,0,1,1,0-.16Z" transform="translate(-258.493 -241.524)" fill="#fff"/>
          <path id="Trazado_97" data-name="Trazado 97" d="M292.892,283.62h-1.106a.105.105,0,0,0-.113.1v.637a.105.105,0,0,0,.113.1h1.106a.1.1,0,0,0,.112-.1v-.637A.1.1,0,0,0,292.892,283.62Zm-.113.636H291.9v-.445h.881Z" transform="translate(-259.307 -260.12)" fill="#fff"/>
          <path id="Trazado_98" data-name="Trazado 98" d="M221.333,248.765h-9.559a.111.111,0,0,0-.113.109v12.87a.111.111,0,0,0,.113.109h9.559a.111.111,0,0,0,.113-.109v-12.87A.111.111,0,0,0,221.333,248.765Zm-.112,12.87h-9.333V248.984h9.333Z" transform="translate(-210.69 -238.714)" fill="#fff" stroke="#fff" stroke-width="0.5"/>
          <path id="Trazado_99" data-name="Trazado 99" d="M213.508,246.86a.361.361,0,1,0-.361-.361A.362.362,0,0,0,213.508,246.86Zm0-.5a.137.137,0,1,1-.137.137A.136.136,0,0,1,213.508,246.362Z" transform="translate(-211.592 -237.117)" fill="#fff"/>
          <path id="Trazado_100" data-name="Trazado 100" d="M223.4,283.618h-.837a.1.1,0,0,0-.088.107v.691a.1.1,0,0,0,.088.107h.837a.1.1,0,0,0,.088-.107v-.691A.1.1,0,0,0,223.4,283.618Zm-.088.692h-.661v-.478h.661Z" transform="translate(-217.12 -260.009)" fill="#fff"/>
          <path id="Trazado_101" data-name="Trazado 101" d="M251.269,271.619h3.5a.112.112,0,0,0,0-.224h-3.5a.112.112,0,1,0,0,.224Z" transform="translate(-234.688 -252.464)" fill="#fff" stroke="#fff" stroke-width="0.5"/>
        </g>
      </g>
    </g>
  </g>
</svg>
