<svg id="noun_User_1768489" xmlns="http://www.w3.org/2000/svg" width="46.5" height="46.5" viewBox="0 0 46.5 46.5">
  <g id="Grupo_10" data-name="Grupo 10" transform="translate(0 0)">
    <path id="Trazado_7" data-name="Trazado 7" d="M24.25,1A23.237,23.237,0,0,0,8.75,41.561v.016l.337.291c.059.051.124.094.184.144q.626.529,1.289,1.014c.119.087.238.171.359.256q.7.494,1.441.938c.082.049.167.1.249.143.54.314,1.091.609,1.657.88l.017.008a23.093,23.093,0,0,0,3.793,1.41l.073.02q.931.254,1.893.429l.179.032c.618.108,1.244.195,1.878.254.073.007.145.011.217.016.638.053,1.282.087,1.934.087s1.3-.034,1.934-.087c.073-.006.145-.01.217-.016.635-.058,1.26-.145,1.878-.254l.179-.032q.961-.176,1.893-.429l.073-.02a23.093,23.093,0,0,0,3.793-1.41l.017-.008c.566-.27,1.117-.567,1.657-.88.083-.048.167-.094.249-.143.493-.295.973-.609,1.441-.938.12-.084.24-.169.359-.256q.663-.485,1.289-1.014c.06-.05.125-.093.184-.144l.337-.291v-.016A23.237,23.237,0,0,0,24.25,1Zm0,23.25A7.75,7.75,0,1,1,32,16.5,7.759,7.759,0,0,1,24.25,24.25Zm2.906,1.937A10.669,10.669,0,0,1,37.813,36.844v3.834c-.041.034-.083.065-.124.1q-.574.466-1.176.889c-.089.063-.176.128-.265.189-.433.3-.878.573-1.33.835-.082.048-.166.1-.249.143-.475.266-.958.516-1.451.745l-.156.071a21.324,21.324,0,0,1-5.049,1.575l-.166.03q-.824.141-1.661.218c-.077.007-.154.012-.232.017-.565.044-1.132.073-1.7.073s-1.138-.029-1.7-.075l-.232-.017q-.837-.077-1.661-.218l-.166-.03a21.325,21.325,0,0,1-5.049-1.575l-.156-.071c-.493-.229-.977-.479-1.451-.745l-.249-.143c-.452-.262-.9-.54-1.33-.835-.09-.061-.177-.126-.265-.189-.4-.283-.793-.577-1.176-.889-.041-.033-.083-.065-.124-.1V36.844A10.669,10.669,0,0,1,21.344,26.187ZM39.75,38.855V36.844A12.617,12.617,0,0,0,29.694,24.507a9.688,9.688,0,1,0-10.889,0A12.617,12.617,0,0,0,8.75,36.844v2.011a21.313,21.313,0,1,1,31,0Z" transform="translate(-1 -1)" fill="#fff"/>
  </g>
</svg>
