<svg xmlns="http://www.w3.org/2000/svg" width="29" height="29" viewBox="0 0 29 29">
  <g id="Grupo_1562" data-name="Grupo 1562" transform="translate(16229 14204)">
    <g id="Grupo_274" data-name="Grupo 274" transform="translate(-16914 -14622)">
      <g id="Elipse_23" data-name="Elipse 23" transform="translate(685 418)" fill="none" stroke="#0083d6" stroke-width="1.5">
        <circle cx="14.5" cy="14.5" r="14.5" stroke="none"/>
        <circle cx="14.5" cy="14.5" r="13.75" fill="none"/>
      </g>
    </g>
    <g id="users" transform="translate(-16224.348 -14201)">
      <path id="Trazado_114" data-name="Trazado 114" d="M13.869,19.826V18.217A3.217,3.217,0,0,0,10.652,15H4.217A3.217,3.217,0,0,0,1,18.217v1.609" transform="translate(0 -2.348)" fill="none" stroke="#0083d6" stroke-linecap="round" stroke-linejoin="round" stroke-width="1.5"/>
      <circle id="Elipse_48" data-name="Elipse 48" cx="3.318" cy="3.318" r="3.318" transform="translate(4.318 3)" fill="none" stroke="#0083d6" stroke-linecap="round" stroke-linejoin="round" stroke-width="1.5"/>
      <path id="Trazado_115" data-name="Trazado 115" d="M22.413,19.851V18.243A3.217,3.217,0,0,0,20,15.13" transform="translate(-3.718 -2.374)" fill="none" stroke="#0083d6" stroke-linecap="round" stroke-linejoin="round" stroke-width="1.5"/>
      <path id="Trazado_116" data-name="Trazado 116" d="M16,3.13a3.217,3.217,0,0,1,0,6.233" transform="translate(-2.935 -0.025)" fill="none" stroke="#0083d6" stroke-linecap="round" stroke-linejoin="round" stroke-width="1.5"/>
    </g>
  </g>
</svg>
